<?xml version="1.0" encoding="UTF-8" standalone="no"?>
<!-- Created with Inkscape (http://www.inkscape.org/) -->

<svg
   width="128mm"
   height="128mm"
   viewBox="0 0 128 128"
   version="1.1"
   id="svg20140"
   xml:space="preserve"
   xmlns="http://www.w3.org/2000/svg"
   xmlns:svg="http://www.w3.org/2000/svg"><defs
     id="defs20137"><rect
       x="2248.5996"
       y="4664.7832"
       width="50.204582"
       height="60.45763"
       id="rect11939" /><rect
       x="2324"
       y="4638.5"
       width="99"
       height="97"
       id="rect11943" /><rect
       x="2248.5996"
       y="4664.7832"
       width="50.204582"
       height="60.45763"
       id="rect12791" /><rect
       x="2324"
       y="4638.5"
       width="99"
       height="97"
       id="rect12793" /><rect
       x="2248.5996"
       y="4664.7832"
       width="50.204582"
       height="60.45763"
       id="rect12803" /><rect
       x="2324"
       y="4638.5"
       width="99"
       height="97"
       id="rect12805" /></defs><g
     id="layer1"
     style="fill:#6f6f6f;fill-opacity:1"><path
       d="M 87.404333,64.007344 122.51253,28.89383 c 5.14911,-5.149134 5.14911,-13.575946 0,-18.72508 l -4.67861,-4.6786076 c -5.14913,-5.15446891 -13.57595,-5.15446891 -18.725075,0 L 64.000666,40.603677 28.887152,5.4901424 c -5.143799,-5.14911352 -13.570611,-5.14911352 -18.719745,0 L 5.4834637,10.16875 c -5.14377843,5.149134 -5.14377843,13.575946 0,18.72508 L 40.591643,64.002009 5.4834637,99.115523 c -5.14377843,5.149127 -5.14377843,13.575947 0,18.719747 l 4.6839433,4.67858 c 5.149134,5.14914 13.575946,5.14914 18.719745,0 L 64.000666,87.411032 99.108845,122.51385 c 5.149125,5.14914 13.575945,5.14914 18.725075,0 l 4.67861,-4.67858 c 5.14911,-5.14914 5.14911,-13.57595 0,-18.719747 z"
       id="path38031"
       style="stroke-width:5.34696;fill:#6f6f6f;fill-opacity:1" /></g></svg>
