<?xml version="1.0" encoding="UTF-8" standalone="no"?>
<!-- Created with Inkscape (http://www.inkscape.org/) -->

<svg
   width="128mm"
   height="128mm"
   viewBox="0 0 128 128"
   version="1.1"
   id="svg20140"
   xmlns="http://www.w3.org/2000/svg"
   xmlns:svg="http://www.w3.org/2000/svg">
  <defs
     id="defs20137">
    <rect
       x="2248.5996"
       y="4664.7832"
       width="50.204582"
       height="60.45763"
       id="rect11939" />
    <rect
       x="2324"
       y="4638.5"
       width="99"
       height="97"
       id="rect11943" />
    <rect
       x="2248.5996"
       y="4664.7832"
       width="50.204582"
       height="60.45763"
       id="rect12791" />
    <rect
       x="2324"
       y="4638.5"
       width="99"
       height="97"
       id="rect12793" />
    <rect
       x="2248.5996"
       y="4664.7832"
       width="50.204582"
       height="60.45763"
       id="rect12803" />
    <rect
       x="2324"
       y="4638.5"
       width="99"
       height="97"
       id="rect12805" />
  </defs>
  <g
     id="layer1">
    <g
       style="fill:none;fill-rule:nonzero;stroke:none;stroke-width:0;stroke-linecap:butt;stroke-linejoin:miter;stroke-miterlimit:10;stroke-dasharray:none"
       transform="matrix(1.3649646,0,0,1.3649646,2.5765912,2.5765912)"
       id="g14809">
	<path
   d="m 10.681,88.074 c -1.509,0 -2.928,-0.588 -3.995,-1.655 L 3.582,83.315 C 2.515,82.248 1.927,80.829 1.927,79.32 c 0,-1.51 0.587,-2.929 1.655,-3.995 L 29.839,49.068 c -2.014,-7.51 1.917,-15.581 9.151,-18.577 4.563,-1.89 9.834,-1.488 14.101,1.076 0.265,0.158 0.44,0.43 0.478,0.735 0.038,0.306 -0.067,0.611 -0.285,0.829 L 40.531,45.883 c -0.988,0.989 -0.988,2.597 0,3.585 0.958,0.957 2.627,0.957 3.585,0 L 56.871,36.712 c 0.218,-0.217 0.526,-0.322 0.828,-0.286 0.306,0.037 0.576,0.213 0.735,0.477 0.447,0.741 0.798,1.424 1.073,2.086 3.313,8.001 -0.499,17.205 -8.499,20.519 -3.188,1.321 -6.742,1.548 -10.074,0.651 l -26.26,26.259 c -1.065,1.068 -2.484,1.656 -3.993,1.656 z"
   style="opacity:1;fill:#f0636c;fill-opacity:1;fill-rule:nonzero;stroke:none;stroke-width:1;stroke-linecap:butt;stroke-linejoin:miter;stroke-miterlimit:10;stroke-dasharray:none"
   stroke-linecap="round"
   id="path14805" />

	<path
   d="M 49.972,90 H 40.03 c -3.773,-0.002 -6.841,-3.071 -6.841,-6.842 0,-1.816 -0.997,-2.829 -1.832,-3.358 -0.261,-0.165 -0.431,-0.442 -0.46,-0.749 -0.029,-0.308 0.085,-0.611 0.31,-0.823 l 10.219,-9.63 c 0.216,-0.203 0.507,-0.305 0.806,-0.266 3.977,0.479 8.045,-0.082 11.762,-1.621 C 59.783,64.314 64.297,59.795 66.701,53.989 69.106,48.182 69.11,41.797 66.712,36.008 61.754,24.037 47.982,18.332 36.008,23.289 26.33,27.298 20.431,37.365 21.663,47.771 c 0.036,0.304 -0.069,0.607 -0.286,0.824 l -9.865,9.87 c -0.205,0.205 -0.481,0.317 -0.779,0.29 -0.29,-0.021 -0.556,-0.166 -0.729,-0.397 -0.768,-1.026 -1.832,-1.547 -3.162,-1.548 -10e-4,0 -0.003,0 -0.004,0 -1.825,0 -3.541,-0.711 -4.833,-2.003 C 0.712,53.515 0,51.797 0,49.969 V 40.03 c 0,-1.827 0.711,-3.544 2.003,-4.837 1.293,-1.292 3.011,-2.004 4.838,-2.004 0,0 10e-4,0 10e-4,0 2.411,0 3.382,-1.724 3.688,-2.465 0.308,-0.743 0.839,-2.651 -0.865,-4.355 -1.292,-1.292 -2.004,-3.01 -2.003,-4.838 0,-1.828 0.712,-3.546 2.004,-4.838 l 7.027,-7.027 c 1.293,-1.292 3.01,-2.003 4.833,-2.003 0.002,0 0.003,0 0.004,0 1.827,0 3.545,0.712 4.837,2.004 1.703,1.704 3.613,1.172 4.354,0.865 0.742,-0.307 2.466,-1.28 2.466,-3.69 C 33.192,3.07 36.26,0.001 40.029,0 h 9.941 c 10e-4,0 0.002,0 0.002,0 1.826,0 3.543,0.711 4.835,2.004 1.291,1.291 2.003,3.008 2.004,4.835 0,2.414 1.725,3.386 2.466,3.692 0.579,0.241 2.599,0.889 4.354,-0.865 C 66.296,7.001 70.636,7 73.304,9.665 l 7.029,7.03 c 1.292,1.292 2.004,3.01 2.004,4.837 0,1.828 -0.712,3.546 -2.004,4.838 -1.754,1.754 -1.106,3.775 -0.866,4.353 0.309,0.743 1.283,2.468 3.691,2.468 3.772,10e-4 6.841,3.069 6.842,6.839 l -0.001,9.94 c -0.002,3.769 -3.07,6.837 -6.839,6.842 h -10e-4 c -2.411,0 -3.385,1.725 -3.691,2.466 -0.241,0.58 -0.889,2.601 0.865,4.354 2.665,2.666 2.666,7.005 0.003,9.673 l -7.031,7.03 c -2.668,2.662 -7.006,2.662 -9.672,0.002 -1.704,-1.707 -3.613,-1.175 -4.355,-0.868 -0.742,0.308 -2.467,1.282 -2.467,3.691 0,1.827 -0.712,3.545 -2.004,4.837 -0.643,0.643 -1.39,1.143 -2.219,1.485 -0.827,0.342 -1.707,0.517 -2.616,0.518 z"
   style="opacity:1;fill:#3dc0bb;fill-opacity:1;fill-rule:nonzero;stroke:none;stroke-width:1;stroke-linecap:butt;stroke-linejoin:miter;stroke-miterlimit:10;stroke-dasharray:none"
   stroke-linecap="round"
   id="path14807" />

</g>
  </g>
</svg>
