<?xml version="1.0" encoding="UTF-8" standalone="no"?>
<!-- Generator: Adobe Illustrator 23.0.3, SVG Export Plug-In . SVG Version: 6.00 Build 0)  -->

<svg
   version="1.1"
   id="Icons"
   x="0px"
   y="0px"
   viewBox="0 0 32 32"
   style="enable-background:new 0 0 32 32;"
   xml:space="preserve"
   xmlns="http://www.w3.org/2000/svg"
   xmlns:svg="http://www.w3.org/2000/svg"><defs
   id="defs39530" />
<style
   type="text/css"
   id="style39517">
	.st0{fill:none;stroke:#000000;stroke-width:2;stroke-linecap:round;stroke-linejoin:round;stroke-miterlimit:10;}
</style>
<g
   id="g39525"
   transform="matrix(0.85586431,0,0,0.85586431,2.3061711,2.312728)"
   style="fill:#ffffff;fill-opacity:1">
	<path
   d="M 20.4,2.9 C 20.1,2.7 19.7,2.8 19.4,3 L 9.7,10 H 3 c -0.6,0 -1,0.4 -1,1 v 10 c 0,0.6 0.4,1 1,1 h 6.7 l 9.7,7.1 c 0.2,0.1 0.4,0.2 0.6,0.2 0.2,0 0.3,0 0.5,-0.1 C 20.8,29 21,28.7 21,28.3 V 3.8 C 21,3.4 20.8,3 20.4,2.9 Z"
   id="path39519"
   style="fill:#ffffff;fill-opacity:1" />
	<path
   d="m 27.1,9.3 c -0.4,-0.4 -1,-0.4 -1.4,0 -0.4,0.4 -0.4,1 0,1.4 1.5,1.4 2.3,3.3 2.3,5.3 0,2 -0.8,3.9 -2.3,5.3 -0.4,0.4 -0.4,1 0,1.4 0.2,0.2 0.5,0.3 0.7,0.3 0.2,0 0.5,-0.1 0.7,-0.3 C 29,20.9 30,18.6 30,16 30,13.4 29,11.1 27.1,9.3 Z"
   id="path39521"
   style="fill:#ffffff;fill-opacity:1" />
	<path
   d="m 24.7,12.7 c -0.4,-0.4 -1,-0.4 -1.4,0.1 -0.4,0.4 -0.3,1 0.1,1.4 0.5,0.5 0.8,1.2 0.8,1.9 0,0.7 -0.3,1.4 -0.8,1.9 -0.4,0.4 -0.4,1 -0.1,1.4 0.2,0.2 0.5,0.3 0.7,0.3 0.2,0 0.5,-0.1 0.7,-0.3 1,-0.9 1.5,-2.1 1.5,-3.3 0,-1.2 -0.6,-2.6 -1.5,-3.4 z"
   id="path39523"
   style="fill:#ffffff;fill-opacity:1" />
</g>
</svg>
