<?xml version="1.0" encoding="UTF-8" standalone="no"?>
<!-- Created with Inkscape (http://www.inkscape.org/) -->

<svg
   width="128mm"
   height="128mm"
   viewBox="0 0 128 128"
   version="1.1"
   id="svg20140"
   xmlns="http://www.w3.org/2000/svg"
   xmlns:svg="http://www.w3.org/2000/svg">
  <defs
     id="defs20137">
    <rect
       x="2248.5996"
       y="4664.7832"
       width="50.204582"
       height="60.45763"
       id="rect11939" />
    <rect
       x="2324"
       y="4638.5"
       width="99"
       height="97"
       id="rect11943" />
    <rect
       x="2248.5996"
       y="4664.7832"
       width="50.204582"
       height="60.45763"
       id="rect12791" />
    <rect
       x="2324"
       y="4638.5"
       width="99"
       height="97"
       id="rect12793" />
    <rect
       x="2248.5996"
       y="4664.7832"
       width="50.204582"
       height="60.45763"
       id="rect12803" />
    <rect
       x="2324"
       y="4638.5"
       width="99"
       height="97"
       id="rect12805" />
  </defs>
  <g
     id="layer1">
    <path
       d="M 115.99511,4.6256306 C 106.80616,-0.4869315 95.231939,2.8407228 90.14776,12.009235 L 54.864681,75.506014 34.671592,55.312824 c -7.42165,-7.421549 -19.452113,-7.421549 -26.8737621,0 -7.42154854,7.421649 -7.42154854,19.451911 0,26.873459 L 45.808595,120.19675 c 3.591958,3.60162 8.438404,5.57807 13.43673,5.57807 l 2.632673,-0.18016 c 5.900945,-0.82633 11.079935,-4.37129 13.978322,-9.58802 l 47.51333,-85.523802 c 5.1028,-9.179683 1.79578,-20.7444442 -7.37424,-25.8474445 z"
       id="path4656"
       style="fill:#ff7022;fill-opacity:1;stroke-width:9.50259" />
  </g>
</svg>
