<?xml version="1.0" encoding="utf-8"?>
<!-- Generator: Adobe Illustrator 16.0.0, SVG Export Plug-In . SVG Version: 6.00 Build 0)  -->
<!DOCTYPE svg PUBLIC "-//W3C//DTD SVG 1.0//EN" "http://www.w3.org/TR/2001/REC-SVG-20010904/DTD/svg10.dtd">
<svg version="1.0" id="Layer_1" xmlns="http://www.w3.org/2000/svg" xmlns:xlink="http://www.w3.org/1999/xlink" x="0px" y="0px"
	 width="100px" height="100px" viewBox="0 0 100 100" enable-background="new 0 0 100 100" xml:space="preserve">
<path d="M80,23.333h-3.333C72.985,23.333,70,26.321,70,30v3.333v3.398c-6.081-8.121-15.745-13.398-26.667-13.398
	C24.925,23.333,10,38.259,10,56.667V70h5.735c-0.703,2.266-1.504,4.492-2.402,6.667h7.143c0.83-2.197,1.539-4.424,2.184-6.667
	h10.674c11.306,0,21.406-2.087,29.313-5.635c0.892,4.163,2.028,8.281,3.545,12.302h7.142c-2.054-4.968-3.606-10.195-4.619-15.609
	c5.98-3.929,9.883-8.936,10.957-14.58C85.583,45.794,90,43.157,90,39.997v-6.664C90,27.813,85.524,23.333,80,23.333z M30,63.333
	H16.667v-6.666C16.667,41.94,28.606,30,43.333,30c11.826-0.003,21.846,7.708,25.336,18.372C64.192,56.973,48.601,63.333,30,63.333z
	 M80,35.833c-1.384,0-2.5-1.119-2.5-2.503c0-1.377,1.116-2.497,2.5-2.497s2.5,1.12,2.5,2.5C82.5,34.714,81.384,35.833,80,35.833z"/>
</svg>
