<?xml version="1.0" encoding="UTF-8" standalone="no"?>
<!-- Created with Inkscape (http://www.inkscape.org/) -->

<svg
   width="256mm"
   height="256mm"
   viewBox="0 0 256 256"
   version="1.1"
   id="svg5"
   xml:space="preserve"
   xmlns:xlink="http://www.w3.org/1999/xlink"
   xmlns="http://www.w3.org/2000/svg"
   xmlns:svg="http://www.w3.org/2000/svg">
   
   <style
   id="style182">
#cow-head {
  transform-origin: 50% 100%;
  animation:cow-head 3s cubic-bezier(0.55, 0.09, 0.68, 0.53) infinite;
} @keyframes cow-head {
  0% {transform: rotate(0deg);}
  25% {transform: rotate(-2deg);}
  75% {transform: rotate(2deg);}
  100% {transform: rotate(0deg);}
}
#cow-tail {
  transform-origin: 0% 50%;
  animation:cow-tail 2s cubic-bezier(0.55, 0.09, 0.68, 0.53) infinite;
} @keyframes cow-tail {
  0% {transform: rotate(0deg);}
  25% {transform: rotate(3deg);}
  50% {transform: rotate(-2deg);}
  100% {transform: rotate(0deg);}
}
   </style>

   <defs
   id="defs2"><linearGradient
     id="linearGradient84047"><stop
       style="stop-color:#f0b74e;stop-opacity:1;"
       offset="0"
       id="stop84043" /><stop
       style="stop-color:#d69144;stop-opacity:1;"
       offset="1"
       id="stop84045" /></linearGradient><linearGradient
     id="linearGradient81900"><stop
       style="stop-color:#edb84e;stop-opacity:1;"
       offset="0"
       id="stop81896" /><stop
       style="stop-color:#d89044;stop-opacity:1;"
       offset="1"
       id="stop81898" /></linearGradient><linearGradient
     xlink:href="#linearGradient81900"
     id="linearGradient81902"
     x1="106.22931"
     y1="26.416666"
     x2="108.52789"
     y2="138.53188"
     gradientUnits="userSpaceOnUse" /><linearGradient
     xlink:href="#linearGradient84047"
     id="linearGradient84049"
     x1="131.43222"
     y1="156.12381"
     x2="133.99962"
     y2="221.99149"
     gradientUnits="userSpaceOnUse"
     gradientTransform="translate(-1.6350134,-4.5546801)" /></defs><g
   id="tiger-tail"><path
     id="path1171"
     style="fill:#edb94e;stroke:#604532;stroke-width:2.57981;stroke-linecap:round;stroke-dasharray:none;stroke-opacity:1;fill-opacity:1"
     d="m 212.50458,130.53647 c -4.5613,-0.5362 -7.7587,1.22898 -10.01378,4.40611 -2.23139,3.14376 -2.98026,7.1664 -1.47364,12.3917 1.73456,6.01593 4.23806,11.41669 6.49713,16.5447 0.82607,1.87513 1.11149,4.42808 -0.60285,6.43045 -1.38503,1.61771 -3.61686,1.95635 -5.42539,2.54508 l 2.00951,6.96632 c 4.79889,0.80787 8.02401,0.34835 12.12377,-5.29173 3.12672,-4.30144 3.11855,-10.15241 0.8038,-15.20501 -2.38502,-5.20601 -5.77689,-10.05503 -6.22949,-15.40599 -0.16242,-1.92035 0.91617,-2.77094 2.31094,-2.73002 z" /><path
     id="path3464"
     style="fill:#604532;fill-opacity:1;stroke:#604532;stroke-width:2.57981;stroke-linecap:round;stroke-dasharray:none;stroke-opacity:1"
     d="m 210.03505,130.40041 c 2.47191,1.47537 2.76451,7.19016 2.46953,10.78767 1.56754,0.046 3.5346,1.21814 4.58839,3.2659 1.72423,3.35059 7.87751,-1.13636 6.16221,-7.033 -0.87123,-2.99502 -5.08885,-5.48486 -7.90378,-6.29647 -1.00371,-0.28939 -4.42096,-0.61884 -5.31635,-0.7241 z" /></g><path
   style="fill:#ffffff;fill-opacity:1;stroke:#000000;stroke-width:1.3;stroke-dasharray:none;stroke-opacity:1"
   d="m 105.90517,228.94493 c 0.26865,-0.23757 0.28189,-0.9397 0.0459,-2.4394 -0.1822,-1.1582 -0.37151,-2.59585 -0.42073,-3.19479 l -0.0896,-1.08898 -8.464365,0.004 c -4.655393,0.003 -8.510754,0.0417 -8.567473,0.0882 -0.05669,0.0465 -0.159711,1.5482 -0.228846,3.33711 l -0.125748,3.25253 8.522751,0.13171 c 4.687511,0.0723 8.619031,0.15687 8.736691,0.18764 0.11757,0.0307 0.3837,-0.0942 0.59118,-0.27764 z"
   id="path60420" /><path
   style="fill:#ffffff;fill-opacity:1;stroke:#000000;stroke-width:1.3;stroke-dasharray:none;stroke-opacity:1"
   d="m 154.48511,228.98658 h 9.18235 l -0.19688,-3.27004 c -0.10833,-1.79851 -0.23113,-3.30523 -0.27301,-3.34822 -0.11791,-0.12108 -19.10903,-0.0949 -19.24806,0.0264 -0.0676,0.0589 -0.16051,1.5161 -0.20652,3.23801 -0.0705,2.6401 -0.0142,3.16651 0.36159,3.35903 0.24491,0.1255 0.61467,0.17573 0.82174,0.1116 0.20704,-0.0642 4.50851,-0.11679 9.55879,-0.11679 z"
   id="path60422" /><path
   style="fill:url(#linearGradient84049);fill-opacity:1;stroke:#533822;stroke-width:3.598;stroke-dasharray:none;stroke-opacity:1"
   d="m 125.219,242.45053 c 0.16813,-2.19678 0.89267,-3.88685 1.9164,-4.47028 0.55362,-0.31552 0.74166,-0.33254 1.3863,-0.12556 1.3056,0.41923 2.04525,1.42263 2.3294,3.16004 0.19037,1.16401 0.4251,1.58434 0.88475,1.58434 0.66786,0 0.93366,-0.50925 1.0514,-2.01431 0.21242,-2.7154 1.2389,-4.12091 2.89432,-3.96302 1.38003,0.1316 2.62031,1.93528 2.67836,3.89504 0.0115,0.39069 0.13214,0.61339 0.35542,0.65648 0.65746,0.12689 2.6503,-4.62571 3.70634,-8.83902 0.48106,-1.91935 0.90264,-4.93234 1.2932,-9.24234 0.14588,-1.60984 0.50564,-3.64697 0.73168,-4.14309 0.12803,-0.281 0.39025,-0.51091 0.5827,-0.51091 0.42638,0 1.13976,0.86771 1.2883,1.56702 0.28895,1.36037 -0.30803,1.25011 7.06673,1.30496 4.76788,0.0355 6.71808,-0.0141 6.83606,-0.17341 0.0908,-0.12266 0.19031,-0.57838 0.22116,-1.01271 0.14369,-2.02298 1.29199,-2.51904 2.16359,-0.93464 0.54176,0.98485 0.92176,2.53021 1.10576,4.49691 0.16564,1.77044 0.91051,5.64882 2.07291,10.7933 0.56785,2.51314 1.78967,5.99314 2.24242,6.38687 0.2192,0.19062 0.61146,0.34657 0.8717,0.34657 0.38358,0 0.47361,-0.1031 0.47552,-0.54462 0.003,-0.70994 0.44773,-2.36589 0.83771,-3.11964 0.48888,-0.9449 1.08945,-1.37681 1.91441,-1.37681 0.92629,0 1.64799,0.46218 2.32929,1.49169 0.44257,0.66878 0.54671,1.09279 0.64327,2.61925 0.10338,1.63431 0.15487,1.82132 0.50138,1.82132 0.33113,0 0.41957,-0.22576 0.62063,-1.58433 0.27878,-1.88381 0.47893,-2.43036 1.10114,-3.00696 1.08192,-1.00261 2.3018,-0.91581 3.31283,0.23569 0.71522,0.81459 1.25454,2.50062 1.24378,3.88838 l -0.008,0.9849 0.7314,-0.0608 0.73141,-0.0608 0.1168,-1.22042 c 0.17009,-1.77711 0.95706,-3.27719 1.95545,-3.7274 0.66606,-0.30034 0.87594,-0.31665 1.38152,-0.10721 1.34075,0.55534 1.9345,1.50757 2.2262,3.57024 l 0.22398,1.58381 0.71181,-0.003 c 0.9679,-0.004 1.25761,-0.22113 1.10531,-0.82794 -0.17131,-0.68251 0.23805,-2.84927 0.73526,-3.89188 1.39663,-2.92861 4.91152,-1.16241 4.91152,2.468 0,1.22492 0.24961,1.4554 1.16534,1.07608 0.84243,-0.34893 1.07604,-0.91012 2.51852,-6.04977 2.46875,-8.79636 3.60776,-14.37746 4.44589,-21.78466 0.688,-6.08029 0.88124,-9.61789 0.87627,-16.04142 -0.004,-5.16069 -0.0877,-7.12476 -0.45091,-10.57818 -0.2453,-2.33245 -0.52938,-4.60499 -0.6313,-5.05008 -0.10192,-0.44515 -0.33306,-1.61139 -0.51365,-2.5917 -2.23237,-12.11796 -7.37687,-23.00909 -15.64186,-33.11448 -2.95647,-3.6148 -10.25499,-10.94993 -10.89528,-10.94993 -0.16148,0 -0.34523,0.15595 -0.40834,0.34657 -0.30353,0.91686 -1.91323,4.9253 -2.04787,5.09959 -0.0841,0.10892 -0.21921,0.42084 -0.30015,0.69315 -0.37745,1.26992 -4.01962,6.97684 -6.31955,9.90211 -4.45579,5.66731 -11.26959,10.99413 -18.54657,14.49912 -3.76188,1.81193 -6.33524,2.80903 -10.1877,3.94745 -7.29165,2.1547 -15.24595,3.45737 -24.16117,3.95685 -8.9739,0.50277 -22.535026,-0.10179 -29.606061,-1.31984 -6.764439,-1.16523 -10.460092,-2.15184 -16.735839,-4.46786 -3.586483,-1.32356 -10.999953,-5.35959 -12.623134,-6.87226 -0.628461,-0.58568 -0.747144,-0.51697 -1.060506,0.61385 -2.714062,9.79415 -4.915883,22.70356 -5.455085,31.98343 -0.275023,4.73327 -0.275293,15.27516 -5.91e-4,19.25043 0.710872,10.2836 4.142953,25.55033 5.895064,26.22266 0.475227,0.18238 0.634195,-0.0443 0.857789,-1.22334 0.360106,-1.89884 1.456331,-3.41726 2.461448,-3.40944 0.230383,0.002 0.775363,0.2023 1.211053,0.44559 1.150889,0.64263 1.771618,1.9768 1.818242,3.90807 0.01969,0.81692 0.04199,1.55216 0.04948,1.63385 0.0075,0.0817 0.185884,0.14853 0.396394,0.14853 0.41373,0 0.510556,-0.21733 0.705872,-1.58434 0.214439,-1.50086 0.490885,-2.13319 1.207857,-2.76269 0.796867,-0.69966 1.38565,-0.75426 2.423529,-0.2248 1.020087,0.52042 1.814245,2.08586 1.818429,3.58447 0.0037,1.34102 0.17405,1.63193 0.906172,1.54784 0.535474,-0.0615 0.581874,-0.14156 0.783858,-1.35265 0.494388,-2.96427 2.154987,-4.29625 3.973618,-3.18729 0.760296,0.46362 1.44821,1.83749 1.644574,3.28447 0.174664,1.28711 0.225442,1.35471 1.001089,1.33265 0.884189,-0.0252 0.995649,-0.16842 0.995649,-1.27999 0,-1.58581 0.538303,-3.20028 1.343471,-4.02933 0.65656,-0.67603 0.75555,-0.71307 1.597927,-0.59761 1.416593,0.19417 2.520737,1.5534 2.690079,3.31156 0.104731,1.08733 0.325578,1.26688 0.952108,0.77405 1.321982,-1.03986 3.253308,-8.41313 4.20305,-16.04602 0.276124,-2.21921 0.677833,-3.75417 1.122805,-4.29033 0.554733,-0.66841 1.557432,0.073 1.557432,1.15157 0,1.11055 0.208504,1.1586 5.014718,1.15562 2.415756,-0.002 4.584289,-0.0542 4.818949,-0.11716 0.30886,-0.0829 0.49046,-0.36917 0.65775,-1.03701 0.2325,-0.92808 0.8653,-1.81375 1.29594,-1.81375 0.87589,0 1.56953,2.32106 2.57455,8.61484 0.65489,4.10118 1.86027,8.47926 3.05339,11.09038 0.29863,0.65353 0.69277,1.52928 0.87585,1.94607 0.18309,0.4168 0.43852,0.7226 0.56761,0.67957 0.1291,-0.043 0.33361,-0.65141 0.45446,-1.35194 0.43344,-2.51239 1.59697,-3.76072 3.11466,-3.34166 1.46372,0.40414 2.59942,2.55963 2.49973,4.74435 -0.0481,1.05513 0.15234,1.37418 0.86741,1.38044 0.25718,0.002 0.34657,-0.15748 0.34657,-0.61926 0,-0.34225 0.17963,-1.22542 0.39917,-1.96262 0.49926,-1.67641 1.47444,-2.67468 2.42676,-2.4842 0.32466,0.0649 0.70528,0.11805 0.84582,0.11805 0.8357,0 2.04892,2.33813 2.10662,4.05987 0.0424,1.26623 0.0566,1.28727 0.86774,1.28727 0.3748,0 0.68657,-0.0668 0.69282,-0.14853 z"
   id="path60364" /><path
   style="fill:#ffffff;fill-opacity:1;stroke:#000000;stroke-width:0.4;stroke-dasharray:none;stroke-opacity:1"
   d="m 61.159268,239.92298 c 0.138242,-0.55081 -0.02837,-2.02377 -0.341199,-3.01699 -0.655893,-2.08222 -2.565925,-0.94261 -2.881158,1.71902 -0.129058,1.08971 -0.08055,1.14193 1.396406,1.50334 1.514161,0.3705 1.686273,0.35115 1.825951,-0.20537 z"
   id="path60418" /><path
   style="fill:#ffffff;fill-opacity:1;stroke:#000000;stroke-width:0.4;stroke-dasharray:none;stroke-opacity:1"
   d="m 81.585027,240.75807 c 1.173988,-0.35123 1.284272,-0.51428 1.130701,-1.67192 -0.166235,-1.25319 -0.849816,-2.50725 -1.410807,-2.58821 -0.541013,-0.0781 -1.391863,0.82169 -1.649371,1.74422 -0.220944,0.79149 -0.260772,2.44346 -0.0637,2.64056 0.205113,0.2051 1.072093,0.1509 1.993145,-0.12465 z"
   id="path60416" /><path
   style="fill:#ffffff;fill-opacity:1;stroke:#000000;stroke-width:0.4;stroke-dasharray:none;stroke-opacity:1"
   d="m 67.842106,240.78467 c 0.146265,-0.2334 0.130621,-0.57892 -0.05382,-1.18826 -0.143017,-0.47255 -0.346072,-1.15195 -0.45123,-1.50982 -0.21786,-0.74135 -0.931621,-1.30062 -1.420478,-1.11301 -0.857608,0.32909 -1.849417,3.3132 -1.262947,3.79991 0.238564,0.19801 1.701587,0.3986 2.606359,0.35739 0.206723,-0.01 0.468662,-0.16522 0.582084,-0.34621 z"
   id="path60414" /><path
   style="fill:#ffffff;fill-opacity:1;stroke:#000000;stroke-width:0.4;stroke-dasharray:none;stroke-opacity:1"
   d="m 75.102917,240.5438 c 0,-1.42443 -0.852826,-3.09383 -1.580509,-3.09383 -0.481791,0 -1.134009,0.77583 -1.482447,1.76341 -0.3181,0.90158 -0.396199,1.84094 -0.171729,2.0654 0.0726,0.0726 0.830123,0.13203 1.683361,0.13203 h 1.551324 z"
   id="path60412" /><path
   style="fill:#ffffff;fill-opacity:1;stroke:#000000;stroke-width:0.4;stroke-dasharray:none;stroke-opacity:1"
   d="m 115.42526,241.29971 c 0.27911,-1.11204 -0.66157,-3.88817 -1.41553,-4.17749 -0.38888,-0.14922 -1.02036,0.42396 -1.49788,1.35959 -0.41854,0.82005 -0.51017,2.62406 -0.14475,2.84991 0.3573,0.22082 1.37761,0.43256 2.19198,0.4549 0.63536,0.0174 0.75673,-0.0507 0.86618,-0.48691 z"
   id="path60410" /><path
   style="fill:#ffffff;fill-opacity:1;stroke:#000000;stroke-width:0.4;stroke-dasharray:none;stroke-opacity:1"
   d="m 173.92494,241.06424 c -0.003,-2.38607 -0.98895,-4.1288 -2.02819,-3.58425 -0.8011,0.41978 -1.64223,3.21367 -1.17446,3.9011 0.21893,0.32174 1.21368,0.57592 2.36207,0.60357 l 0.84168,0.0203 -0.001,-0.9407 z"
   id="path60408" /><path
   style="fill:#ffffff;fill-opacity:1;stroke:#000000;stroke-width:0.4;stroke-dasharray:none;stroke-opacity:1"
   d="m 195.46314,241.85344 c 0.3187,-0.41234 0.31209,-0.62855 -0.0641,-2.09741 -0.39814,-1.55457 -0.75682,-2.10802 -1.3662,-2.10802 -1.23703,0 -2.3183,3.25122 -1.53813,4.62494 0.16547,0.29138 2.69531,-0.0662 2.96842,-0.41951 z"
   id="path60406" /><path
   style="fill:#ffffff;fill-opacity:1;stroke:#000000;stroke-width:0.4;stroke-dasharray:none;stroke-opacity:1"
   d="m 137.06005,241.72384 c 0.29291,-0.29291 0.2905,-0.42623 -0.0297,-1.64722 -0.37338,-1.4236 -0.7745,-2.18319 -1.24904,-2.3653 -0.3873,-0.14861 -1.22159,0.64518 -1.5986,1.52103 -0.38014,0.88311 -0.44965,2.73057 -0.11064,2.94077 0.39213,0.24313 2.63247,-0.0937 2.98802,-0.44928 z"
   id="path60404" /><path
   style="fill:#ffffff;fill-opacity:1;stroke:#000000;stroke-width:0.4;stroke-dasharray:none;stroke-opacity:1"
   d="m 180.54669,241.20115 c -0.0226,-2.13005 -1.20578,-3.75484 -2.15853,-2.96414 -0.77951,0.64694 -1.47952,3.47515 -0.97926,3.95643 0.25734,0.24757 1.01571,0.36457 2.16135,0.33348 l 0.9902,-0.0269 -0.0138,-1.2989 z"
   id="path60402" /><path
   style="fill:#5f452f;fill-opacity:1;stroke-width:0.198042"
   d="m 180.89491,156.63612 c -2.34329,-1.17096 -3.77619,-3.62724 -3.8201,-6.54843 -0.0252,-1.67764 0.27972,-2.56154 1.16779,-3.38488 2.45588,-2.27692 7.24382,-0.18298 8.53894,3.7344 0.60746,1.83738 0.59361,3.95518 -0.0334,5.10162 -0.963,1.7609 -3.55346,2.24652 -5.85328,1.09729 z"
   id="path60398" /><path
   style="fill:#5f452f;fill-opacity:1;stroke-width:0.198042"
   d="m 191.92458,171.62455 c -2.37043,-0.84707 -3.98974,-2.89476 -4.52264,-5.71909 -0.50971,-2.70135 0.38556,-5.08229 2.24234,-5.96339 0.77024,-0.3655 2.24885,-0.41824 3.32736,-0.11869 1.40706,0.39081 3.68255,2.88285 4.10639,4.49716 0.36581,1.39333 0.46122,3.13333 0.23227,4.23619 -0.52507,2.52923 -2.97989,3.92754 -5.38572,3.06782 z"
   id="path60394" /><path
   style="fill:#5f452f;fill-opacity:1;stroke-width:0.198042"
   d="m 178.45276,173.60327 c -1.27684,-0.45616 -2.03075,-1.00876 -2.97495,-2.18054 -1.20878,-1.50014 -1.6521,-3.04558 -1.50198,-5.23591 0.14224,-2.07509 0.67799,-2.95417 2.25519,-3.7003 1.06032,-0.50161 1.20398,-0.52187 2.16897,-0.30591 1.40363,0.31411 2.70463,1.22196 3.65694,2.55184 1.06374,1.48551 1.43336,2.82516 1.34019,4.85741 -0.0965,2.10398 -0.63915,3.02632 -2.22087,3.77459 -1.21275,0.57372 -1.67308,0.61409 -2.72349,0.23882 z"
   id="path60390" /><path
   style="fill:#5f452f;fill-opacity:1;stroke-width:0.198042"
   d="m 183.92717,186.63923 c -0.96897,-0.50152 -2.02447,-1.65765 -2.50006,-2.73844 -0.63063,-1.4331 -0.60312,-3.81769 0.0551,-4.77833 2.42595,-3.54045 7.73497,-0.039 7.23824,4.77386 -0.20592,1.99519 -1.28892,3.05372 -3.12219,3.05164 -0.59234,-6e-4 -1.34434,-0.1396 -1.67111,-0.30873 z"
   id="path60386" /><path
   style="fill:#5f452f;fill-opacity:1;stroke-width:0.198042"
   d="m 195.89421,187.75853 c -0.95137,-0.52005 -2.10671,-1.83125 -2.57388,-2.92112 -0.52701,-1.22946 -0.53359,-4.36833 -0.0116,-5.51748 0.4121,-0.90719 1.39531,-1.91423 2.0548,-2.1046 0.84187,-0.24302 2.36714,-0.16808 3.03563,0.14915 1.62003,0.76875 3.25235,3.49996 3.25262,5.44229 2e-4,2.03725 -0.3709,3.28427 -1.27476,4.28262 -0.81341,0.89844 -0.8276,0.90449 -2.29682,0.98 -1.19216,0.0612 -1.61533,0.001 -2.18601,-0.31086 z"
   id="path60382" /><path
   style="fill:#5f452f;fill-opacity:1;stroke-width:0.198042"
   d="m 56.296963,188.15334 c -3.810159,-1.54475 -4.445925,-7.69526 -1.125349,-10.88672 0.553221,-0.53172 0.905109,-0.69146 1.689087,-0.76679 0.544658,-0.0523 1.292708,-0.0384 1.662335,0.0309 0.992625,0.18623 2.216006,1.34385 2.908958,2.7526 0.533311,1.0842 0.606358,1.44013 0.618266,3.01266 0.01512,1.99503 -0.292067,3.0359 -1.330836,4.50962 -0.678005,0.96189 -2.00992,1.73488 -2.958225,1.71683 -0.319612,-0.006 -0.978515,-0.17219 -1.464236,-0.36912 z"
   id="path60378" /><path
   style="fill:#5f452f;fill-opacity:1;stroke-width:0.198042"
   d="m 64.705699,195.77927 c -2.298319,-0.98546 -3.111758,-3.75999 -1.862583,-6.35303 1.057804,-2.1958 3.27006,-2.51627 4.802013,-0.69564 0.633558,0.75293 0.919854,1.74629 0.921291,3.19653 0.0022,2.54672 -2.073722,4.61835 -3.860721,3.85214 z"
   id="path60374" /><path
   style="fill:#5f452f;fill-opacity:1;stroke-width:0.198042"
   d="m 196.99797,202.08567 c -2.62877,-1.3644 -3.36741,-4.42377 -1.8699,-7.74491 0.75401,-1.67224 2.84519,-2.52318 4.32284,-1.75906 2.14994,1.11178 3.08605,3.83195 2.31991,6.74124 -0.61445,2.33329 -2.97153,3.69767 -4.77285,2.76273 z"
   id="path60370" /><path
   style="fill:#5f452f;fill-opacity:1;stroke-width:0.198042"
   d="m 55.591608,202.80658 c -2.565243,-0.61519 -3.951679,-4.00014 -2.817962,-6.87989 1.148756,-2.91794 3.717555,-3.71874 5.617159,-1.7511 1.935376,2.00471 1.935855,5.63337 7.49e-4,7.7746 -0.474681,0.52531 -1.667485,1.10333 -2.102929,1.01904 -0.05449,-0.0105 -0.368243,-0.0837 -0.697294,-0.16265 z"
   id="path60366" /><path
   style="fill:#ffffff;fill-opacity:1;stroke:#000000;stroke-width:0.4;stroke-dasharray:none;stroke-opacity:1"
   d="m 122.43728,242.29931 c 0.33113,-0.39899 -0.0888,-2.44617 -0.68311,-3.33038 -0.63396,-0.94313 -1.15241,-0.91412 -1.84769,0.1034 -0.76244,1.11581 -0.96174,2.61099 -0.42021,3.15252 0.48379,0.48379 2.56765,0.53637 2.95101,0.0745 z"
   id="path60362" /><path
   style="fill:#ffffff;fill-opacity:1;stroke:#000000;stroke-width:0.4;stroke-dasharray:none;stroke-opacity:1"
   d="m 187.84885,241.55224 c -0.0415,-1.21612 -0.67948,-2.80543 -1.20732,-3.00799 -0.81608,-0.31317 -2.02121,1.53168 -2.02121,3.09413 0,0.49206 0.0629,0.9575 0.13963,1.0343 0.0768,0.0768 0.81203,0.11393 1.63385,0.0825 l 1.49422,-0.0571 z"
   id="path60360" /><path
   style="fill:#ffffff;fill-opacity:1;stroke:#000000;stroke-width:0.4;stroke-dasharray:none;stroke-opacity:1"
   d="m 129.54312,242.61652 c 0.61157,-0.38727 -0.17892,-3.15949 -1.03095,-3.61548 -0.34853,-0.18654 -0.49842,-0.11748 -1.04895,0.48324 -0.81384,0.88806 -1.36242,2.75368 -0.93531,3.1808 0.19492,0.19491 2.69428,0.15465 3.01521,-0.0486 z"
   id="path60358" /><path
   style="fill:#eab54c;fill-opacity:1;stroke-width:0.198042"
   d="m 184.23242,154.06266 c 0.47456,-0.66647 0.52374,-1.11698 0.23832,-2.18352 -0.26091,-0.97496 -0.40999,-1.20758 -1.50838,-2.3537 -1.05555,-1.1014 -1.70175,-1.37119 -2.39529,-1.00002 -1.51604,0.81137 -1.05619,3.20598 0.9867,5.13807 1.30193,1.2313 2.01089,1.33696 2.67865,0.39917 z"
   id="path60400" /><path
   style="fill:#eab54c;fill-opacity:1;stroke-width:0.198042"
   d="m 194.42576,168.49233 c 0.87453,-1.03931 0.59462,-2.95729 -0.67799,-4.64566 -1.80549,-2.39534 -3.78031,-2.02374 -3.78031,0.71136 0,1.22128 0.61712,2.53618 1.71288,3.64964 1.22426,1.24404 1.88088,1.31212 2.74542,0.28466 z"
   id="path60396" /><path
   style="fill:#eab54c;fill-opacity:1;stroke-width:0.198042"
   d="m 180.50452,170.92694 c 0.58797,-0.52535 0.6432,-0.67479 0.64046,-1.73287 -0.004,-1.40196 -0.73136,-2.88441 -1.93296,-3.93769 -1.39035,-1.21872 -2.73945,-0.71061 -3.03751,1.14403 -0.21981,1.36775 1.14242,3.84659 2.60356,4.73766 0.79386,0.48413 0.97281,0.46224 1.72645,-0.21113 z"
   id="path60392" /><path
   style="fill:#eab54c;fill-opacity:1;stroke-width:0.198042"
   d="m 186.09441,184.33056 c 0.64198,-0.91657 0.23061,-2.5777 -0.92438,-3.73269 -0.69306,-0.69306 -1.20925,-0.73747 -1.62771,-0.14003 -0.63765,0.91038 -0.29614,2.18882 0.93745,3.50934 0.85512,0.91536 1.17724,0.98786 1.61464,0.36338 z"
   id="path60388" /><path
   style="fill:#eab54c;fill-opacity:1;stroke-width:0.198042"
   d="m 198.39327,185.07677 c 0.40668,-0.40668 0.4861,-0.67774 0.4861,-1.65917 0,-1.31276 -0.32816,-2.26127 -1.09951,-3.17795 -1.52526,-1.81268 -3.00267,1.0082 -1.85449,3.54085 0.8004,1.76547 1.58604,2.17813 2.4679,1.29627 z"
   id="path60384" /><path
   style="fill:#eab54c;fill-opacity:1;stroke-width:0.198042"
   d="m 58.425955,185.64882 c 0.583708,-0.40885 1.146368,-1.55415 1.307042,-2.66049 0.23652,-1.62865 -0.785049,-3.93523 -1.868369,-4.21853 -0.520182,-0.13602 -1.726311,0.88791 -2.100332,1.78306 -0.434934,1.04095 -0.337344,2.97044 0.209657,4.14523 0.260345,0.55914 0.59367,1.06454 0.740722,1.12311 0.523977,0.2087 1.275245,0.13302 1.71128,-0.17238 z"
   id="path60380" /><path
   style="fill:#eab54c;fill-opacity:1;stroke-width:0.198042"
   d="m 66.049508,193.80367 c 0.57504,-0.53293 1.017946,-1.89868 0.829165,-2.55681 -0.612009,-2.1336 -1.742164,-2.53001 -2.582115,-0.90572 -0.535564,1.03568 -0.21941,3.08683 0.559928,3.6327 0.560287,0.39244 0.590616,0.38812 1.193022,-0.17017 z"
   id="path60376" /><path
   style="fill:#eab54c;fill-opacity:1;stroke-width:0.198042"
   d="m 198.94879,199.42489 c 0.9105,-1.08206 0.87262,-3.2992 -0.0737,-4.31498 -0.46442,-0.4985 -0.74117,-0.53512 -1.23136,-0.16294 -1.15406,0.87627 -1.15164,3.40095 0.004,4.72642 0.42777,0.4904 0.72692,0.43324 1.30056,-0.2485 z"
   id="path60372" /><path
   style="fill:#eab54c;fill-opacity:1;stroke-width:0.198042"
   d="m 56.58906,200.48647 c 0.435766,-0.1672 1.086136,-1.70284 1.086136,-2.56452 0,-0.37339 -0.188055,-1.07896 -0.417891,-1.56792 -0.344321,-0.7325 -0.512585,-0.88904 -0.955693,-0.88904 -1.519461,0 -2.17998,3.11264 -0.983343,4.63392 0.415346,0.52802 0.688049,0.6112 1.270791,0.38756 z"
   id="path60368" /><g
   id="tiger-head"><path
     style="fill:#e7e7e7;stroke-width:3.09800005;fill-opacity:1;stroke:#5f462f;stroke-opacity:1;stroke-dasharray:none"
     d="m 113.96989,173.48424 c 11.26751,-0.44285 17.55566,-1.29958 24.78416,-3.37673 6.0148,-1.72839 12.1945,-4.45044 16.08728,-7.08618 0.77582,-0.5253 1.56655,-1.01276 1.75717,-1.08324 0.19061,-0.0705 0.34657,-0.24697 0.34657,-0.39221 0,-0.35572 -3.17432,-5.12008 -4.31858,-6.4818 -2.19802,-2.61573 -4.05131,-4.55962 -6.14575,-6.4462 -6.61865,-5.96178 -15.07375,-10.581 -23.59894,-12.89265 -3.17278,-0.8603 -2.92169,-0.90808 -2.9192,0.55548 0.004,2.02639 -0.614,3.34337 -2.40856,5.13734 -2.35494,2.35417 -4.8324,3.34782 -8.3471,3.34782 -4.55105,0 -9.582505,-2.42312 -11.102954,-5.34714 -0.367322,-0.7064 -0.464358,-1.20899 -0.467996,-2.42383 -0.003,-0.94942 -0.08945,-1.5652 -0.227592,-1.61821 -0.249185,-0.0956 -2.531067,0.57031 -5.520227,1.611 -2.827461,0.98438 -8.35887,3.72015 -10.793305,5.33824 -7.382841,4.90713 -12.874235,10.94432 -16.439775,18.07376 -0.652294,1.30428 -1.185994,2.45822 -1.185994,2.56429 0,0.10607 0.284747,0.39562 0.63278,0.64344 0.824877,0.58737 7.127443,3.77008 8.279124,4.18086 5.329688,1.90096 7.966511,2.67427 12.279076,3.60108 2.407593,0.51742 8.396392,1.4289 10.396768,1.58237 3.925214,0.30112 8.032955,0.53549 10.100155,0.57627 1.30708,0.0258 2.77755,0.0632 3.26771,0.083 0.49015,0.0199 2.98548,-0.0462 5.54518,-0.14678 z"
     id="path60426" /><path
     style="fill:url(#linearGradient81902);fill-opacity:1;stroke:#5f4431;stroke-width:3.098;stroke-dasharray:none;stroke-opacity:1"
     d="m 62.26508,159.96562 c 0.853746,-1.70525 1.028957,-2.00952 2.651382,-4.60448 5.382621,-8.60912 14.4238,-15.94715 24.694221,-20.04242 2.318154,-0.92435 6.699035,-2.24785 8.360211,-2.52569 0.475631,-0.0796 1.128808,-0.45857 1.848257,-1.07251 1.407719,-1.20125 2.784389,-1.89887 4.765509,-2.41487 3.19075,-0.83105 6.56863,-0.71536 9.64293,0.33028 1.57034,0.53411 2.54299,1.11767 3.81106,2.28653 0.78569,0.72423 1.0582,0.8301 3.75988,1.46068 3.73444,0.87162 6.92751,1.96075 10.84777,3.70009 3.04796,1.35232 6.94871,3.48023 8.95049,4.88261 0.54462,0.38154 1.43581,1.00604 1.98043,1.38777 3.01384,2.11253 8.36963,7.18974 10.69841,10.14194 2.21225,2.80449 2.37223,3.01252 2.78958,3.62742 0.22945,0.33807 0.74826,1.12954 1.15291,1.75884 l 0.73573,1.14415 0.72848,-0.59105 c 2.10216,-1.70559 5.77539,-5.59984 7.48521,-7.93559 2.83751,-3.87628 5.58816,-9.25873 7.18575,-14.06101 3.14837,-9.46389 4.22502,-16.44349 4.24637,-27.52789 0.0204,-10.567929 -1.39052,-20.931314 -4.52955,-33.271108 -0.48489,-1.906152 -0.93686,-3.688533 -1.00437,-3.960842 -0.17099,-0.689716 -1.55586,-5.208647 -2.39735,-7.822672 -1.53224,-4.759842 -4.59179,-11.825413 -6.90342,-15.942407 -0.99796,-1.777372 -3.82606,-6.007835 -5.0419,-7.542011 -2.92173,-3.686719 -7.73011,-7.8486 -11.61915,-10.056922 -5.44913,-3.212587 -13.01353,-6.195165 -21.01477,-7.195155 -4.39681,-0.549512 -19.43423,-1.314077 -25.15632,-0.914022 -6.261026,0.437735 -13.199464,1.731149 -18.253631,3.260504 -8.188045,2.477644 -15.189402,6.532898 -20.496867,11.861535 -2.442818,2.452562 -5.698259,6.637254 -7.233895,9.29879 -0.188541,0.32677 -0.680317,1.173401 -1.092841,1.881402 -6.089467,10.451167 -10.803852,26.059475 -13.339253,44.163433 -1.255499,8.964835 -1.430657,18.607895 -0.498228,27.428865 0.153931,1.45617 0.508184,3.94836 0.577099,4.05987 0.03743,0.0606 0.170539,0.85832 0.295734,1.77269 0.269186,1.96599 1.721917,7.80256 2.467078,9.91181 0.288601,0.81692 0.703655,2.01022 0.922339,2.65178 0.56983,1.67173 1.946618,4.55481 3.017686,6.31922 0.506986,0.83518 0.921793,1.56931 0.921793,1.63142 0,0.26172 2.461381,3.86052 3.58453,5.24096 1.209421,1.48648 3.653242,4.05421 5.129327,5.38938 1.739349,1.57331 4.161314,3.51765 4.385641,3.52075 0.07028,7.5e-4 0.495833,-0.73346 0.945738,-1.63208 z"
     id="path60430" /><rect
     style="fill:#f4d266;fill-opacity:1;stroke:none;stroke-width:1.65503;stroke-linecap:round;stroke-dasharray:none;stroke-opacity:1"
     id="rect86392"
     width="61.58363"
     height="14.925021"
     x="64.189751"
     y="46.896538"
     rx="24.271194"
     ry="13.266684"
     transform="matrix(0.9896983,-0.1431687,0.10882935,0.99406045,0,0)" /><path
     style="fill:#ca8188;fill-opacity:1;stroke:#5e422e;stroke-width:2.098;stroke-dasharray:none;stroke-opacity:1"
     d="m 163.1688,44.906702 c 2.27492,-0.792116 3.41177,-1.502064 5.09851,-3.183986 1.10489,-1.101721 1.72572,-2.148587 2.22977,-3.759905 0.4714,-1.506924 0.24853,-4.139455 -0.49317,-5.825361 -1.43732,-3.267104 -3.62898,-5.842555 -6.42706,-7.552556 -2.1801,-1.332331 -3.28052,-1.649635 -5.6442,-1.627491 -1.77286,0.01661 -2.14482,0.08747 -3.54883,0.676095 -1.92835,0.808447 -4.08761,2.744939 -5.01974,4.501871 -0.68888,1.29843 -1.31955,3.307198 -1.16488,3.710275 0.0572,0.148938 0.66642,0.65257 1.35392,1.119181 1.72575,1.171282 4.33491,3.310511 6.07726,4.982702 1.45364,1.395106 4.76347,5.247572 5.48126,6.379893 0.636,1.003315 0.74843,1.034976 2.05716,0.579282 z"
     id="path60486" /><path
     style="fill:#e8af4b;fill-opacity:1;stroke:#5e422e;stroke-width:1.96109;stroke-dasharray:none;stroke-opacity:1"
     d="m 170.52775,51.020161 c 3.88659,-1.88221 7.32967,-5.482411 8.79845,-9.199978 0.82437,-2.086542 1.1093,-3.573091 1.11238,-5.803684 0.005,-3.685708 -0.85857,-6.73774 -2.9049,-10.265401 -3.16634,-5.45843 -8.68984,-10.046437 -14.35508,-11.923824 -3.28656,-1.089123 -7.2867,-1.261045 -10.3196,-0.443528 -5.70096,1.53669 -9.83222,5.361181 -12.10057,11.202067 -0.31251,0.804721 -0.62694,1.770407 -0.69872,2.145972 -0.1209,0.632559 -0.0912,0.697349 0.40504,0.87984 0.29456,0.108351 1.14027,0.480054 1.87938,0.82601 0.73909,0.345954 1.40874,0.629007 1.48809,0.629007 0.0794,0 0.71198,0.329204 1.40585,0.731563 0.69387,0.402361 1.34899,0.731565 1.45583,0.731565 0.10682,0 0.28773,-0.338925 0.40201,-0.753167 0.25044,-0.907842 1.25543,-2.95777 1.87681,-3.828274 0.69314,-0.971021 2.2882,-2.392167 3.46841,-3.090266 1.54,-0.910904 2.87717,-1.293735 4.92772,-1.410797 6.21273,-0.354671 12.24248,4.100392 14.27311,10.545631 0.60488,1.919867 0.61615,5.025907 0.0248,6.84107 -0.97032,2.978516 -2.7414,4.947667 -5.6521,6.284202 -0.66986,0.307586 -1.57629,0.651988 -2.01426,0.76534 -0.438,0.113351 -0.79634,0.266524 -0.79634,0.340383 0,0.07386 0.30589,0.585068 0.67979,1.136018 0.37388,0.550951 1.10408,1.78359 1.62265,2.739195 1.37578,2.535221 1.23659,2.437768 2.70904,1.896796 0.67763,-0.248953 1.7181,-0.688035 2.31219,-0.97574 z"
     id="path60482" /><path
     style="fill:#bc7f7c;fill-opacity:1;stroke:#5f4431;stroke-width:1.5;stroke-dasharray:none;stroke-opacity:1"
     d="m 113.49864,135.05992 c 3.15559,-0.53377 5.03997,-0.57836 5.03997,-0.90048 0,-0.28677 -3.12789,-1.43745 -3.92277,-1.84979 -1.5428,-0.80032 -3.25825,-1.47796 -5.8199,-1.46685 -3.29336,0.0143 -5.26318,0.75171 -7.40576,2.10369 -1.3805,0.87111 -3.218056,1.44307 -2.396986,1.75523 2.577686,0.98004 10.528586,1.03089 14.505446,0.3582 z"
     id="path60478" /><path
     style="fill:#5f442f;stroke-width:0.198042;fill-opacity:1"
     d="m 138.92322,133.69069 c -1.58609,-0.6107 -2.13652,-0.98249 -3.46783,-2.34235 -1.67583,-1.71177 -2.55687,-3.49411 -2.89987,-5.86636 -1.07294,-7.42088 4.86106,-13.60732 11.41473,-11.9003 3.21577,0.8376 5.62141,3.37099 6.66448,7.01841 0.73454,2.56855 0.67723,4.20612 -0.24421,6.97796 -0.83837,2.52198 -2.62156,4.54642 -5.03254,5.7134 -1.55856,0.75438 -1.67641,0.77946 -3.57761,0.76123 -1.35103,-0.0129 -2.24471,-0.12618 -2.85715,-0.36199 z"
     id="path60444" /><path
     style="fill:#b05465;fill-opacity:1;stroke:#5f4431;stroke-width:1.5;stroke-dasharray:none;stroke-opacity:1"
     d="m 112.69484,142.3749 c 1.51815,-0.64876 5.0606,-2.38141 5.85142,-5.67726 0,-0.61594 -0.62801,-1.56419 -1.20143,-1.34796 -0.25833,0.0974 -1.78565,0.7101 -2.38473,0.78117 -0.59908,0.0711 -1.64137,0.22439 -2.31621,0.3407 -0.7329,0.12632 -2.7664,0.17273 -5.05007,0.11525 -3.45347,-0.0869 -4.71772,-0.23584 -7.14032,-0.841 -0.633727,-0.15831 -1.568774,0.65735 -1.161177,1.81255 0.896647,2.54121 3.764417,4.42968 6.984387,4.93613 1.805,0.28389 5.1024,0.44267 6.41813,-0.11958 z"
     id="path60476" /><path
     style="fill:#5f4431;stroke-width:0.198042;fill-opacity:1"
     d="m 133.18638,77.340086 c -0.94243,-1.135551 2.04433,-4.43276 5.0437,-5.567951 1.99565,-0.755307 4.63523,-0.409209 6.93147,0.908846 2.07748,1.192482 4.09201,3.468864 3.78284,4.274538 -0.1898,0.494605 -0.61692,0.300285 -2.01471,-0.916603 -0.75463,-0.656958 -1.94944,-1.48131 -2.65515,-1.831892 -1.1884,-0.59037 -1.42992,-0.637423 -3.27187,-0.637423 -1.86206,0 -2.07679,0.04311 -3.37088,0.676813 -0.89164,0.436626 -1.88144,1.158966 -2.78911,2.035449 -1.2137,1.171996 -1.44122,1.317371 -1.65629,1.058223 z"
     id="path60450" /><path
     style="fill:#5f4431;stroke-width:0.198042;fill-opacity:1"
     d="m 82.976267,76.495898 c -2.042727,-2.250312 -3.9318,-3.098699 -6.637845,-2.981066 -2.1162,0.09199 -3.62429,0.757552 -5.678888,2.506232 -0.783432,0.666774 -1.521459,1.212315 -1.640067,1.212315 -0.815049,0 -0.09463,-1.657643 1.314377,-3.024291 1.20044,-1.164353 1.413038,-1.30399 3.235411,-2.125072 1.321518,-0.59542 1.681872,-0.670526 3.267702,-0.681052 1.665083,-0.01105 1.880121,0.0362 3.267695,0.717991 2.907041,1.42839 5.272224,4.315953 4.317325,5.27086 -0.329927,0.32992 -0.336851,0.325631 -1.44571,-0.895917 z"
     id="path60448" /><path
     style="fill:#fcfcfb;stroke-width:0.198042;fill-opacity:1"
     d="m 140.98054,119.2812 c 1.44272,-1.07325 1.44244,-2.87108 -6e-4,-4.0062 -1.38662,-1.09072 -3.57373,-0.056 -3.7817,1.7891 -0.0912,0.80917 -0.0344,0.9784 0.5533,1.64773 0.36022,0.41028 0.83806,0.82426 1.06186,0.91997 0.56762,0.24275 1.5924,0.077 2.16717,-0.3506 z"
     id="path60446" /><path
     style="fill:#5f442f;stroke-width:0.198042;fill-opacity:1"
     d="m 73.756472,133.79282 c -3.271437,-1.24497 -5.540849,-3.78323 -6.428091,-7.1896 -0.161984,-0.6219 -0.294522,-1.97421 -0.294522,-3.00514 0,-3.99046 2.063797,-7.66832 5.192718,-9.25386 2.521815,-1.27791 5.280488,-1.36721 7.705492,-0.24945 1.673944,0.77157 3.809298,2.89405 4.594961,4.56725 2.568948,5.47104 0.496409,12.18833 -4.515822,14.63617 -1.273883,0.62214 -1.542058,0.67773 -3.465742,0.71843 -1.373456,0.029 -2.325272,-0.0473 -2.788994,-0.2238 z"
     id="path60440" /><path
     style="fill:#fcfcfb;stroke-width:0.198042;fill-opacity:1"
     d="m 75.291366,119.42512 c 1.930009,-1.17681 1.80953,-3.48087 -0.22917,-4.38268 -0.809629,-0.35814 -0.927856,-0.36415 -1.62857,-0.0828 -0.954959,0.38343 -1.646751,1.37195 -1.646751,2.35309 0,0.96519 0.242643,1.391 1.140154,2.00088 0.880873,0.59857 1.516385,0.62855 2.364337,0.11152 z"
     id="path60442" /><path
     style="fill:#5f4431;stroke-width:0.198042;fill-opacity:1"
     d="m 161.44571,146.66363 c -0.15437,-0.15436 -0.52354,-1.26183 -0.82038,-2.46102 -0.51391,-2.07611 -0.52376,-2.20472 -0.20581,-2.68997 0.41165,-0.62825 0.97753,-0.65491 1.35924,-0.064 0.33776,0.52287 1.10758,3.44548 1.10758,4.20491 0,1.12182 -0.78118,1.66955 -1.44063,1.0101 z"
     id="path60438" /><path
     style="fill:#5f4431;stroke-width:0.198042;fill-opacity:1"
     d="m 157.48007,146.51084 c -0.4251,-0.68947 -1.19833,-4.21493 -1.05217,-4.79725 0.15337,-0.6111 1.00296,-0.90395 1.41771,-0.48869 0.15009,0.15028 0.51739,1.23907 0.81622,2.41953 0.4965,1.96134 0.5179,2.19174 0.24834,2.67357 -0.38971,0.69662 -1.06349,0.78747 -1.4301,0.19284 z"
     id="path60436" /><path
     style="fill:#5f4431;stroke-width:0.198042;fill-opacity:1"
     d="m 58.807055,146.46474 c -0.355698,-0.54287 -0.287164,-1.10424 0.455758,-3.73322 0.495085,-1.75196 1.224721,-2.16518 1.908639,-1.08094 0.24441,0.38746 -0.318841,3.41664 -0.83704,4.5016 -0.421177,0.88184 -1.067662,1.01414 -1.527357,0.31256 z"
     id="path60434" /><path
     style="fill:#5f4431;stroke-width:0.198042;fill-opacity:1"
     d="m 55.000915,146.55094 c -0.332209,-0.53195 -0.3131,-0.86819 0.168137,-2.95832 0.476245,-2.06844 0.872377,-2.71087 1.540733,-2.49874 0.792706,0.2516 0.86451,0.92668 0.340309,3.19943 -0.263145,1.14089 -0.586133,2.20409 -0.717751,2.36268 -0.341551,0.41154 -1.043395,0.35617 -1.331428,-0.10505 z"
     id="path60432" /><path
     style="fill:#5f442f;fill-opacity:1;stroke-width:0.198042"
     d="m 97.030743,160.59439 c 9.341267,4.65163 18.483537,4.92528 27.366037,-0.51634"
     id="path28259" /><path
     style="fill:none;stroke-width:2.69799988;fill-opacity:1;stroke:#5f4431;stroke-opacity:1;stroke-dasharray:none"
     d="m 136.53598,35.722209 c 0.84571,-0.711614 1.05469,-1.177086 1.02955,-2.2931 -0.0403,-1.788715 -0.92688,-2.674132 -2.1614,-2.158561 -1.3414,0.560206 -1.90976,2.906279 -0.9932,4.099739 0.80826,1.052447 1.21289,1.119454 2.12505,0.351922 z"
     id="path60474" /><path
     style="fill:none;stroke-width:2.69799988;fill-opacity:1;stroke:#5f4431;stroke-opacity:1;stroke-dasharray:none"
     d="m 82.210425,37.472036 c 0.586282,-0.474904 0.86171,-1.080072 0.896576,-1.969963 0.0506,-1.29103 -1.053598,-2.828159 -2.031581,-2.828159 -0.602578,0 -1.48247,0.889905 -1.687463,1.706661 -0.302262,1.204319 0.988769,3.448354 1.977958,3.438035 0.232157,-0.0024 0.612181,-0.158381 0.84451,-0.346574 z"
     id="path60470" /><path
     style="fill:none;stroke-width:2.69799988;fill-opacity:1;stroke:#5f4431;stroke-opacity:1;stroke-dasharray:none"
     d="m 107.59286,39.327147 c 0.66981,-0.348503 1.27293,-1.005011 1.74569,-1.900218 0.28749,-0.544401 0.36433,-1.118139 0.35803,-2.673571 -0.009,-2.199202 -0.3603,-3.302606 -1.37178,-4.307421 -1.0452,-1.03831 -2.59379,-0.532193 -3.59777,1.175843 -0.51431,0.874988 -0.56016,1.115444 -0.5593,2.933536 7.5e-4,2.229395 0.34228,3.236761 1.49255,4.406441 0.69437,0.70609 1.12227,0.786993 1.93258,0.36539 z"
     id="path60466" /><path
     style="fill:none;stroke-width:2.69799988;fill-opacity:1;stroke:#5f4431;stroke-opacity:1;stroke-dasharray:none"
     d="m 122.74307,45.86318 c 0.77067,-0.71423 1.12894,-1.772245 1.12894,-3.333883 0,-1.045382 -0.10324,-1.568344 -0.42134,-2.134331 -0.92033,-1.637497 -2.04302,-1.493083 -2.9949,0.38524 -0.84778,1.672905 -0.69658,3.919218 0.33901,5.036638 0.60173,0.649282 1.28029,0.66542 1.94829,0.04633 z"
     id="path60462" /><path
     style="fill:none;stroke-width:2.69799988;fill-opacity:1;stroke:#5f4431;stroke-opacity:1;stroke-dasharray:none"
     d="m 94.989158,46.868609 c 0.180622,-0.137388 0.526432,-0.629731 0.768476,-1.094093 1.06517,-2.043577 -0.199357,-5.773036 -1.957434,-5.773036 -0.533498,0 -1.358808,1.029108 -1.62848,2.030618 -0.363669,1.350566 0.106265,3.353349 1.035042,4.411169 0.630587,0.718201 1.214272,0.857488 1.782396,0.425342 z"
     id="path60458" /><path
     style="fill:none;stroke-width:2.69799988;fill-opacity:1;stroke:#5f4431;stroke-opacity:1;stroke-dasharray:none"
     d="m 108.77681,56.188736 c 1.42299,-1.514701 1.30684,-5.2442 -0.19785,-6.352932 -0.67776,-0.499405 -1.25198,-0.284118 -2.05689,0.771168 -1.79918,2.358857 0.33022,7.630331 2.25474,5.581764 z"
     id="path60454" /><path
     style="fill:#ca8188;fill-opacity:1;stroke:#5e422e;stroke-width:2.098;stroke-dasharray:none;stroke-opacity:1"
     d="m 54.682434,44.906702 c -2.27492,-0.792116 -3.41177,-1.502064 -5.09851,-3.183986 -1.10489,-1.101721 -1.72572,-2.148587 -2.22977,-3.759905 -0.4714,-1.506924 -0.24853,-4.139455 0.49317,-5.825361 1.43732,-3.267104 3.62898,-5.842555 6.42706,-7.552556 2.1801,-1.332331 3.28052,-1.649635 5.6442,-1.627491 1.77286,0.01661 2.14482,0.08747 3.54883,0.676095 1.92835,0.808447 4.08761,2.744939 5.01974,4.501871 0.68888,1.29843 1.31955,3.307198 1.16488,3.710275 -0.0572,0.148938 -0.66642,0.65257 -1.35392,1.119181 -1.72575,1.171282 -4.33491,3.310511 -6.07726,4.982702 -1.45364,1.395106 -4.76347,5.247572 -5.48126,6.379893 -0.636,1.003315 -0.74843,1.034976 -2.05716,0.579282 z"
     id="path1031" /><path
     style="fill:#e8af4b;fill-opacity:1;stroke:#5e422e;stroke-width:1.96109;stroke-dasharray:none;stroke-opacity:1"
     d="m 47.323484,51.020161 c -3.88659,-1.88221 -7.32967,-5.482411 -8.79845,-9.199978 -0.82437,-2.086542 -1.1093,-3.573091 -1.11238,-5.803684 -0.005,-3.685708 0.85857,-6.73774 2.9049,-10.265401 3.16634,-5.45843 8.68984,-10.046437 14.35508,-11.923824 3.28656,-1.089123 7.2867,-1.261045 10.3196,-0.443528 5.70096,1.53669 9.83222,5.361181 12.10057,11.202067 0.31251,0.804721 0.62694,1.770407 0.69872,2.145972 0.1209,0.632559 0.0912,0.697349 -0.40504,0.87984 -0.29456,0.108351 -1.14027,0.480054 -1.87938,0.82601 -0.73909,0.345954 -1.40874,0.629007 -1.48809,0.629007 -0.0794,0 -0.71198,0.329204 -1.40585,0.731563 -0.69387,0.402361 -1.34899,0.731565 -1.45583,0.731565 -0.10682,0 -0.28773,-0.338925 -0.40201,-0.753167 -0.25044,-0.907842 -1.25543,-2.95777 -1.87681,-3.828274 -0.69314,-0.971021 -2.2882,-2.392167 -3.46841,-3.090266 -1.54,-0.910904 -2.87717,-1.293735 -4.92772,-1.410797 -6.21273,-0.354671 -12.24248,4.100392 -14.27311,10.545631 -0.60488,1.919867 -0.61615,5.025907 -0.0248,6.84107 0.97032,2.978516 2.7414,4.947667 5.6521,6.284202 0.66986,0.307586 1.57629,0.651988 2.01426,0.76534 0.438,0.113351 0.79634,0.266524 0.79634,0.340383 0,0.07386 -0.30589,0.585068 -0.67979,1.136018 -0.37388,0.550951 -1.10408,1.78359 -1.62265,2.739195 -1.37578,2.535221 -1.23659,2.437768 -2.70904,1.896796 -0.67763,-0.248953 -1.7181,-0.688035 -2.31219,-0.97574 z"
     id="path1033" /></g></svg>
