<?xml version="1.0" encoding="UTF-8" standalone="no"?>
<!-- Created with Inkscape (http://www.inkscape.org/) -->

<svg
   width="256mm"
   height="256mm"
   viewBox="0 0 256 256"
   version="1.1"
   id="svg5"
   xml:space="preserve"
   xmlns="http://www.w3.org/2000/svg"
   xmlns:svg="http://www.w3.org/2000/svg">
   
   <style>
#cow-head {
  transform-origin: 50% 100%;
  animation:cow-head 3s cubic-bezier(0.55, 0.09, 0.68, 0.53) infinite;
} @keyframes cow-head {
  0% {transform: rotate(0deg);}
  25% {transform: rotate(-2deg);}
  75% {transform: rotate(2deg);}
  100% {transform: rotate(0deg);}
}
#cow-tail {
  transform-origin: 0% 50%;
  animation:cow-tail 2s cubic-bezier(0.55, 0.09, 0.68, 0.53) infinite;
} @keyframes cow-tail {
  0% {transform: rotate(0deg);}
  25% {transform: rotate(3deg);}
  50% {transform: rotate(-2deg);}
  100% {transform: rotate(0deg);}
}
   </style>

   <defs
     id="defs2" /><g
     id="layer1"><g
       id="cow-tail"
       style="stroke:#66432d;stroke-opacity:1"><path
         style="fill:#002900;fill-opacity:1;stroke:#66432d;stroke-width:1.665;stroke-dasharray:none;stroke-opacity:1"
         d="m 221.24363,186.91038 c 1.6573,-0.42334 3.25301,-1.02611 4.77866,-1.79681 5.94779,-2.71859 10.76244,-7.91306 12.92497,-14.09525 0.2884,-0.5326 0.36137,-1.72956 -0.24868,-0.6662 -2.72453,4.10154 -5.66864,8.37113 -10.15467,10.70749 -2.93645,1.53315 -6.21718,2.46785 -9.54726,2.40691 -2.64348,0.044 -5.27453,-0.39422 -7.78223,-1.22151 -0.60919,-0.24821 -1.18451,-0.27291 -0.66229,0.47403 0.75325,1.71916 1.67967,3.36782 2.26846,5.15561 2.82652,-0.13474 5.69201,-0.11276 8.42304,-0.96427 z"
         id="path15589" /><path
         style="fill:#66432d;fill-opacity:1;stroke:#66432d;stroke-width:1.765;stroke-linecap:round;stroke-dasharray:none;stroke-opacity:1"
         d="m 234.48356,169.87892 c -11.50155,-8.92819 -4.6287,-16.12526 -1.95905,-22.46383 1.48405,-3.5236 2.65682,-6.98669 1.56724,-11.36252 6.07845,1.91874 11.73804,7.08967 13.9746,13.06037 2.24135,5.98349 1.75547,13.86929 -1.95906,19.06814 -1.0871,1.5215 -3.2494,2.04119 -5.09354,2.35086 -2.15738,0.36227 -4.80214,0.68839 -6.53019,-0.65302 z"
         id="path17128" /></g><path
       style="fill:#aa6f47;fill-opacity:1;stroke:#66432d;stroke-width:4.9188;stroke-dasharray:none;stroke-opacity:1"
       d="m 216.80791,204.05661 c -0.38093,-17.98272 -5.6474,-36.37381 -17.62589,-50.13017 -1.89059,-2.83847 -6.20727,-8.97653 -8.10622,-2.57418 -1.71506,6.51627 -3.82512,13.16329 -3.58509,20.04615 -0.60418,14.23462 8.31309,28.44767 21.82586,33.35211 2.1588,0.18789 9.00012,4.51911 7.49134,-0.69391 z"
       id="path15707" /><path
       style="fill:#aa6f47;fill-opacity:1;stroke:#66432d;stroke-width:4.9188;stroke-dasharray:none;stroke-opacity:1"
       d="m 57.361046,208.71176 c 1.139988,-0.675 2.047315,-1.80677 2.937114,-2.81987 2.011009,-2.44034 3.460491,-5.35681 4.287561,-8.40309 0.477187,-3.05014 0.607916,-6.23071 -0.0742,-9.25895 -0.880837,-2.85514 -2.079009,-5.69945 -4.012398,-8.00503 -0.3089,-0.71297 -1.211943,-1.41887 -1.156396,-0.12742 -0.440617,2.07361 -0.796167,4.16625 -1.245877,6.23671 0.364973,0.46251 -0.403125,2.15448 -0.38797,3.09643 -0.430732,2.81635 -0.888019,5.64351 -1.094063,8.48064 -0.546504,3.97126 -0.486082,7.99129 -0.735679,11.98646 0.500644,-0.37763 1.114622,-0.66849 1.481903,-1.18588 z"
       id="path15773" /><path
       style="fill:#efece5;fill-opacity:1;stroke:#66432d;stroke-width:4.9188;stroke-dasharray:none;stroke-opacity:1"
       d="m 84.034721,245.15686 c 5.999556,0.3956 12.543439,0.18745 11.596254,-7.67071 -0.413143,-2.97053 2.546633,-13.7147 3.721159,-5.73689 0.788326,2.19241 -1.80747,7.69693 2.399636,6.43412 2.76665,0 5.5333,0 8.30001,0 -1.76265,-3.27754 0.80395,-15.28621 2.96222,-6.58836 1.83292,4.54052 -0.3649,14.18832 6.85371,13.21171 10.28541,0.58015 20.64863,0.7267 30.89184,-0.41401 2.73729,-4.50548 -0.0452,-14.26068 4.23076,-15.88177 2.98837,2.57576 -1.78728,10.67212 3.36886,9.67243 3.94785,0 7.89573,0 11.84358,0 -1.2267,-3.25084 0.0406,-15.71757 2.91347,-6.96916 1.3255,6.26715 0.17643,16.12888 9.45928,13.67207 9.69651,0.54904 19.46513,0.59505 29.11507,-0.57915 3.29189,-11.56675 4.93181,-23.56692 5.10169,-35.58807 -14.11137,-1.91469 -26.4536,-12.94182 -30.58539,-26.44917 -2.29813,-12.2633 -0.12341,-25.24004 5.74258,-36.23836 -2.28385,-2.90749 -5.21418,-5.32223 -5.845,-0.003 -6.94012,16.92998 -23.06871,28.57501 -40.56552,32.67673 -15.33515,3.98159 -31.41003,3.73361 -47.091425,2.59548 -12.892274,-1.4841 -25.788227,-5.20272 -36.446049,-12.82375 -5.250106,8.11161 4.060631,12.93453 4.776871,20.79777 1.720033,9.03004 -3.022773,18.51263 -10.866699,23.10699 -0.241755,10.70607 1.145657,21.52084 4.059776,31.83958 7.828044,1.27288 16.086094,1.06763 24.063317,0.9357 z"
       id="path15775" /><path
       style="fill:#787473;fill-opacity:1;stroke:#66432d;stroke-width:3.0969;stroke-dasharray:none;stroke-opacity:1"
       d="m 86.832679,250.52131 c 2.142853,-1.08881 7.059481,0.14582 7.669178,-4.40781 -0.773234,1.96784 0,-1.57824 -3.255502,0.0105 -9.637169,0.56436 -19.297718,0.34549 -28.925919,-0.24628 0.201233,2.90716 3.530666,3.29393 5.404489,3.50475 6.055958,1.21086 12.791131,1.53678 19.107754,1.13916 z"
       id="path15805" /><path
       style="fill:#787473;fill-opacity:1;stroke:#66432d;stroke-width:3.0969;stroke-dasharray:none;stroke-opacity:1"
       d="m 202.40103,251.94069 c 4.15942,0.16274 10.82757,-0.87581 9.45777,-6.06753 -11.14711,0.83675 -22.33157,0.78922 -33.47283,-0.10106 -1.25889,-0.26194 0.9638,4.88676 0.75649,2.73625 0.2294,2.06596 1.63205,0.6644 0.50762,1.88923 7.42954,1.51184 15.17003,1.85434 22.75095,1.54312 z"
       id="path15865" /><path
       style="fill:#787473;fill-opacity:1;stroke:#66432d;stroke-width:3.0969;stroke-dasharray:none;stroke-opacity:1"
       d="m 139.81369,251.9407 c 3.19951,-0.27136 8.20457,-0.20951 9.66191,-1.78292 1.74032,-2.25796 3.15134,-5.95698 -1.29369,-4.09738 -10.03577,0.67216 -20.1538,0.31401 -30.15256,-0.10402 1.07824,4.18799 3.32645,4.29365 5.63397,5.11574 5.37577,0.45061 10.73056,1.38377 16.15037,0.86855 z"
       id="path15913" /><g
       id="cow-head"><path
         style="fill:#f4f3ef;fill-opacity:1;stroke:#66432d;stroke-width:3.99632;stroke-dasharray:none;stroke-opacity:1"
         d="m 80.181116,172.20109 c 2.674603,-17.65538 15.722113,-35.32701 34.348654,-37.65136 8.57882,-0.74274 17.41045,0.62186 24.71406,5.42252 11.55482,7.28496 18.58183,20.35317 20.62552,33.62356 15.4267,-6.85962 25.21126,-22.42429 28.16263,-38.65849 4.04607,-20.73709 0.75292,-42.245618 -5.47604,-62.191213 -12.25886,-1.506136 -24.4028,-6.990755 -32.5857,-16.530228 C 142.65892,48.589561 138.8344,38.208284 137.81245,27.817101 127.13653,25.478049 116.03263,25.967788 105.20731,26.692472 88.959975,28.37739 72.052804,35.266911 63.252793,49.772237 53.078154,65.603044 49.07307,84.585017 46.739521,103.0283 c -1.918761,18.41502 -0.317004,38.39805 9.99614,54.28626 5.641829,8.06285 13.76151,14.37187 22.915819,17.95589 0.188911,-1.02094 0.357461,-2.04552 0.529636,-3.06936 z"
         id="path15183" /><path
         style="fill:#898383;fill-opacity:1;stroke:#66432d;stroke-width:3.66686;stroke-dasharray:none;stroke-opacity:1"
         d="m 65.133337,46.183178 c 1.943405,-4.131572 11.45847,-9.139289 1.811688,-9.641715 C 58.810321,34.222744 52.888716,25.827545 55.05457,17.332036 55.578474,13.125715 61.754354,3.0469521 53.903182,9.4397364 44.194857,16.210566 40.431726,30.950593 47.944084,40.749315 c 3.186185,4.103721 10.019333,10.125927 14.813666,9.145226 0.760784,-1.256681 1.535998,-2.505248 2.375587,-3.711363 z"
         id="path15185" /><path
         style="fill:#898383;fill-opacity:1;stroke:#66432d;stroke-width:3.66686;stroke-dasharray:none;stroke-opacity:1"
         d="m 175.81176,50.231891 c 12.46547,-3.607455 20.88086,-18.608334 15.20698,-30.764801 -1.4016,-4.572143 -10.07131,-13.5843005 -11.90865,-10.6972681 3.63843,7.4806511 5.09043,17.9111951 -2.05779,23.8566861 -2.24939,4.097743 -12.81472,4.157457 -12.31553,6.844642 4.50445,2.10514 6.12834,12.632729 11.07499,10.760741 z"
         id="path15187" /><path
         style="fill:#aa6f47;fill-opacity:1;stroke:#66432d;stroke-width:3.99632;stroke-dasharray:none;stroke-opacity:1"
         d="m 181.26363,68.862246 c -1.84822,-5.348536 -3.96632,-10.634379 -6.7627,-15.570353 -0.88497,-1.926173 -2.09938,-3.036242 -3.00382,-4.813837 -2.23149,-3.447426 -5.00489,-6.554132 -8.07917,-9.271312 -1.37651,-0.748752 -2.48431,-2.325171 -4.14276,-3.139818 -1.41979,-0.938071 -2.96676,-1.672332 -4.31816,-2.452442 -1.97752,-0.904372 -3.63425,-1.658169 -5.57321,-2.492664 -2.2,-0.851483 -4.42478,-1.458147 -6.63612,-2.151773 -0.7699,0.02501 -1.99013,-1.017996 -2.3882,-0.09278 -0.81059,1.983743 0.19006,4.017984 0.53783,5.916347 0.0521,1.769199 2.82994,1.27588 1.85435,3.416726 -0.32463,1.183432 -0.63177,-0.900936 -0.68716,-0.598174 -1.37719,-0.08756 1.5876,-0.278062 0.14643,-1.200142 -1.9957,-0.258923 0.34682,2.806412 0.29425,3.896474 0.73812,0.604929 1.00487,3.091566 1.99024,4.493548 0.8511,1.736986 1.71529,3.364238 2.91011,4.908268 1.21736,1.729742 2.45632,3.528941 3.95012,5.080463 3.0491,3.280481 6.40601,6.232191 10.20819,8.59071 3.08448,1.999434 6.50065,3.470863 9.93297,4.761056 1.72933,0.568592 3.15149,0.673993 4.53778,1.202529 1.88114,0.635175 3.73489,0.702147 5.6331,1.100154 0.47463,0.457096 -0.45391,-1.484922 -0.40407,-1.582975 z"
         id="path15327" /><path
         style="fill:#f7f6f2;fill-opacity:1;stroke:#66432d;stroke-width:2.74438;stroke-dasharray:none;stroke-opacity:1"
         d="m 195.4809,83.031238 c 8.69852,-1.295022 18.19243,-7.207719 19.30765,-16.600219 -11.91025,-0.775465 -24.05714,-0.672594 -35.55431,-4.349265 3.01659,5.652471 2.01254,15.750859 10.7577,15.271756 3.28499,1.459214 12.92714,-1.628394 12.43038,-0.161619 -5.17222,3.484579 -13.37126,1.952346 -17.83903,2.002193 -0.20379,5.759241 7.24838,3.680693 10.89761,3.837154 z"
         id="path15329" /><path
         style="fill:#f7f6f2;fill-opacity:1;stroke:#66432d;stroke-width:2.74438;stroke-dasharray:none;stroke-opacity:1"
         d="m 47.349413,83.016768 c 4.707356,0.275098 4.806326,-6.915693 -0.52733,-3.577997 -4.601139,0.485316 -10.299306,-3.763339 -13.160316,-6.704213 6.4633,1.108541 18.126956,7.610604 19.482937,-1.480612 0.468291,-3.858104 6.474699,-12.112304 -1.540543,-7.909868 -9.966488,2.744145 -20.526527,1.997049 -30.609182,3.309148 1.661652,11.692649 15.653387,17.980631 26.354434,16.363542 z"
         id="path15331" /><path
         style="fill:#000000;stroke-width:0.174338;stroke:#66432d;stroke-opacity:1"
         d="m 142.8839,82.382157 c -0.25615,-0.256147 -0.27176,-1.172616 -0.0308,-1.806467 0.28498,-0.749554 2.41271,-2.740991 3.77529,-3.533463 2.35014,-1.366829 4.58953,-1.572351 6.90718,-0.633914 3.00321,1.216023 5.7012,3.658889 5.7012,5.162092 0,1.001256 -0.41293,0.881371 -2.20367,-0.63979 -0.84953,-0.721642 -2.04153,-1.559409 -2.64888,-1.861704 -0.98347,-0.489497 -1.31009,-0.55811 -2.98546,-0.627137 -3.00752,-0.123916 -4.61607,0.561651 -6.86677,2.926624 -0.64014,0.67263 -1.22577,1.222965 -1.3014,1.222965 -0.0756,0 -0.23166,-0.09414 -0.34673,-0.209206 z"
         id="path15333" /><path
         style="fill:#000000;stroke-width:0.174338;stroke:#66432d;stroke-opacity:1"
         d="m 90.675,81.134809 c -1.975823,-1.980258 -3.204964,-2.578178 -5.530078,-2.690141 -0.926039,-0.04459 -2.089486,0.0094 -2.632366,0.122045 -1.180249,0.245027 -2.813634,1.184756 -4.14148,2.382725 -1.547726,1.396347 -2.119137,1.580814 -2.119137,0.684126 0,-1.986363 3.32113,-4.720976 6.799148,-5.598394 1.291013,-0.325682 2.941595,-0.253989 4.158678,0.180629 1.170299,0.417921 3.13637,1.793528 4.332828,3.031622 0.877148,0.907686 1.103156,1.260563 1.19356,1.863234 0.110302,0.735665 -0.113861,1.480708 -0.445493,1.480708 -0.08928,0 -0.81633,-0.655449 -1.61566,-1.456554 z"
         id="path15335" /><path
         style="fill:#66432d;fill-opacity:1;stroke:#66432d;stroke-width:0.965311;stroke-dasharray:none;stroke-opacity:1"
         d="m 150.1714,140.8725 c -2.16093,-0.51999 -4.30145,-1.55112 -5.60761,-3.41761 -2.24879,-2.82947 -3.19608,-6.71337 -2.20302,-10.22317 0.78849,-3.1919 2.92747,-6.24919 6.13137,-7.35051 2.70539,-1.15022 5.93615,-0.73907 8.32177,0.95472 2.72134,1.8706 4.51252,5.08912 4.4873,8.41281 0.0406,1.97225 0.03,4.03335 -0.8775,5.83762 -0.83096,1.81385 -2.24745,3.32403 -3.87144,4.46277 -1.85149,1.19078 -4.21101,1.64873 -6.38087,1.32337 z"
         id="path15337" /><path
         style="fill:#aa6f47;fill-opacity:1;stroke:#66432d;stroke-width:1.88779;stroke-dasharray:none;stroke-opacity:1"
         d="m 77.563839,147.26366 c 7.89611,-0.8863 14.902026,-5.93699 19.051743,-12.59748 4.818388,-7.24881 6.686078,-16.79743 3.457858,-25.06023 -0.843942,-2.49103 -2.135152,-5.18087 -4.556995,-6.47721 -0.775543,-1.17544 -3.312235,-2.19745 -5.159438,-2.42286 -4.677968,-0.54398 -9.256309,1.33586 -13.28149,3.54412 -6.765017,4.13811 -12.18354,10.75651 -14.23896,18.47697 -1.437688,6.76767 -0.951606,14.52289 3.508591,20.11913 2.673219,3.21639 7.040839,5.1027 11.218691,4.41756 z"
         id="path15579" /><path
         style="fill:#68442e;fill-opacity:1;stroke-width:0.174338;stroke:#66432d;stroke-opacity:1"
         d="m 171.20774,154.02569 c -0.1912,-0.1398 -0.48043,-0.98598 -0.80062,-2.34235 -0.2757,-1.1679 -0.5403,-2.18735 -0.58797,-2.26543 -0.0477,-0.0781 0.0429,-0.41655 0.20123,-0.75215 0.2399,-0.50839 0.39213,-0.61892 0.9125,-0.66258 0.36011,-0.0302 0.70373,0.0436 0.81152,0.17434 0.26859,0.32577 1.07713,3.20043 1.20554,4.28613 0.0955,0.80763 0.0592,0.97436 -0.29481,1.35113 -0.44273,0.47126 -0.98356,0.55007 -1.44739,0.21091 z"
         id="path15581" /><path
         style="fill:#68442e;fill-opacity:1;stroke-width:0.174338;stroke:#66432d;stroke-opacity:1"
         d="m 167.20813,154.02635 c -0.17318,-0.1305 -0.52181,-1.13213 -0.86913,-2.49702 -0.48264,-1.89666 -0.54686,-2.36006 -0.38275,-2.76155 0.10846,-0.26534 0.30805,-0.55262 0.44355,-0.63839 0.36007,-0.22793 1.13451,-0.19525 1.34213,0.0567 0.26269,0.31869 1.07153,3.206 1.19824,4.27732 0.0955,0.80763 0.0591,0.97436 -0.29481,1.35112 -0.44193,0.47042 -0.98744,0.55084 -1.43723,0.21188 z"
         id="path15583" /><path
         style="fill:#68442e;fill-opacity:1;stroke-width:0.174338;stroke:#66432d;stroke-opacity:1"
         d="m 66.314641,154.1172 c -0.39983,-0.15219 -0.517447,-0.4189 -0.520543,-1.18046 0,-0.77767 0.833132,-4.41063 1.093667,-4.75071 0.251837,-0.32874 1.247854,-0.26511 1.57909,0.1009 0.329919,0.36457 0.377098,1.34628 0.09937,2.06698 -0.103977,0.26992 -0.33552,1.15585 -0.514415,1.96871 -0.38764,1.7612 -0.774621,2.16099 -1.737164,1.79458 z"
         id="path15585" /><path
         style="fill:#68442e;fill-opacity:1;stroke-width:0.174338;stroke:#66432d;stroke-opacity:1"
         d="m 62.304878,154.1172 c -0.635985,-0.24209 -0.686656,-1.2149 -0.170396,-3.27251 0.19247,-0.76709 0.385334,-1.61881 0.428559,-1.89271 0.127105,-0.80515 0.420388,-1.0323 1.197974,-0.928 0.377426,0.0506 0.755709,0.19605 0.84071,0.32317 0.219287,0.32786 0.08263,1.5718 -0.350939,3.19489 -0.204922,0.76709 -0.400422,1.59083 -0.434488,1.83054 -0.08737,0.61518 -0.856327,0.994 -1.51142,0.74462 z"
         id="path15587" /><path
         style="fill:#fed5a1;fill-opacity:1;stroke:#66432d;stroke-width:3.99632;stroke-dasharray:none;stroke-opacity:1"
         d="m 126.72274,181.26557 c 10.02101,-0.41443 20.11944,-2.03461 29.40124,-5.95106 3.18292,-0.98123 0.0252,-5.08649 0.0813,-7.42414 -3.36575,-12.61717 -11.90443,-24.41522 -24.31355,-29.31422 -12.43149,-4.75848 -27.236,-1.03763 -36.522355,8.33476 -7.850316,7.73451 -12.467203,18.4669 -13.388893,29.39092 8.539936,2.76887 17.415393,4.60011 26.402538,4.90605 6.10149,0.30895 12.23493,0.2499 18.33972,0.0577 z"
         id="path15591" /><path
         style="fill:#66432d;fill-opacity:1;stroke-width:0.174338;stroke:#66432d;stroke-opacity:1"
         d="m 127.98831,152.02147 c 0.17323,-1.98904 0.67513,-3.95595 1.49798,-5.7758 0.63342,-1.43944 1.88265,-2.72559 3.49344,-2.9595 1.45266,-0.22646 2.90662,0.4927 3.88772,1.53087 0.94144,1.04386 1.21402,2.556 0.99474,3.91366 -0.22074,1.31336 -1.20955,2.3637 -2.36031,2.96145 -1.42848,0.74823 -3.034,1.11497 -4.63173,1.26141 -0.98291,0.09 -1.97016,0.0663 -2.9557,0.0707 0.0244,-0.33425 0.0494,-0.6685 0.0739,-1.00275 z"
         id="path15593" /><path
         style="fill:#66432d;fill-opacity:1;stroke-width:0.174338;stroke:#66432d;stroke-opacity:1"
         d="m 107.80706,152.90864 c -1.88292,-0.37146 -3.93228,-0.82552 -5.32081,-2.24508 -1.22887,-1.35565 -1.46997,-3.47223 -0.53168,-5.05377 1.06125,-2.03933 3.89782,-3.06032 5.90125,-1.78933 1.85162,1.18526 2.59553,3.44779 3.05671,5.4871 0.23793,1.14697 0.43251,2.30679 0.55573,3.46575 -0.70043,0.6142 -2.11782,0.0403 -3.0803,0.17816 -0.19385,-0.0115 -0.38751,-0.0256 -0.5809,-0.0428 z"
         id="path15595" /><path
         style="fill:#66432d;fill-opacity:1;stroke-width:0.174338;stroke:#66432d;stroke-opacity:1"
         d="m 85.172135,141.30251 c -1.019803,-0.28594 -2.100819,-0.089 -3.05618,-0.48847 -1.517812,-0.17825 -2.864568,-1.03252 -3.994344,-2.00606 -0.704249,-0.50338 -1.292331,-1.74921 -2.14444,-1.71743 0.13488,-0.42695 -0.01581,-0.59461 -0.173031,-0.60948 -0.145686,-0.95588 -0.879916,-1.8055 -1.003594,-2.81881 -0.686326,-3.00421 -0.720194,-6.32919 0.815803,-9.09264 0.759795,-1.41644 1.787835,-2.74497 3.114956,-3.66317 0.06194,-0.54448 -0.122295,-1.3676 0.684876,-0.75951 1.10711,-0.16043 2.122762,-0.98212 3.295169,-0.8519 0.675125,-0.48383 1.839296,-0.066 2.69615,-0.39903 0.184562,0.61697 1.554117,0.31729 2.147339,0.82531 0.582876,0.47847 1.394066,0.17688 1.553656,0.83833 0.593748,0.57561 1.607028,1.08929 2.031172,1.50355 0.305078,0.87991 1.202388,1.53814 1.510234,2.48167 1.790931,3.7645 1.668571,8.47122 -0.526935,12.0456 -1.420292,2.32386 -3.898933,3.92211 -6.554098,4.43585 -0.696473,0.13005 0.575892,0.71867 -0.298818,0.35861 l -0.09798,-0.0824 z"
         id="path15915" /><path
         style="fill:#faffff;fill-opacity:1;stroke-width:0.174338;stroke:#66432d;stroke-opacity:1"
         d="m 83.047595,125.69616 c 0.897442,-0.45517 1.511222,-1.47603 1.384644,-2.49018 -0.04678,-0.65947 -0.358054,-1.32624 -0.931838,-1.68402 -0.642442,-0.40569 -1.447043,-0.46386 -2.182459,-0.35203 -0.618589,0.0948 -1.210427,0.46274 -1.48045,1.04124 -0.274175,0.57484 -0.324055,1.24104 -0.227787,1.8644 0.135407,0.82705 0.741279,1.57011 1.55214,1.81195 0.621621,0.19824 1.310451,0.10249 1.88575,-0.19136 z"
         id="path15917" /><path
         style="fill:#faffff;fill-opacity:1;stroke-width:0.174338;stroke:#66432d;stroke-opacity:1"
         d="m 150.79595,125.67256 c 0.69557,-0.39003 1.16257,-1.17285 1.12362,-1.97627 -0.005,-0.60539 -0.12042,-1.22389 -0.40893,-1.76029 -0.26346,-0.43747 -0.74827,-0.70379 -1.2491,-0.75804 -0.7772,-0.12368 -1.64935,-0.0875 -2.30685,0.3932 -0.50981,0.35277 -0.8228,0.93791 -0.89723,1.54715 -0.11107,0.78295 0.17518,1.61254 0.76886,2.14054 0.74026,0.70272 1.93295,0.97746 2.85621,0.47834 0.0384,-0.0204 0.0763,-0.042 0.11342,-0.0646 z"
         id="path15919" /><path
         style="fill:#faffff;fill-opacity:1;stroke:#66432d;stroke-width:1.16299;stroke-linecap:round;stroke-dasharray:none;stroke-opacity:1"
         d="m 105.55072,170.93015 c 9.34127,4.65163 18.48354,4.92528 27.36604,-0.51634"
         id="path16244" /></g></g></svg>
