<?xml version="1.0" encoding="UTF-8" standalone="no"?>
<!-- Created with Inkscape (http://www.inkscape.org/) -->

<svg
   width="256mm"
   height="256mm"
   viewBox="0 0 256 256"
   version="1.1"
   id="svg5"
   xml:space="preserve"
   xmlns="http://www.w3.org/2000/svg"
   xmlns:svg="http://www.w3.org/2000/svg">
   
   <style
   id="style182">
#ele-head {
  transform-origin: 50% 100%;
  animation:ele-head 3s cubic-bezier(0.55, 0.09, 0.68, 0.53) infinite;
} @keyframes ele-head {
  0% {transform: rotate(0deg);}
  25% {transform: rotate(-2deg);}
  75% {transform: rotate(2deg);}
  100% {transform: rotate(0deg);}
}
#ele-trunk {
  transform-origin: 50% 0%;
  animation:ele-trunk 2s cubic-bezier(0.55, 0.09, 0.68, 0.53) infinite;
} @keyframes ele-trunk {
  0% {transform: rotate(0deg);}
  25% {transform: rotate(-3deg);}
  75% {transform: rotate(3deg);}
  100% {transform: rotate(0deg);}
}
#ele-tail {
  transform-origin: 0% 80%;
  animation:ele-tail 2s cubic-bezier(0.55, 0.09, 0.68, 0.53) infinite;
} @keyframes ele-tail {
  0% {transform: rotate(0deg);}
  25% {transform: rotate(1deg);}
  50% {transform: rotate(-1deg);}
  100% {transform: rotate(0deg);}
}
   </style>

   <defs
   id="defs2" /><g
   id="ele-tail"><path
     style="fill:#a2d3f4;fill-opacity:1;stroke:#604530;stroke-width:4.02384;stroke-linecap:round;stroke-dasharray:none;stroke-opacity:1"
     d="m 223.46633,179.17955 c 4.35734,0.17801 11.72905,-0.34534 16.32129,-3.48528 5.15108,-3.52205 8.56184,-9.14903 10.28582,-15.64124 l -5.69545,-0.68006 c -2.16092,3.68319 -4.23316,7.77087 -8.07564,8.92571 -6.10782,1.83567 -12.55447,-2.68748 -18.53147,-4.76037 z"
     id="path19454" /><path
     style="fill:#5f442f;fill-opacity:1;stroke:none;stroke-width:0.523954;stroke-linecap:round;stroke-dasharray:none;stroke-opacity:1"
     d="m 246.3041,161.76074 c -2.96977,-0.30789 -5.69817,-0.39902 -6.73219,-3.48631 -1.05484,-3.14945 -1.05192,-6.89692 0.96174,-9.25675 1.99625,-2.33944 3.05331,-6.10534 2.94533,-10.03818 3.18356,2.51565 6.29694,5.0664 8.53546,8.05458 2.9291,4.55036 3.01517,8.71923 0.96175,12.26221 -1.48858,2.56838 -3.94656,2.74703 -6.67209,2.46445 z"
     id="path19510" /></g><path
   style="fill:#79b9e9;fill-opacity:1;stroke:#604530;stroke-width:4.22972;stroke-dasharray:none;stroke-opacity:1"
   d="m 213.67602,247.03058 c 0.40168,-0.15273 0.65195,-0.66246 1.29206,-2.63178 2.4122,-7.42124 4.85682,-17.98058 5.53923,-23.92632 0.13561,-1.18161 0.42933,-3.55022 0.65275,-5.26356 0.91889,-7.04747 1.05058,-18.3699 0.30459,-26.18589 -0.55552,-5.82048 -1.79137,-12.52043 -3.11534,-16.88941 -1.88148,-6.20863 -4.21685,-11.64744 -7.24163,-16.86489 -1.45032,-2.50165 -3.64676,-5.8133 -4.09664,-6.17664 -0.18289,-0.1477 -0.72492,-0.26894 -1.20453,-0.26941 -1.52898,-0.001 -4.74529,-0.61808 -6.8154,-1.30652 -2.1486,-0.71454 -4.45991,-1.89043 -6.4826,-3.29808 -0.68989,-0.48012 -1.46331,-1.01686 -1.71872,-1.19275 -0.2554,-0.17589 -0.5907,-0.49009 -0.74509,-0.69822 -0.44735,-0.60301 -0.97112,-0.44026 -1.48615,0.4618 -0.53315,0.9338 -2.50154,3.71372 -3.55933,5.02677 -0.37911,0.4706 -1.16732,1.44579 -1.75156,2.16708 -2.58771,3.19473 -7.80829,7.73876 -12.04294,10.48232 -6.2025,4.01845 -14.03422,7.03556 -21.48394,9.40505 -3.39291,1.07916 -6.91926,1.79532 -10.46133,2.15607 -15.76005,1.60514 -31.77861,1.72424 -47.524746,-0.0121 -1.134695,-0.12513 -2.231539,-0.4833 -3.342619,-0.74538 -3.176775,-0.74934 -6.150135,-1.3191 -9.50209,-2.3645 -5.982614,-1.86584 -13.41379,-5.39427 -18.172072,-8.62838 -0.623484,-0.42376 -1.181119,-0.72298 -1.239187,-0.66492 -0.332077,0.33207 -2.651637,10.05815 -3.729469,15.6379 -0.713544,3.69389 -1.93518,12.36442 -2.164289,15.36102 -0.823472,10.77015 -0.90506,12.60409 -0.780464,17.54331 0.168643,6.68548 0.812323,14.03301 1.634468,18.65712 1.756922,9.88186 3.860241,17.1378 5.171185,17.83941 0.491518,0.26305 1.059756,-0.04 1.059756,-0.56526 0,-0.61281 1.158535,-2.69789 1.79921,-3.23815 1.691711,-1.4266 3.893531,-1.58833 5.635888,-0.41402 0.844574,0.56924 1.726155,1.61106 1.833076,2.16625 0.09316,0.48373 0.829278,0.7303 0.829278,0.27779 0,-0.55107 1.804655,-2.05267 2.944619,-2.45014 0.974956,-0.33994 1.250634,-0.35534 2.148396,-0.1199 1.330585,0.34891 2.635929,1.27902 3.178309,2.26466 0.465403,0.84576 0.896033,1.00149 1.124318,0.40658 0.241832,-0.63018 1.088485,-1.34843 2.135466,-1.81156 2.437023,-1.07803 5.543935,0.63985 6.52309,3.6067 0.165246,0.50073 0.373026,0.72867 0.664165,0.72867 0.687995,0 1.661726,-0.608 1.98424,-1.23896 1.061382,-2.07646 3.073364,-10.01658 3.469572,-13.69238 0.07638,-0.70897 0.328341,-2.49751 0.559828,-3.97453 0.472917,-3.0175 0.832767,-3.75968 1.822916,-3.75968 1.023943,0 1.235048,0.98748 1.252208,5.85757 l 0.01462,4.13886 5.478398,-0.0569 c 5.33334,-0.0554 5.47721,-0.0683 5.43346,-0.4866 -0.28136,-2.6897 -0.28198,-6.1642 -0.001,-7.32844 0.49382,-2.04839 0.80102,-2.55417 1.55136,-2.55417 0.52139,0 0.70483,0.13929 0.99028,0.75194 0.45414,0.97468 1.20194,4.18548 1.70123,7.30455 0.61182,3.82205 1.85451,9.14388 2.63376,11.27906 0.62765,1.71979 2.18064,4.65486 2.57451,4.86564 0.54026,0.28915 1.01484,0.0803 1.01484,-0.44663 0,-0.89404 0.87962,-2.73987 1.66363,-3.49103 1.158,-1.10948 1.99289,-1.46508 3.4398,-1.46508 1.01506,0 1.44479,0.1187 2.22793,0.61534 1.08071,0.68536 1.85171,1.56124 2.04212,2.3199 0.1955,0.77892 0.64986,0.59805 1.30199,-0.5183 0.80637,-1.38036 1.40088,-1.89174 2.83039,-2.43458 l 1.21064,-0.45971 1.43584,0.48221 c 1.48076,0.4973 2.57331,1.38025 2.85173,2.30467 0.21546,0.71532 0.86865,0.59338 1.36962,-0.25568 0.86037,-1.45821 2.83859,-2.30138 4.61675,-1.9678 1.68507,0.31611 3.49964,2.21148 4.1235,4.30707 0.13889,0.46655 0.3595,0.88392 0.49025,0.9275 0.44788,0.1493 2.05337,-3.58612 3.25637,-7.57643 0.66677,-2.21167 1.43645,-7.17256 1.94413,-12.53055 0.27698,-2.92313 0.68401,-4.1195 1.40156,-4.1195 0.62127,0 1.31511,1.06319 1.51675,2.32419 0.0799,0.49935 0.22916,0.95982 0.3318,1.02326 0.10263,0.0634 0.18663,1.70028 0.18663,3.63745 v 3.52212 l 7.29438,0.0144 7.29439,0.0144 -0.1018,-1.88418 c -0.056,-1.0363 -0.1417,-2.5273 -0.19043,-3.31334 -0.16344,-2.63624 0.64579,-5.76796 1.49043,-5.76796 0.43313,0 1.36155,1.05387 1.60732,1.8245 0.11334,0.35539 0.54602,2.72472 0.96151,5.2652 0.78196,4.78116 1.78566,9.76272 2.38074,11.81616 1.52291,5.25504 2.09456,6.32786 3.29747,6.18843 0.49258,-0.0571 0.58247,-0.18959 0.70032,-1.03228 0.21282,-1.52175 0.54159,-2.33471 1.33655,-3.30485 1.88719,-2.30306 4.88529,-2.4835 6.95333,-0.41847 0.49814,0.4974 0.96784,1.15193 1.04378,1.45448 0.18417,0.73379 0.85916,0.72985 1.04386,-0.006 0.22619,-0.90117 2.08197,-2.59907 3.15795,-2.88927 2.06883,-0.55803 4.21944,0.29641 5.27359,2.09515 0.58617,1.00023 0.889,1.07118 1.27728,0.29919 0.64809,-1.28856 2.48984,-2.38628 4.0037,-2.38628 0.93485,0 2.40438,0.64099 3.20386,1.3975 0.87811,0.83088 1.7761,2.55584 2.01262,3.86606 0.2337,1.29464 0.37486,1.3927 1.42825,0.99222 z"
   id="path360" /><path
   style="fill:#55a4da;fill-opacity:1;stroke:none;stroke-width:0.626892;stroke-linecap:round;stroke-dasharray:none;stroke-opacity:1"
   d="m 59.880647,168.6035 c 45.935373,16.26196 90.365873,20.28446 129.550283,-18.36146 l -1.57263,-2.25268 C 151.55916,188.30048 71.239438,176.26742 60.730728,162.84429 Z"
   id="path23589" /><path
   style="fill:#fefdfc;fill-opacity:1;stroke:#000000;stroke-width:0.21514;stroke-dasharray:none;stroke-opacity:1"
   d="m 69.261322,245.53199 c -0.0041,-1.8676 -1.38999,-3.95031 -2.942551,-4.42148 -0.915127,-0.27775 -2.032724,0.11874 -2.966267,1.05228 -0.913995,0.91398 -1.693925,2.63773 -1.405009,3.10521 0.08657,0.14016 0.9222,0.39182 1.856855,0.55929 4.282492,0.76726 4.938803,0.86679 5.190517,0.78715 0.164516,-0.052 0.267742,-0.47138 0.266455,-1.08245 z"
   id="path362" /><path
   style="fill:#fefdfc;fill-opacity:1;stroke:#000000;stroke-width:0.21514;stroke-dasharray:none;stroke-opacity:1"
   d="m 85.80605,246.7517 c 1.918308,-0.33446 2.119027,-0.55136 1.595886,-1.72458 -0.555247,-1.24519 -1.912637,-2.68949 -2.687635,-2.8597 -1.494627,-0.32828 -3.437538,1.33797 -4.18533,3.58938 -0.30203,0.90933 -0.312632,1.11646 -0.06588,1.28618 0.336061,0.2311 3.261576,0.0717 5.342907,-0.29128 z"
   id="path358" /><path
   style="fill:#fefdfc;fill-opacity:1;stroke:#000000;stroke-width:0.21514;stroke-dasharray:none;stroke-opacity:1"
   d="m 78.48022,247.02285 c 0.223385,-0.14143 0.267875,-0.46983 0.172616,-1.2742 -0.5028,-4.24533 -4.619418,-5.57316 -6.58863,-2.12518 -0.635579,1.11284 -1.058602,2.83135 -0.76876,3.12305 0.323204,0.32529 6.718918,0.57128 7.184774,0.27633 z"
   id="path356" /><path
   style="fill:#fefdfc;fill-opacity:1;stroke:#000000;stroke-width:0.21514;stroke-dasharray:none;stroke-opacity:1"
   d="m 191.68275,247.5928 c 0.11894,-1.03465 -0.39192,-2.88831 -1.04415,-3.78869 -0.81117,-1.11979 -2.11489,-1.80462 -3.08796,-1.62207 -1.57994,0.2964 -3.04162,2.15938 -3.28117,4.18201 -0.14795,1.24924 -0.37605,1.1513 3.69272,1.58588 3.57995,0.38236 3.63616,0.37697 3.72056,-0.35713 z"
   id="path354" /><path
   style="fill:#fefdfc;fill-opacity:1;stroke:#000000;stroke-width:0.21514;stroke-dasharray:none;stroke-opacity:1"
   d="m 128.64488,247.00514 c -0.0353,-1.92983 -1.01264,-3.48807 -2.64603,-4.2189 -1.62209,-0.7258 -3.90827,0.81864 -4.53726,3.06516 -0.40744,1.45525 -0.28765,1.51104 4.73428,2.20551 2.43458,0.33666 2.47412,0.31969 2.44901,-1.05177 z"
   id="path352" /><path
   style="fill:#fefdfc;fill-opacity:1;stroke:#000000;stroke-width:0.21514;stroke-dasharray:none;stroke-opacity:1"
   d="m 145.9325,247.97699 c 0.98866,-0.15172 1.8751,-0.40131 1.96985,-0.55465 0.24758,-0.40056 -0.68777,-2.8333 -1.42729,-3.71223 -1.1772,-1.3991 -2.27496,-1.56671 -3.77099,-0.57579 -1.1287,0.74764 -2.00506,2.2067 -2.22654,3.70705 -0.24434,1.65509 -0.16608,1.71964 1.88395,1.55443 0.97541,-0.0786 2.58238,-0.26709 3.57102,-0.41881 z"
   id="path350" /><path
   style="fill:#fefdfc;fill-opacity:1;stroke:#000000;stroke-width:0.21514;stroke-dasharray:none;stroke-opacity:1"
   d="m 207.56866,248.29167 c 1.33063,-0.12362 2.67041,-0.32022 2.9773,-0.4369 0.50665,-0.19265 0.54426,-0.28591 0.40873,-1.01427 -0.51975,-2.79376 -2.41202,-5.0149 -4.00151,-4.697 -0.85607,0.17121 -1.98526,0.95788 -2.54272,1.77146 -0.92835,1.35484 -1.40501,3.97552 -0.82804,4.55251 0.14425,0.14425 0.54924,0.21259 0.91307,0.15409 0.35962,-0.0579 1.74255,-0.20627 3.07317,-0.32989 z"
   id="path348" /><path
   style="fill:#fefdfc;fill-opacity:1;stroke:#000000;stroke-width:0.21514;stroke-dasharray:none;stroke-opacity:1"
   d="m 201.39284,248.39776 c 0.40498,-0.48797 0.13712,-2.65883 -0.49972,-4.04985 -0.7409,-1.61835 -1.87479,-2.37925 -3.3363,-2.23883 -1.83504,0.17634 -2.86131,1.34041 -3.38158,3.83564 -0.48309,2.31694 -0.34076,2.52628 1.78092,2.61931 4.36308,0.19126 5.16019,0.16688 5.43668,-0.16627 z"
   id="path346" /><path
   style="fill:#fefdfc;fill-opacity:1;stroke:#000000;stroke-width:0.21514;stroke-dasharray:none;stroke-opacity:1"
   d="m 138.13543,248.50294 c 0.56519,-0.21488 0.5774,-0.25591 0.4471,-1.50256 -0.23361,-2.23515 -0.9887,-3.51267 -2.5492,-4.31292 -1.0081,-0.517 -1.48451,-0.51396 -2.52339,0.0161 -1.44892,0.73911 -2.37277,2.50547 -2.37277,4.53659 v 1.25675 l 2.95404,0.0663 c 1.62472,0.0365 3.0686,0.0876 3.2086,0.1135 0.14002,0.0259 0.51604,-0.0523 0.83562,-0.1738 z"
   id="path344" /><g
   id="ele-head"><path
     style="fill:#76b6e6;fill-opacity:1;stroke:#604530;stroke-width:3.81797;stroke-dasharray:none;stroke-opacity:1"
     d="m 136.57311,172.2682 c 0.74985,0.15538 1.75945,0.0171 2.27375,-0.0573 1.07561,-0.15556 10.13566,-1.92917 11.08893,-2.36409 0.23632,-0.10783 0.86473,-0.30038 1.39645,-0.42791 0.53173,-0.12753 1.30515,-0.36263 1.71871,-0.52244 0.41357,-0.15981 1.38035,-0.53497 2.1484,-0.83369 0.76805,-0.29871 2.04,-0.7922 2.82655,-1.09662 2.00797,-0.77716 6.85746,-3.28584 8.77477,-4.53924 0.88621,-0.57935 1.77042,-1.15274 1.9649,-1.27422 4.88256,-3.04969 10.37872,-8.58111 13.87318,-13.96219 0.61687,-0.9499 1.19693,-1.82377 1.28903,-1.94194 0.33804,-0.43366 2.4155,-4.56997 3.29104,-6.5526 0.79813,-1.80734 2.21085,-5.5814 3.13634,-8.37874 1.085,-3.2795 2.5774,-11.02445 3.08413,-16.00553 0.39099,-3.84333 0.5152,-13.91929 0.23529,-19.085345 -0.21902,-4.043028 -0.51984,-6.827924 -1.52385,-14.107338 -0.18457,-1.338284 -0.97701,-5.423169 -1.93799,-9.990032 -0.55931,-2.658057 -2.0889,-8.605357 -3.12678,-12.157426 -0.42852,-1.466571 -0.90576,-3.101541 -1.06053,-3.633268 -0.15478,-0.531728 -0.8052,-2.465283 -1.44538,-4.296789 -5.14394,-14.715825 -12.24496,-25.945894 -20.42708,-32.304568 -3.27942,-2.548568 -8.1734,-5.37889 -11.75825,-6.800109 -0.64353,-0.25513 -1.65346,-0.654341 -2.24427,-0.887132 C 146.38563,9.5662169 141.08322,8.1369905 135.97105,7.2276921 122.76504,4.878745 103.67161,5.3798187 91.391879,8.3975933 83.094718,10.436639 75.65017,13.697835 70.008908,17.764722 c -2.743767,1.978028 -2.90155,2.115369 -6.133058,5.338548 -8.755163,8.73257 -15.204198,21.761093 -20.050368,40.506287 -1.690137,6.537502 -3.606315,16.819569 -4.32408,23.202654 -0.17274,1.536101 -0.365378,3.179623 -0.428088,3.65227 -0.578819,4.362197 -0.694264,15.618919 -0.217044,21.161679 0.511066,5.93582 1.445237,11.81392 2.526579,15.89811 0.234636,0.88622 0.472001,1.85299 0.527474,2.1484 0.05548,0.2954 0.181479,0.73045 0.280022,0.96677 0.09851,0.23633 0.587559,1.58981 1.086715,3.00775 1.805262,5.12822 3.433471,8.64061 5.623855,12.13185 1.960286,3.12449 3.8679,5.54423 6.924259,8.78318 2.080476,2.20477 8.453534,7.33636 9.111224,7.33636 0.115095,0 0.241493,0.0761 0.280877,0.16908 0.199864,0.47193 6.45375,3.22943 9.631967,5.02107 3.342875,1.88445 13.262718,5.32392 19.168438,4.31829"
     id="path18565" /><path
     style="fill:#cb8295;fill-opacity:1;stroke:#604530;stroke-width:3.81797;stroke-dasharray:none;stroke-opacity:1"
     d="m 37.73958,130.93193 c 0.793939,-0.27906 1.631626,-0.66855 1.861538,-0.86555 0.385214,-0.3301 0.396105,-0.43962 0.138791,-1.39646 -0.829689,-3.08533 -1.766506,-8.33489 -2.15976,-12.1025 -0.626129,-5.99866 -0.711763,-7.89058 -0.641838,-14.17939 0.08451,-7.604 0.505611,-13.136376 1.536996,-20.194907 0.423013,-2.894961 0.846994,-5.891971 0.942201,-6.660021 0.260824,-2.104261 0.82411,-5.153898 1.660254,-8.988589 0.10794,-0.495017 0.091,-0.500115 -1.146615,-0.345483 -2.529924,0.316094 -6.530202,2.886407 -9.803626,6.299151 -1.563317,1.629857 -3.640963,4.25752 -4.57847,5.790547 -0.472433,0.772522 -0.839561,1.438638 -0.849422,1.541162 -0.0062,0.05908 -0.512096,1.035281 -1.125379,2.169336 -1.528215,2.825948 -3.643835,8.337029 -4.033156,10.506188 -0.07422,0.413565 -0.218198,0.945293 -0.319952,1.181616 -0.101702,0.236323 -0.346447,1.203101 -0.543789,2.148394 -0.197332,0.945293 -0.448779,1.945082 -0.558778,2.221753 -0.310512,0.781068 -0.879594,5.864223 -0.991014,8.851893 -0.144967,3.88727 0.493382,9.13699 1.553209,12.77352 0.511076,1.75366 2.242594,5.23932 2.998168,6.03554 0.122589,0.12917 0.613489,0.6609 1.090894,1.18161 1.677836,1.83004 4.105903,3.33877 6.65136,4.13295 1.636722,0.51067 1.966319,0.54525 4.511633,0.47335 1.806219,-0.0511 2.703467,-0.18632 3.806755,-0.57411 z"
     id="path402" /><path
     style="fill:#cb8295;fill-opacity:1;stroke:#604530;stroke-width:3.81797;stroke-dasharray:none;stroke-opacity:1"
     d="m 202.43874,131.82523 c 3.37961,-0.43936 5.81074,-1.64112 8.26495,-4.08557 2.57961,-2.56936 4.06851,-5.51259 5.22809,-10.3347 0.80444,-3.34544 0.99436,-4.99145 0.99436,-8.61855 0,-3.84357 -0.20697,-5.72035 -1.09164,-9.898524 -0.35548,-1.678854 -0.7351,-3.53585 -0.84359,-4.126659 -0.31027,-1.68945 -1.10342,-4.462635 -1.59759,-5.585824 -0.15595,-0.354485 -0.40448,-1.031229 -0.55228,-1.503875 -0.56188,-1.796758 -2.95426,-6.620401 -4.52087,-9.115152 -4.81568,-7.668759 -9.49465,-11.852722 -14.2196,-12.715229 -0.79696,-0.145483 -1.49025,-0.223308 -1.54061,-0.172944 -0.0503,0.05036 0.0933,0.864572 0.31926,1.809355 1.61648,6.758765 3.67181,20.670064 4.07324,27.569249 0.41997,7.217593 0.26557,17.993043 -0.31912,22.272553 -0.66592,4.87385 -1.09202,7.2188 -1.98612,10.92994 l -0.56287,2.33635 0.5,0.37715 c 0.43117,0.32524 1.22336,0.56392 3.11366,0.93815 0.8093,0.16022 3.22233,0.12168 4.74073,-0.0758 z"
     id="path400" /><path
     style="fill:#7dbded;fill-opacity:1;stroke:#604530;stroke-width:3.81797;stroke-dasharray:none;stroke-opacity:1"
     d="m 206.99487,149.11985 c 5.51606,-1.08349 9.87937,-3.52879 13.85714,-7.76591 3.80882,-4.05714 7.21648,-10.98324 8.91829,-18.1265 0.29557,-1.2407 0.58777,-2.44917 0.64931,-2.68549 0.1816,-0.69741 0.75602,-4.99308 0.96239,-7.19712 0.34942,-3.73156 0.24221,-8.17038 -0.3165,-13.1052 -0.0468,-0.413564 -0.14713,-1.332002 -0.22286,-2.040972 -0.34109,-3.193002 -2.1082,-10.950394 -3.15238,-13.838783 -2.13948,-5.918054 -3.54173,-9.06482 -6.13532,-13.768079 -1.70788,-3.097072 -4.76365,-7.726555 -6.32893,-9.58825 -0.50962,-0.60615 -1.55501,-1.851316 -2.32306,-2.767032 -3.16559,-3.774209 -9.29654,-8.626322 -13.13467,-10.39494 -2.95264,-1.36058 -3.84732,-1.581138 -6.52313,-1.608085 -2.4931,-0.02511 -2.62227,-0.0035 -3.91876,0.654088 -1.75506,0.890242 -3.26068,1.850432 -3.27051,2.085734 -0.004,0.103242 0.42195,1.456729 0.94726,3.007752 1.04201,3.076627 2.69519,8.695241 2.70045,9.177928 0.007,0.698645 0.4025,0.910563 1.8573,0.996704 2.56334,0.151782 5.17565,1.289281 8.67194,3.776084 4.46935,3.178916 8.28477,7.934101 11.58243,14.435209 2.68836,5.299946 3.95094,8.917734 5.3984,15.468436 0.91163,4.125677 1.33014,10.077596 1.04614,14.878116 -0.44003,7.43834 -1.88759,12.72327 -4.60422,16.80967 -1.072,1.6125 -3.88483,4.37405 -4.99407,4.90301 -0.38493,0.18355 -0.69986,0.41251 -0.69986,0.50879 0,0.0962 -0.13949,0.17504 -0.30997,0.17504 -0.17049,0 -0.63872,0.19396 -1.04052,0.43102 -1.1574,0.68288 -3.71646,1.47734 -5.66736,1.75941 -2.23676,0.3234 -5.11026,0.009 -7.37189,-0.80696 -0.84879,-0.30618 -1.6599,-0.51193 -1.80246,-0.45723 -0.14255,0.0547 -0.53654,0.90796 -0.87554,1.89613 -0.339,0.98817 -1.03627,2.76071 -1.5495,3.93897 -0.51324,1.17825 -0.93315,2.22459 -0.93315,2.32519 0,0.37697 2.32693,2.37161 4.29687,3.68327 4.58682,3.05408 9.52819,4.17469 14.28674,3.24 z"
     id="path398" /><path
     style="fill:#7dbded;fill-opacity:1;stroke:#604530;stroke-width:3.81797;stroke-dasharray:none;stroke-opacity:1"
     d="m 36.883847,148.88036 c 2.499074,-0.61534 5.015235,-1.77291 6.989182,-3.21537 2.765219,-2.0207 2.847858,-2.15405 2.167243,-3.49718 -0.619655,-1.22282 -2.015935,-4.67692 -2.814167,-6.96162 -0.296584,-0.84891 -0.623093,-1.62732 -0.725567,-1.72979 -0.105193,-0.10519 -0.548216,-0.002 -1.01752,0.23579 -3.378925,1.71588 -10.201903,1.329 -14.473515,-0.8207 -2.157887,-1.08595 -3.509636,-2.13178 -5.007031,-3.87386 -2.579963,-3.00154 -4.183055,-6.48412 -5.384947,-11.69827 -2.292817,-9.94698 -0.16014,-24.349535 5.236356,-35.362502 2.698289,-5.506562 5.581084,-9.642132 9.344986,-13.406036 4.174532,-4.17453 7.16464,-5.694609 11.368426,-5.779361 0.932267,-0.0188 1.0757,-0.08454 1.218187,-0.558402 0.08884,-0.295403 0.467194,-1.648892 0.840817,-3.007751 0.943621,-3.431952 1.628353,-5.673334 2.707595,-8.862935 l 0.92712,-2.740012 -0.474595,-0.297107 c -1.926842,-1.206257 -5.865203,-1.30938 -9.175592,-0.240255 -1.004365,0.324375 -2.502872,0.930091 -3.330009,1.346039 -6.442499,3.2398 -14.041052,11.101798 -19.519199,20.195946 -2.842392,4.718591 -6.2913139,12.339247 -7.5099951,16.59389 -1.399574,4.886197 -2.7314765,11.176123 -3.0480002,14.394239 -0.075556,0.768047 -0.1819117,1.686487 -0.2363761,2.040977 -0.054454,0.35448 -0.1545406,2.96478 -0.2224076,5.80065 -0.093776,3.92006 -0.042616,5.90295 0.213349,8.27133 1.19341,11.04067 4.6520601,19.50048 10.497674,25.67719 3.895168,4.11577 7.828599,6.38319 13.048258,7.52164 3.150763,0.68722 5.511385,0.67973 8.379728,-0.0266 z"
     id="path396" /><path
     style="fill:#5e442e;fill-opacity:1;stroke:#000000;stroke-width:0.21514;stroke-dasharray:none;stroke-opacity:1"
     d="m 143.21114,66.46688 c -0.14179,-0.141794 -0.2578,-0.540936 -0.2578,-0.88698 0,-1.015198 3.11341,-3.991478 5.22377,-4.993684 1.59022,-0.755186 1.69605,-0.775022 3.75084,-0.703043 1.93358,0.06773 2.25121,0.142284 3.71333,0.871507 2.0751,1.034953 3.93444,2.519475 4.73331,3.779161 1.2707,2.003682 0.30619,2.319668 -1.73797,0.569384 -2.69848,-2.310513 -4.62978,-3.04074 -7.47335,-2.825679 -2.14956,0.162569 -3.82806,0.999312 -5.91585,2.949077 -0.88227,0.823934 -1.64334,1.498064 -1.69129,1.498064 -0.048,0 -0.20319,-0.116013 -0.34499,-0.257807 z"
     id="path392" /><path
     style="fill:#5e442e;fill-opacity:1;stroke:#000000;stroke-width:0.21514;stroke-dasharray:none;stroke-opacity:1"
     d="m 86.816189,65.264501 c -2.106428,-2.122693 -4.141159,-3.058916 -6.611215,-3.041961 -2.536275,0.01741 -4.707522,0.952051 -6.968645,2.999739 -2.004437,1.815224 -2.766918,1.156181 -1.272003,-1.099445 1.184784,-1.787683 3.535627,-3.333502 6.158278,-4.04943 1.694542,-0.462581 4.323266,-0.214162 5.990705,0.566131 1.756572,0.821997 4.566807,3.472081 4.796059,4.522739 0.175715,0.805302 -0.0105,1.562413 -0.384349,1.562413 -0.142909,0 -0.911885,-0.657085 -1.70883,-1.460186 z"
     id="path390" /><path
     style="fill:#5f442f;fill-opacity:1;stroke:#000000;stroke-width:0.21514;stroke-dasharray:none;stroke-opacity:1"
     d="m 149.69979,129.48892 c -3.19775,-1.18472 -5.78723,-4.01895 -6.87897,-7.52915 -0.5305,-1.70569 -0.6118,-4.23229 -0.20142,-6.25983 1.03491,-5.11322 4.88204,-8.70848 9.78687,-9.14618 1.129,-0.10077 1.70908,-0.0242 3.02872,0.39969 3.72444,1.1963 6.30944,4.00265 7.40532,8.03941 0.40474,1.49092 0.43612,4.468 0.0669,6.35269 -0.60472,3.08716 -2.94966,6.14034 -5.86218,7.63271 -1.43814,0.7369 -1.65619,0.78451 -3.88686,0.84856 -1.9073,0.0548 -2.57451,-0.0104 -3.45841,-0.3379 z"
     id="path386" /><path
     style="fill:#5f442f;fill-opacity:1;stroke:#000000;stroke-width:0.21514;stroke-dasharray:none;stroke-opacity:1"
     d="m 77.42732,129.74273 c -1.475552,-0.23688 -3.766074,-1.66156 -5.16783,-3.21435 -2.63489,-2.91879 -3.629723,-7.41469 -2.563317,-11.58428 1.779023,-6.9559 9.130206,-10.41211 14.966844,-7.03675 0.493865,0.2856 1.520784,1.17953 2.28205,1.9865 2.256141,2.39163 3.157773,4.82029 3.157773,8.50585 0,3.40815 -1.00034,6.02966 -3.168077,8.30231 -1.507762,1.58073 -2.835475,2.43137 -4.452278,2.85249 -1.169436,0.3046 -3.735162,0.40014 -5.055165,0.18823 z"
     id="path382" /><path
     style="fill:#604530;fill-opacity:1;stroke:#000000;stroke-width:0.21514;stroke-dasharray:none;stroke-opacity:1"
     d="m 174.53237,143.58348 c -0.23414,-0.38402 -0.42608,-0.8492 -0.42652,-1.03373 -4.2e-4,-0.18453 -0.19396,-1.07299 -0.43006,-1.97438 -0.50015,-1.90949 -0.35611,-2.64138 0.56533,-2.87264 0.4439,-0.11142 0.66678,-0.0398 0.94481,0.30354 0.40952,0.50574 1.28236,3.75781 1.28236,4.77791 0,1.58451 -1.16411,2.06515 -1.93592,0.7993 z"
     id="path380" /><path
     style="fill:#604530;fill-opacity:1;stroke:#000000;stroke-width:0.21514;stroke-dasharray:none;stroke-opacity:1"
     d="m 170.41418,143.90574 c -0.17602,-0.20678 -0.58867,-1.46384 -0.917,-2.79346 -0.56219,-2.27664 -0.57648,-2.44876 -0.2454,-2.95404 0.39124,-0.59712 1.21418,-0.71613 1.61473,-0.23352 0.33966,0.40928 1.30498,4.0655 1.30498,4.94275 0,1.18045 -1.08873,1.82371 -1.75731,1.03827 z"
     id="path378" /><path
     style="fill:#604530;fill-opacity:1;stroke:#000000;stroke-width:0.21514;stroke-dasharray:none;stroke-opacity:1"
     d="m 60.111259,143.74197 c -0.33285,-0.50799 -0.321043,-0.68615 0.200759,-3.02847 0.304933,-1.36879 0.667048,-2.62441 0.804686,-2.79026 0.608836,-0.73359 1.916374,-0.0453 1.916374,1.00872 0,0.28848 -0.193359,1.22225 -0.429684,2.07505 -0.236324,0.8528 -0.429673,1.74513 -0.429673,1.98294 0,0.55356 -0.733823,1.29176 -1.284087,1.29176 -0.233597,0 -0.583864,-0.24288 -0.778375,-0.53974 z"
     id="path376" /><path
     style="fill:#604530;fill-opacity:1;stroke:#000000;stroke-width:0.21514;stroke-dasharray:none;stroke-opacity:1"
     d="m 55.821499,143.83605 c -0.394891,-0.43634 -0.39348,-0.49266 0.06753,-2.69611 0.25894,-1.23775 0.595537,-2.51154 0.747998,-2.83065 0.335587,-0.70241 1.118162,-0.86442 1.687336,-0.34931 0.461975,0.41807 0.507638,0.86544 0.204178,2.00001 -0.114282,0.42727 -0.365646,1.45361 -0.558582,2.28074 -0.192926,0.82713 -0.449633,1.62472 -0.570451,1.77243 -0.335011,0.40956 -1.12754,0.32061 -1.577965,-0.17711 z"
     id="path374" /><path
     style="fill:#fefdfd;fill-opacity:1;stroke:#000000;stroke-width:0.21514;stroke-dasharray:none;stroke-opacity:1"
     d="m 152.2167,112.94043 c 0.72081,-0.7208 0.83409,-0.96489 0.83409,-1.79716 0,-2.85136 -3.73041,-3.72977 -5.06565,-1.19282 -0.90772,1.72466 0.49973,3.82125 2.56656,3.82326 0.67931,6.4e-4 0.98311,-0.15139 1.665,-0.83328 z"
     id="path388" /><path
     style="fill:#fefdfd;fill-opacity:1;stroke:#000000;stroke-width:0.21514;stroke-dasharray:none;stroke-opacity:1"
     d="m 78.740941,113.39393 c 2.358131,-1.35261 1.157763,-4.9904 -1.646697,-4.9904 -0.60161,0 -0.950147,0.16606 -1.497602,0.71351 -1.427356,1.42736 -1.139017,3.37515 0.647572,4.37445 0.908458,0.50813 1.479701,0.48581 2.496727,-0.0976 z"
     id="path384" /><rect
     style="fill:#a2d3f4;fill-opacity:1;stroke:none;stroke-width:0.188763;stroke-linecap:round;stroke-dasharray:none;stroke-opacity:1"
     id="rect17708"
     width="67.89782"
     height="22.484337"
     x="62.115402"
     y="29.340048"
     ry="11.242168"
     rx="33.94891"
     transform="matrix(0.99296799,-0.11838315,0.10620051,0.99434473,0,0)" /><path
     style="fill:none;fill-opacity:1;stroke:#604530;stroke-width:3.709;stroke-linecap:round;stroke-dasharray:none;stroke-opacity:1"
     d="m 91.445971,171.69933 c 15.909139,1.42907 31.794079,2.7097 47.920959,0.2194"
     id="path28045" /><g
     id="ele-trunk"><path
       style="fill:#76b6e6;fill-opacity:1;stroke:none;stroke-width:0.21514;stroke-dasharray:none;stroke-opacity:1"
       d="m 141.42782,158.44941 c 0.79262,0.4242 0.80116,1.56228 0.0239,3.18543"
       id="path18563" /><path
       style="fill:#76b6e6;fill-opacity:1;stroke:#604530;stroke-width:4.53853;stroke-dasharray:none;stroke-opacity:1"
       d="m 91.552329,145.73355 c 0.864729,-1.15822 1.76629,-1.15515 2.626922,0.009 0.480617,0.65007 0.52769,12.85912 0.688129,16.44956 0.268905,6.01814 1.434429,13.10438 3.008297,18.29011 2.897833,9.54806 6.455383,16.28623 11.586643,21.94568 2.17034,2.39376 5.59773,5.28928 7.49547,6.33232 0.41357,0.22731 1.13865,0.65231 1.6113,0.94445 1.6462,1.01751 5.48002,2.75769 7.35546,3.33865 0.79913,0.24754 1.69465,0.53409 1.99005,0.63676 0.46747,0.16248 2.89036,0.65805 4.51162,0.9228 0.29541,0.0483 2.13229,0.0984 4.08195,0.11145 2.7963,0.0187 3.90779,-0.0623 5.26357,-0.3838 l -2e-5,-3.4e-4 c 2.62012,-0.6213 3.21234,-0.82671 5.00424,-1.73571 4.84308,-2.45683 6.54548,-6.23573 4.04759,-8.98456 -0.87935,-0.96771 -1.90976,-1.32185 -3.84606,-1.32185 -1.1725,0 -1.9319,-0.10108 -2.19291,-0.29195 -0.4848,-0.35449 -0.48521,-1.29727 -0.001,-2.82321 0.47269,-1.49034 0.64509,-5.20638 0.2741,-5.90809 -0.35921,-0.67944 -1.55748,-1.2885 -2.53379,-1.2879 -1.37436,8.7e-4 -2.6868,1.18547 -4.28316,3.86598 -1.5296,2.56839 -2.39492,2.92808 -3.86,1.60446 -0.99985,-0.9033 -1.88677,-2.93599 -2.24677,-5.14931 -0.13495,-0.82968 -0.2278,-3.38199 -0.20711,-5.69325 0.0463,-5.16983 0.75153,-9.96379 2.32269,-15.78844 1.03556,-3.83905 1.98183,-18.34194 3.70333,-22.09344 0.73313,-1.59762 2.49271,-2.69718 3.47498,-2.17148"
       id="path364" /><rect
       style="fill:#98d3f4;fill-opacity:1;stroke:none;stroke-width:0.166301;stroke-linecap:round;stroke-dasharray:none;stroke-opacity:1"
       id="rect21630"
       width="51.916691"
       height="22.823647"
       x="129.63124"
       y="-127.26884"
       ry="11.411823"
       rx="25.958345"
       transform="matrix(-1.3789485e-5,1,-0.99995728,-0.00924278,0,0)" /><path
       style="fill:#604530;fill-opacity:1;stroke:#000000;stroke-width:0.21514;stroke-dasharray:none;stroke-opacity:1"
       d="m 109.93945,147.3104 c -1.49855,-0.14517 -1.79806,-0.3199 -1.3376,-0.78036 0.88594,-0.88594 8.56623,-1.30294 11.49356,-0.62405 1.84079,0.42691 2.68735,0.85526 2.52523,1.27774 -0.10517,0.27406 -0.9378,0.31581 -5.73957,0.2878 -3.0891,-0.018 -6.21283,-0.0905 -6.94162,-0.16113 z"
       id="path372" /><path
       style="fill:#604530;fill-opacity:1;stroke:#000000;stroke-width:0.21514;stroke-dasharray:none;stroke-opacity:1"
       d="m 106.30308,163.7995 c -0.65629,-1.06191 6.35398,-2.04725 11.94373,-1.67877 4.3132,0.28432 6.85793,1.0461 5.77825,1.72975 -0.47297,0.29948 -17.53572,0.2504 -17.72198,-0.051 z"
       id="path370" /><path
       style="fill:#604530;fill-opacity:1;stroke:#000000;stroke-width:0.21514;stroke-dasharray:none;stroke-opacity:1"
       d="m 111.10381,180.78598 c -1.42857,-0.20923 -2.0951,-0.51204 -2.0951,-0.95182 0,-0.17084 0.26586,-0.38496 0.59081,-0.47583 0.76593,-0.2142 11.5796,-0.21288 12.35327,0.001 0.66808,0.18512 0.77815,0.68748 0.21483,0.98046 -1.19983,0.62402 -7.98101,0.89718 -11.06381,0.44568 z"
       id="path368" /><path
       style="fill:#604530;fill-opacity:1;stroke:#000000;stroke-width:0.21514;stroke-dasharray:none;stroke-opacity:1"
       d="m 116.56943,195.60607 c -0.86348,-0.0829 -1.85442,-0.26854 -2.2021,-0.41255 -0.70355,-0.29142 -0.84642,-0.94089 -0.25674,-1.16716 1.40586,-0.53948 8.6505,-0.49138 9.66833,0.0642 1.15988,0.63311 0.0327,1.33025 -2.35575,1.45698 -0.97894,0.052 -2.11828,0.12029 -2.53184,0.15186 -0.41357,0.0316 -1.45842,-0.0104 -2.3219,-0.0933 z"
       id="path366" /></g></g></svg>
