<?xml version="1.0" encoding="UTF-8" standalone="no"?>
<!-- Created with Inkscape (http://www.inkscape.org/) -->

<svg
   width="256mm"
   height="256mm"
   viewBox="0 0 256 256"
   version="1.1"
   id="svg5"
   xml:space="preserve"
   xmlns="http://www.w3.org/2000/svg"
   xmlns:svg="http://www.w3.org/2000/svg">
   
   <style
   id="style182">
#cow-head {
  transform-origin: 50% 100%;
  animation:cow-head 3s cubic-bezier(0.55, 0.09, 0.68, 0.53) infinite;
} @keyframes cow-head {
  0% {transform: rotate(0deg);}
  25% {transform: rotate(-2deg);}
  75% {transform: rotate(2deg);}
  100% {transform: rotate(0deg);}
}
#cow-tail {
  transform-origin: 0% 50%;
  animation:cow-tail 2s cubic-bezier(0.55, 0.09, 0.68, 0.53) infinite;
} @keyframes cow-tail {
  0% {transform: rotate(0deg);}
  25% {transform: rotate(3deg);}
  50% {transform: rotate(-2deg);}
  100% {transform: rotate(0deg);}
}
   </style>

   <defs
   id="defs2" /><g
   id="pig-tail"><path
     style="fill:#5f442f;fill-opacity:1;stroke:none;stroke-width:0.523954;stroke-linecap:round;stroke-dasharray:none;stroke-opacity:1"
     id="path19510"
     d="m 224.29287,175.73663 c -2.96977,-0.30789 -5.69817,-0.39902 -6.73219,-3.48631 -1.05484,-3.14945 -1.05192,-6.89692 0.96174,-9.25675 1.99625,-2.33944 3.05331,-6.10534 2.94533,-10.03818 3.18356,2.51565 6.29694,5.0664 8.53546,8.05458 2.9291,4.55036 3.01517,8.71923 0.96175,12.26221 -1.48858,2.56838 -3.94656,2.74703 -6.67209,2.46445 z" /><path
     style="fill:#a3715a;fill-opacity:1;stroke:#604530;stroke-width:4.02384;stroke-linecap:round;stroke-dasharray:none;stroke-opacity:1"
     id="path19454"
     d="m 201.4551,193.15544 c 4.35734,0.17801 11.72905,-0.34534 16.32129,-3.48528 5.15108,-3.52205 8.56184,-9.14903 10.28582,-15.64124 l -5.69545,-0.68006 c -2.16092,3.68319 -4.23316,7.77087 -8.07564,8.92571 -6.10782,1.83567 -12.55447,-2.68748 -18.53147,-4.76037 z" /></g><path
   style="fill:#a3715a;fill-opacity:1;stroke:#604530;stroke-width:4.695;stroke-dasharray:none;stroke-opacity:1"
   d="m 193.72014,243.66981 c 6.30029,-14.48473 7.83448,-30.74971 7.76704,-46.41002 -0.11871,-22.30427 -10.40759,-44.09756 -27.77371,-58.10533 -6.42184,10.91904 -14.00437,21.27822 -25.88388,27.05645 -14.1615,9.10145 -31.21563,11.75591 -47.76774,10.7901 -15.012216,-0.3058 -30.59935,-2.89772 -43.315847,-11.36697 -7.992498,2.20981 -7.025252,16.38806 -7.709743,24.12161 -1.494547,16.88576 -1.766585,34.89711 4.850962,50.69696 3.860896,-1.98904 6.639051,-5.9441 10.799437,-1.10248 5.253826,-2.75659 9.175163,-0.18831 14.695454,0.0525 8.688285,7.78456 4.627785,-19.49112 10.032072,-15.17074 -3.515277,10.38502 14.273175,8.60952 10.284828,-0.87678 7.153767,-0.39894 1.032107,17.78923 9.427707,18.53368 4.01335,-6.03442 9.97124,-0.3562 15.37028,-2.7609 4.52692,1.43133 8.50239,-2.44666 11.85083,3.38239 4.94089,-4.36593 1.8606,-19.55448 6.55317,-18.94019 -3.03406,10.97235 18.54003,10.06519 13.97467,-0.36223 6.46312,-3.24927 1.60152,21.60007 9.50425,17.92857 4.21605,-5.96931 8.98685,1.22489 13.66503,-2.87617 5.2906,1.10499 14.13723,3.82546 14.08394,4.00814 z"
   id="path34785" /><path
   style="fill:#fcfefe;fill-opacity:1;stroke-width:1.995;stroke:#604530;stroke-opacity:1;stroke-dasharray:none"
   d="m 63.303897,242.29105 c 0.211602,-9.5601 -12.802685,0.86755 -3.01552,0.53654 0.248884,-0.99545 3.727261,1.60728 3.01552,-0.53654 z"
   id="path34805" /><path
   style="fill:#fcfefe;fill-opacity:1;stroke-width:1.995;stroke:#604530;stroke-opacity:1;stroke-dasharray:none"
   d="m 76.790521,243.40076 c 9.429723,-2.13351 -7.73332,-6.98668 -2.618889,0.2841 l 1.089333,-0.0915 z"
   id="path34803" /><path
   style="fill:#fcfefe;fill-opacity:1;stroke-width:1.995;stroke:#604530;stroke-opacity:1;stroke-dasharray:none"
   d="m 71.77274,243.29558 c 1.224976,-9.54248 -12.912922,-0.77655 -3.788134,0.3182 1.076272,-0.47131 2.919269,0.83784 3.788134,-0.3182 z"
   id="path34801" /><path
   style="fill:#563a2f;fill-opacity:1;stroke-width:0.194559"
   d="m 182.86404,157.85234 c -4.11656,-4.10565 -3.57752,-7.45846 0.34953,-1.22822 1.18042,0.75482 1.53868,4.31592 -0.34953,1.22822 z"
   id="path34799" /><path
   style="fill:#563a2f;fill-opacity:1;stroke-width:0.194559"
   d="m 177.7583,167.37838 c -4.38972,-4.381 -4.64386,-8.55129 -0.12145,-1.98587 0.53614,0.59903 1.92485,4.28784 0.12145,1.98587 z"
   id="path34797" /><path
   style="fill:#563a2f;fill-opacity:1;stroke-width:0.194559"
   d="m 188.16441,178.5729 c -2.23595,-4.53854 -2.59152,-10.84929 0.24418,-2.73157 0.2733,0.87475 1.7194,6.63636 -0.24418,2.73157 z"
   id="path34795" /><path
   style="fill:#563a2f;fill-opacity:1;stroke-width:0.194559"
   d="m 171.44682,179.05895 c -2.86661,-4.01343 -4.22634,-10.46863 -0.23295,-2.88742 0.33561,0.70444 2.43663,5.64522 0.23295,2.88742 z"
   id="path34793" /><path
   style="fill:#563a2f;fill-opacity:1;stroke-width:0.194559"
   d="m 196.32581,186.56009 c -1.17034,-4.14195 -3.19921,-17.24857 -0.14776,-6.10218 0.14191,1.50125 1.34333,5.24925 0.14776,6.10218 z"
   id="path34791" /><path
   style="fill:#563a2f;fill-opacity:1;stroke-width:0.194559"
   d="m 184.5826,196.07037 c -1.84725,-2.73379 -4.75562,-15.9427 -0.99935,-6.09619 -0.004,1.54329 2.40919,5.21314 0.99935,6.09619 z"
   id="path34789" /><path
   style="fill:#563a2f;fill-opacity:1;stroke-width:0.194559"
   d="m 193.36421,205.7139 c -0.76028,-4.57048 0.94032,-13.35321 0.89913,-3.76643 -0.10436,-0.28306 0.28366,5.74209 -0.89913,3.76643 z"
   id="path34787" /><path
   style="fill:#fcfefe;fill-opacity:1;stroke-width:1.995;stroke:#604530;stroke-opacity:1;stroke-dasharray:none"
   d="m 174.05985,243.51894 c -0.60411,-10.95503 -12.99232,2.69681 -2.48356,0.93689 0.18393,-0.10494 3.37961,0.85046 2.48356,-0.93689 z"
   id="path34783" /><path
   style="fill:#fcfefe;fill-opacity:1;stroke-width:1.995;stroke:#604530;stroke-opacity:1;stroke-dasharray:none"
   d="m 117.12668,244.3823 c 1.53591,-10.21115 -12.96962,-0.4026 -3.82092,-0.13204 1.21886,-0.23286 2.63858,0.88189 3.82092,0.13204 z"
   id="path34781" /><path
   style="fill:#fcfefe;fill-opacity:1;stroke-width:1.995;stroke:#604530;stroke-opacity:1;stroke-dasharray:none"
   d="m 131.88617,244.465 c 8.6652,-4.84726 -9.50042,-6.46686 -3.22256,0.32756 l 1.35465,-0.11775 z"
   id="path34779" /><path
   style="fill:#fcfefe;fill-opacity:1;stroke-width:1.995;stroke:#604530;stroke-opacity:1;stroke-dasharray:none"
   d="m 188.60018,244.64968 c 8.20794,-0.24201 -4.30888,-11.17416 -4.20275,-1.39078 -1.01593,2.99522 3.12247,1.03568 4.20275,1.39078 z"
   id="path34777" /><path
   style="fill:#fcfefe;fill-opacity:1;stroke-width:1.995;stroke:#604530;stroke-opacity:1;stroke-dasharray:none"
   d="m 182.99124,244.60178 c 1.74077,-7.71549 -9.44801,-6.52521 -6.62459,0.1585 1.97448,-0.0138 4.95061,0.82436 6.62459,-0.1585 z"
   id="path34775" /><path
   style="fill:#fcfefe;fill-opacity:1;stroke-width:1.995;stroke:#604530;stroke-opacity:1;stroke-dasharray:none"
   d="m 125.74933,244.77676 c 2.65804,-9.70545 -11.07935,-3.51141 -5.52729,0.0642 1.83973,0.0964 3.69433,0.19304 5.52729,-0.0642 z"
   id="path34773" /><path
   style="fill:#fcfefe;fill-opacity:1;stroke-width:0.194559"
   d="m 194.38426,247.47524 c -0.77047,-0.40887 -0.18173,0.43836 0,0 z"
   id="path34771" /><g
   id="pig-head"><path
     style="fill:#a9755f;fill-opacity:1;stroke:#604530;stroke-width:4.695;stroke-dasharray:none;stroke-opacity:1"
     d="m 115.78978,175.48819 c 19.60742,-0.8622 41.13854,-9.05825 50.13348,-27.72901 12.07654,-24.90037 7.41651,-54.052893 -0.75699,-79.392388 -4.99468,-15.712696 -15.25168,-30.938782 -31.7088,-36.320235 -7.87609,-2.575469 -18.26749,-4.926368 -30.37284,-4.258457 -10.261939,0.795513 -25.08216,2.383457 -33.48846,7.191412 -5.800686,3.317683 -7.842438,3.306865 -17.328734,15.992855 -11.494619,19.151216 -15.648191,42.00474 -16.086507,64.091943 0.284732,18.45869 5.854712,38.64319 21.993708,49.44498 16.747999,11.46016 38.075236,11.85396 57.615133,10.9789 z"
     id="path34809" /><path
     style="fill:#000000;stroke-width:0.194559"
     d="m 175.44439,8.9221702 c -0.2741,-0.7430344 -0.35836,0.9850582 0,0 z"
     id="path34875" /><path
     style="fill:#a7745e;fill-opacity:1;stroke:#604530;stroke-width:2.595;stroke-dasharray:none;stroke-opacity:1"
     d="m 159.0259,49.034146 c 17.77652,-3.238839 21.27501,-31.267916 5.93389,-39.630154 -4.05919,8.54073 -5.98295,18.704372 -11.26287,26.965189 -7.58358,5.945536 4.82754,14.93425 9.10279,6.105667 5.49611,-4.101369 7.03511,-13.94003 8.01067,-18.420073 1.50604,10.33815 -4.33019,20.693312 -14.0963,24.407582 0.34699,0.958332 1.5438,0.897202 2.31182,0.571789 z"
     id="path34873" /><path
     style="fill:#a7745e;fill-opacity:1;stroke:#604530;stroke-width:2.595;stroke-dasharray:none;stroke-opacity:1"
     d="M 51.47682,50.15176 C 46.095469,46.049912 35.68059,38.925683 37.190004,28.843044 c 0.117038,-11.589379 1.096075,9.467161 5.359828,11.213174 3.631126,5.798928 12.818451,12.443435 15.032208,1.854863 -7.445939,-9.241382 -9.704777,-21.30964 -14.470525,-31.793375 -14.992181,8.285657 -12.033469,35.907718 5.485082,39.595691 l 1.556476,0.346721 1.323747,0.09164 z"
     id="path34871" /><path
     style="fill:#59422c;fill-opacity:1;stroke-width:0.194559"
     d="m 165.78406,49.769438 c -0.77041,-0.40884 -0.18183,0.43842 0,0 z"
     id="path34869" /><path
     style="fill:#000000;stroke-width:0.194559"
     d="m 33.474837,103.7434 c -0.374527,0.0844 0.278701,0.85281 0,0 z"
     id="path34867" /><path
     style="fill:#5d422e;fill-opacity:1;stroke-width:0.194559"
     d="m 39.762385,148.04209 c -0.461798,-1.02085 -0.168361,1.02769 0,0 z"
     id="path34865" /><path
     style="fill:#59422c;fill-opacity:1;stroke-width:0.194559"
     d="m 130.31704,45.002521 c 6.34653,-7.570476 8.90212,-3.439509 0,0 z"
     id="path34859" /><path
     style="fill:#59422c;fill-opacity:1;stroke-width:0.194559"
     d="m 105.23692,44.098848 c -1.16699,-4.245177 -0.48841,-16.366335 0.47433,-5.064707 0.11165,0.539013 0.54072,9.033913 -0.47433,5.064707 z"
     id="path34857" /><path
     style="fill:#59422c;fill-opacity:1;stroke-width:0.194559"
     d="m 113.82603,50.525457 c 0.41761,-4.728001 9.10033,-13.884875 3.17372,-4.590592 -1.10899,1.301854 -1.55657,4.004462 -3.17372,4.590592 z"
     id="path34855" /><path
     style="fill:#59422c;fill-opacity:1;stroke-width:0.194559"
     d="M 91.296221,50.540787 C 89.362092,46.622128 79.081038,34.60106 87.370312,42.711642 c 1.486794,1.89899 4.599938,6.340054 3.925909,7.829145 z"
     id="path34853" /><path
     style="fill:#59422c;fill-opacity:1;stroke-width:0.194559"
     d="m 79.447245,55.830836 c -3.218573,-1.805361 -9.938939,-4.941063 -2.158655,-2.702464 -0.138706,-0.767628 4.655927,3.785181 2.158655,2.702464 z"
     id="path34851" /><path
     style="fill:#59422c;fill-opacity:1;stroke-width:0.194559"
     d="m 126.84233,56.914889 c 2.15163,-5.119585 10.13827,-7.839322 2.39544,-1.628983 -0.81882,-0.02538 -1.41976,2.440941 -2.39544,1.628983 z"
     id="path34849" /><path
     style="fill:#59422c;fill-opacity:1;stroke-width:0.194559"
     d="m 101.77783,58.5065 c -1.35041,-3.611787 -5.894247,-19.515569 -1.41203,-8.223944 0.23476,2.192281 2.775,6.674186 1.41203,8.223944 z"
     id="path34847" /><path
     style="fill:#59422c;fill-opacity:1;stroke-width:0.194559"
     d="m 111.74929,67.212224 c -0.21981,-5.087709 9.16645,-14.689971 2.81753,-4.741562 -0.95702,0.573024 -1.7983,5.523189 -2.81753,4.741562 z"
     id="path34845" /><path
     style="fill:#59422c;fill-opacity:1;stroke-width:0.194559"
     d="m 98.182466,68.52425 c -2.567692,-3.861862 -4.0587,-11.325964 -0.282262,-3.055607 -0.730527,-0.665797 1.920969,3.754343 0.282262,3.055607 z"
     id="path34843" /><path
     style="fill:#59422c;fill-opacity:1;stroke-width:0.194559"
     d="m 128.48138,80.605348 c 1.23633,-8.63792 16.8298,-3.441849 14.20283,-0.108291 -4.56147,-5.877101 -11.11451,-1.36877 -14.20283,0.108291 z"
     id="path34841" /><path
     style="fill:#59422c;fill-opacity:1;stroke-width:0.194559"
     d="M 79.534008,80.728834 C 76.1992,73.975103 67.129614,79.541004 65.373556,80.179898 c 1.895233,-8.02804 18.265947,-3.081309 14.160452,0.548936 z"
     id="path34839" /><path
     style="fill:#5f442f;fill-opacity:1;stroke-width:0.194559"
     d="m 134.80456,136.87018 c -11.68396,-2.88615 -7.36222,-23.23936 4.69966,-19.75887 10.26347,3.18095 7.38277,21.32197 -3.74204,19.85433 l -0.95762,-0.0954 z"
     id="path34835" /><path
     style="fill:#5f442f;fill-opacity:1;stroke-width:0.194559"
     d="m 70.288232,136.79436 c -13.887429,-3.95185 -3.548702,-27.55507 8.08443,-17.74365 7.078704,6.12213 1.905362,20.22599 -8.08443,17.74365 z"
     id="path34831" /><path
     style="fill:#563a2f;fill-opacity:1;stroke-width:0.194559"
     d="m 156.12204,149.13062 c -4.41274,-10.76283 4.68916,-2.3819 0,0 z"
     id="path34829" /><path
     style="fill:#5d422e;fill-opacity:1;stroke-width:0.194559"
     d="m 152.41951,149.4127 c -4.2724,-9.92237 4.79721,-3.6148 0,0 z"
     id="path34827" /><path
     style="fill:#5d422e;fill-opacity:1;stroke-width:0.194559"
     d="m 55.524716,149.4077 c -0.762969,-10.41053 5.129556,-2.53814 0,0 z"
     id="path34825" /><path
     style="fill:#5d422e;fill-opacity:1;stroke-width:0.194559"
     d="m 51.741676,149.3901 c -1.579169,-7.07254 6.068007,-6.96494 0,0 z"
     id="path34823" /><path
     style="fill:#5f4630;fill-opacity:1;stroke-width:0.194559"
     d="m 101.14581,172.45526 c -9.015501,-2.06091 -16.407837,-6.08708 -25.584538,-6.961 -8.179304,-3.65127 -10.018236,-17.55489 -2.699021,-22.5726 0.215517,5.50738 9.076482,15.88351 8.936036,4.43946 3.504489,-12.25165 16.941863,-23.98163 30.099563,-18.11445 9.88464,3.76724 15.59809,14.04746 17.55266,23.73804 7.02521,1.25036 5.88083,-17.2574 10.95672,-5.84261 5.30309,10.37705 -4.9109,22.18786 -15.86802,20.21697 -5.97984,1.57958 -12.30487,6.3588 -19.46391,5.29492 -1.3113,0.002 -2.62888,-0.0183 -3.92949,-0.19873 z"
     id="path34811" /><path
     style="fill:#fefefe;fill-opacity:1;stroke-width:0.194559"
     d="m 128.34684,164.8555 c 9.52648,1.10596 14.27785,-15.37183 8.88971,-17.89299 -0.38014,8.76433 -11.1908,6.69471 -10.89011,15.983 -3.24321,2.79892 -0.0112,2.15695 2.0004,1.90999 z"
     id="path34821" /><path
     style="fill:#fefefe;fill-opacity:1;stroke-width:0.194559"
     d="m 84.900123,164.68793 c -3.268941,-5.29337 -3.850646,-10.45836 -10.327438,-12.37717 -1.499336,-5.10881 -3.216047,-8.58303 -3.965795,-1.08462 -1.253324,7.80047 6.873723,15.30466 14.293233,13.46179 z"
     id="path34819" /><path
     style="fill:#d6988b;fill-opacity:1;stroke-width:0.194559"
     d="m 109.03057,170.12241 c 11.27144,-0.3427 21.6582,-11.90599 16.32636,-23.09967 -3.43595,-10.31251 -14.42818,-20.31131 -25.864865,-15.88289 -11.565664,4.18487 -21.125659,19.80249 -13.384099,31.09533 5.357187,6.7336 14.713814,8.80371 22.922604,7.88723 z"
     id="path34813" /><path
     style="fill:#5f442f;fill-opacity:1;stroke-width:0.194559"
     d="m 111.42769,158.15044 c -10.53322,-6.87278 6.03477,-21.49779 5.86654,-6.80086 0.42647,3.23676 -1.82752,8.45883 -5.86654,6.80086 z"
     id="path34817" /><path
     style="fill:#5f442f;fill-opacity:1;stroke-width:0.194559"
     d="m 95.480875,158.17184 c -10.302652,-6.17683 5.010415,-22.4594 5.837445,-6.82225 0.30418,3.08576 -1.920227,8.36017 -5.837445,6.82225 z"
     id="path34815" /><path
     style="fill:#ffffff;fill-opacity:1;stroke-width:0.194559"
     d="m 135.54949,122.97039 c 6.95786,-9.16615 -10.60014,-2.63534 0,0 z"
     id="path34837" /><path
     style="fill:#ffffff;fill-opacity:1;stroke-width:0.194559"
     d="m 71.818522,122.6527 c 4.778648,-10.01766 -11.016008,-0.37088 0,0 z"
     id="path34833" /></g></svg>
