<?xml version="1.0" encoding="UTF-8" standalone="no"?>
<!-- Created with Inkscape (http://www.inkscape.org/) -->

<svg
   width="256"
   height="256"
   viewBox="0 0 67.733332 67.733333"
   version="1.1"
   id="svg44569"
   xml:space="preserve"
   xmlns="http://www.w3.org/2000/svg"
   xmlns:svg="http://www.w3.org/2000/svg">
   
    <style>
#squirrel-head {
  transform-origin: 50% 100%;
  animation:cow-head 3s cubic-bezier(0.55, 0.09, 0.68, 0.53) infinite;
} @keyframes cow-head {
  0% {transform: rotate(0deg);}
  25% {transform: rotate(-2deg);}
  75% {transform: rotate(2deg);}
  100% {transform: rotate(0deg);}
}
#squirrel-tail {
  transform-origin: 0% 50%;
  animation:cow-tail 2s cubic-bezier(0.55, 0.09, 0.68, 0.53) infinite;
} @keyframes cow-tail {
  0% {transform: rotate(0deg);}
  25% {transform: rotate(3deg);}
  50% {transform: rotate(-2deg);}
  100% {transform: rotate(0deg);}
}
   </style>

   <defs
     id="defs44566" /><g
     id="layer1"><g
       id="squirrel-tail"><path
         style="fill:#68452f;fill-opacity:1;stroke:none;stroke-width:0.430939;stroke-linecap:round;stroke-dasharray:none;stroke-opacity:1"
         d="m 48.08708,51.302297 c 0.2321,-2.64198 2.593608,-9.13884 4.42452,-11.084719 1.515936,-1.611124 3.595081,-2.958225 5.502846,-3.307426 2.437668,-0.446197 6.736606,0.82138 7.294846,6.268188 0.299855,2.925734 -2.136174,7.281478 -4.608121,9.639562 -3.196239,3.049023 -13.746515,11.374752 -13.336449,6.706959 z"
         id="path45771" /><g
         id="g45781"
         transform="matrix(0.38611136,0.03318767,-0.03318767,0.38611136,92.264166,18.725766)"
         style="fill:#805a47;fill-opacity:1"><path
           style="fill:#805a47;fill-opacity:1;stroke-width:0.211667"
           d="m -67.788865,70.624567 c -0.59729,-4.565847 -3.16551,-8.414078 -6.75518,-10.121995 -0.935078,-0.444896 -2.125708,-0.906965 -2.645838,-1.026821 -1.35738,-0.312784 -4.51891,-0.271094 -6.18291,0.08153 -2.21839,0.47011 -2.21469,0.464166 -1.19682,1.923764 0.48286,0.692415 0.96124,1.290686 1.06307,1.329491 0.10182,0.03881 0.18513,0.153268 0.18513,0.25436 0,0.101094 0.68293,1.355219 1.51762,2.786945 0.83468,1.431728 1.83695,3.292098 2.22726,4.134159 l 0.70965,1.531021 5.445648,0.06021 c 2.99511,0.03312 5.52038,0.08235 5.6117,0.109398 0.0913,0.02705 0.10062,-0.45088 0.0207,-1.062067 z"
           id="path45693" /><path
           style="fill:#805a47;fill-opacity:1;stroke-width:0.211667"
           d="m -93.269744,73.54262 c 0.40746,-0.07139 1.12183,-0.215011 1.5875,-0.319157 2.09206,-0.467887 3.69543,-0.708518 7.831671,-1.175362 1.62983,-0.183953 3.04535,-0.356811 3.14559,-0.384126 0.19139,-0.05215 -1.65662,-3.725954 -2.78541,-5.537325 -0.36273,-0.582083 -0.99788,-1.640601 -1.41144,-2.35226 -0.41355,-0.711659 -1.03823,-1.689161 -1.38816,-2.172229 l -0.63624,-0.878305 -0.896341,0.455352 c -1.07648,0.546867 -3.1536,2.030284 -4.18022,2.985383 -1.62347,1.510377 -4.65362,5.477578 -4.65362,6.092725 0,0.130933 0.27178,0.636222 0.60396,1.122862 0.33217,0.486643 0.77288,1.244577 0.97934,1.6843 0.25792,0.549302 0.48291,0.769522 0.71896,0.703717 0.18897,-0.05268 0.67695,-0.154184 1.08441,-0.225575 z"
           id="path45695" /><path
           style="fill:#805a47;fill-opacity:1;stroke-width:0.211667"
           d="m -97.563394,74.57008 c 0.55705,-0.187406 1.04459,-0.369989 1.08342,-0.405742 0.15017,-0.138265 -0.80037,-2.005188 -1.02094,-2.005188 -0.23921,0 -1.26638,2.011392 -1.27009,2.487083 -0.003,0.332668 -0.009,0.333053 1.20761,-0.07615 z"
           id="path45697" /><path
           style="fill:#805a47;fill-opacity:1;stroke-width:0.211667"
           d="m -72.568145,86.58121 c 1.29856,-1.914527 3.21665,-5.686249 3.77427,-7.421687 0.61886,-1.926052 1.29254,-5.644191 1.06405,-5.872674 -0.25284,-0.252838 -9.873718,-0.368565 -10.120548,-0.121736 -0.13855,0.138552 0.11595,1.108263 0.7498,2.856882 1.19801,3.304959 2.081768,6.519089 2.678858,9.742679 0.5224,2.820304 0.5009,2.810836 1.85357,0.816536 z"
           id="path45705" /><path
           style="fill:#805a47;fill-opacity:1;stroke-width:0.211667"
           d="m -90.888494,92.480009 c 1.84048,-8.47e-4 1.85208,-0.0042 1.85208,-0.536825 0,-0.29478 -0.13801,-0.86628 -0.30669,-1.27 -0.16869,-0.403718 -0.27243,-0.734034 -0.23053,-0.734034 0.0419,0 -0.16362,-0.642938 -0.45668,-1.42875 -0.29307,-0.785813 -0.65486,-1.80975 -0.80398,-2.275417 -0.57188,-1.785923 -1.89724,-4.92012 -3.26419,-7.719128 l -1.42278,-2.913348 -1.25549,0.391871 c -0.69052,0.215528 -1.4516,0.393273 -1.69128,0.394987 -0.80619,0.0058 -1.13062,0.516169 -1.677596,2.639192 -0.52136,2.023594 -0.52939,2.144955 -0.203,3.069166 0.571676,1.618799 1.772756,6.780212 2.041166,8.771536 l 0.25375,1.882612 2.65657,-0.135502 c 1.46111,-0.07453 3.49,-0.135888 4.50865,-0.13636 z"
           id="path45707" /><path
           style="fill:#805a47;fill-opacity:1;stroke-width:0.211667"
           d="m -76.759743,91.949983 c 0.62597,-0.756708 1.21655,-1.375833 1.3124,-1.375833 0.18129,0 0.12685,-0.518086 -0.38922,-3.704167 -0.60599,-3.741157 -2.24225,-9.452093 -3.59905,-12.561483 l -0.49373,-1.131483 -1.00812,0.137012 c -0.55446,0.07536 -1.4037,0.172491 -1.8872,0.215855 -2.53968,0.227783 -9.705731,1.358608 -10.811701,1.706122 -0.18001,0.05656 -0.0483,0.49425 0.42514,1.41296 2.12267,4.118972 5.868151,13.891374 5.868151,15.310701 0,0.490351 0.72695,0.657896 3.59833,0.829329 1.45521,0.08688 3.12208,0.230481 3.70417,0.319113 2.08191,0.316998 2.05176,0.327641 3.28083,-1.158126 z"
           id="path45709" /><path
           style="fill:#805a47;fill-opacity:1;stroke-width:0.211667"
           d="m -84.189873,99.315122 c 0.84274,-0.67815 2.16483,-1.88256 4.23563,-3.858593 l 0.53982,-0.515123 -0.62051,-0.165948 c -1.63118,-0.436245 -6.34217,-0.755589 -6.53536,-0.44301 -0.0544,0.08798 0.0249,0.683292 0.17613,1.322916 0.15124,0.639618 0.43936,1.901138 0.64027,2.803368 0.20091,0.90223 0.41578,1.640418 0.4775,1.640418 0.0617,0 0.55065,-0.352808 1.08652,-0.784028 z"
           id="path45711" /><path
           style="fill:#805a47;fill-opacity:1;stroke-width:0.211667"
           d="m -96.213454,107.8318 c 0.51308,-0.28729 1.21863,-0.68002 1.56788,-0.87273 2.23414,-1.23279 7.725831,-5.25919 7.725831,-5.66444 0,-0.37168 -0.759951,-4.420698 -1.118241,-5.957981 l -0.29599,-1.269999 -3.1558,0.03328 c -1.73569,0.01831 -3.85574,0.09875 -4.71121,0.178761 l -1.5554,0.145482 0.12529,0.773739 c 0.0689,0.425556 0.18679,3.5598 0.26195,6.964988 0.0752,3.40519 0.15603,6.19125 0.17973,6.19125 0.0237,0 0.46288,-0.23506 0.97596,-0.52235 z"
           id="path45713" /></g></g><path
       style="fill:#cf8545;fill-opacity:1;stroke:#65452b;stroke-width:0.895982;stroke-dasharray:none;stroke-opacity:1"
       d="m 29.007548,65.939131 0.373936,-0.05126 0.124555,-0.707508 c 0.0685,-0.389128 0.148402,-0.898535 0.177549,-1.132009 0.05959,-0.477304 0.215562,-0.605213 0.406171,-0.333079 0.143032,0.204204 0.176088,1.401815 0.05075,1.838823 -0.04099,0.142931 -0.05884,0.275573 -0.03965,0.294756 0.05186,0.05185 1.349711,-0.183549 1.522857,-0.276216 0.202088,-0.108153 0.402537,-0.525862 0.744269,-1.550939 0.337512,-1.012415 0.519232,-1.914121 0.636445,-3.158085 0.147868,-1.569288 0.251243,-1.894295 0.540984,-1.700833 0.238407,0.159192 0.313864,0.507621 0.346138,1.598295 l 0.03337,1.12789 h 1.918356 c 1.47547,0 1.920314,-0.02368 1.926844,-0.102534 0.0046,-0.0564 0.0016,-0.548343 -0.007,-1.093213 -0.0176,-1.127905 0.08705,-1.67524 0.320333,-1.67524 0.317143,0 0.443339,0.388503 0.706089,2.173745 0.186888,1.269817 0.574396,2.937814 0.849332,3.655909 0.2333,0.609341 0.233533,0.609597 0.634062,0.711344 0.220372,0.05598 0.681864,0.125476 1.025538,0.154437 l 0.624858,0.05265 -0.04089,-0.78162 c -0.04764,-0.910714 0.01337,-1.336437 0.201828,-1.408762 0.191919,-0.07364 0.242407,0.05205 0.306013,0.76187 0.06756,0.753879 0.196628,1.32704 0.331629,1.472687 0.07405,0.07989 0.510857,0.111033 1.72559,0.123043 l 1.626438,0.01608 0.06748,-0.246084 c 0.03712,-0.135347 0.119248,-0.640014 0.182532,-1.121484 0.151062,-1.149313 0.247283,-1.298328 0.510132,-0.790033 0.10663,0.2062 0.126999,0.413221 0.09532,0.968838 -0.02217,0.388631 -0.08233,0.785165 -0.133723,0.881185 -0.05138,0.09602 -0.0628,0.193511 -0.02535,0.216647 0.06608,0.04084 1.365825,-0.145411 1.654821,-0.237136 0.169887,-0.05392 0.299258,-0.385439 0.688239,-1.763653 1.084714,-3.843309 1.471482,-6.579411 1.478396,-10.458603 0.0048,-2.648011 -0.121501,-4.06526 -0.536934,-6.029075 -0.227235,-1.074159 -1.049918,-3.496718 -1.490309,-4.388511 -0.864757,-1.751135 -2.13159,-3.617627 -3.511497,-5.173672 -0.761731,-0.858962 -2.295905,-2.331913 -2.428841,-2.331913 -0.03989,0 -0.140466,0.193792 -0.223495,0.430648 -0.08303,0.236857 -0.344353,0.82602 -0.58071,1.309251 -1.233656,2.522188 -3.167689,4.658299 -5.50254,6.077478 -1.259036,0.765271 -1.983885,1.104572 -3.805641,1.781419 -0.462159,0.171709 -2.062833,0.589641 -2.832311,0.739509 -2.410007,0.469388 -4.369128,0.605147 -7.886784,0.546524 -4.219482,-0.07032 -6.412108,-0.402735 -9.214584,-1.396983 C 10.967667,44.392352 9.6722163,43.741106 8.498237,42.912665 8.3065696,42.777413 8.1327834,42.68372 8.1120423,42.704461 c -0.089148,0.08915 -0.7271047,2.928059 -0.9815759,4.367999 -0.7079096,4.005804 -0.9040766,6.939963 -0.6670131,9.97685 0.1160278,1.486345 0.3435342,3.338948 0.4885577,3.97837 0.020464,0.09023 0.096352,0.440902 0.1686393,0.779266 0.1911172,0.894594 0.6006637,2.370684 0.7581197,2.732425 0.1526846,0.350777 0.2866866,0.442006 0.8821381,0.600583 0.7790147,0.207458 0.763246,0.220627 0.7956402,-0.664294 0.020152,-0.550548 0.064225,-0.812223 0.151468,-0.899341 0.2384078,-0.238082 0.3554587,0.01538 0.4518897,0.978576 0.07716,0.770753 0.113636,0.837808 0.483259,0.888471 0.190582,0.02612 0.979739,0.0732 1.753689,0.104615 l 1.407182,0.05712 0.07693,-0.202329 c 0.06848,-0.180096 0.104743,-0.41896 0.22124,-1.457097 0.04282,-0.381524 0.162273,-0.488379 0.343531,-0.307296 0.117911,0.117795 0.142965,0.294791 0.142965,1.01008 v 0.86726 l 0.429098,-0.05031 c 0.236005,-0.02767 0.657252,-0.135622 0.936103,-0.239907 l 0.507004,-0.189606 0.220934,-0.620652 c 0.352548,-0.990389 0.637704,-2.167686 0.771106,-3.183577 0.230583,-1.755949 0.29305,-1.982525 0.560817,-2.034094 0.246713,-0.04752 0.338128,0.359989 0.346154,1.542998 l 0.0075,1.107381 h 1.432778 1.432779 v -1.151851 c 0,-0.97407 0.02294,-1.186904 0.148729,-1.378989 0.08625,-0.131731 0.206851,-0.21595 0.287098,-0.200499 0.190651,0.0367 0.302532,0.419359 0.678709,2.321195 0.357377,1.80682 0.614347,2.699356 1.005673,3.493051 0.25501,0.517212 0.264895,0.525932 0.709766,0.626101 0.248136,0.05587 0.599638,0.122771 0.781112,0.148671 l 0.329955,0.04708 -0.0019,-0.994751 c -0.0016,-0.892006 0.01465,-1.006852 0.157804,-1.111901 0.08781,-0.06443 0.18621,-0.08932 0.218678,-0.05532 0.03248,0.03399 0.117071,0.449413 0.188009,0.923124 0.214582,1.432915 0.161649,1.349683 0.874888,1.375687 0.335218,0.01221 0.646397,0.03701 0.691513,0.05505 0.133963,0.05361 1.3008,0.04986 1.704503,-0.0055 z"
       id="path45715" /><g
       id="squirrel-head"><path
         style="opacity:1;fill:#af6638;fill-opacity:1;stroke:none;stroke-width:0.65881;stroke-linecap:round;stroke-dasharray:none;stroke-opacity:1"
         d="m 8.5702791,43.095142 c 0.6440042,1.552147 1.3190482,3.027013 4.7576679,4.226972 3.630018,1.26675 6.335355,1.894295 10.303572,1.757702 4.580401,-0.157666 10.417276,-1.709299 13.687228,-3.75768 2.520343,-1.578807 4.282581,-3.820754 5.162577,-6.782209 l -2.328222,-6.07362 z"
         id="path62252" /><path
         style="fill:#ffd5a6;fill-opacity:1;stroke:#68452f;stroke-width:0.857226;stroke-dasharray:none;stroke-opacity:1"
         d="m 26.53187,46.56368 c 3.826819,-0.254054 6.925914,-1.103947 9.456711,-2.593402 1.622419,-0.954843 2.611378,-1.797528 3.713644,-3.164368 0.963013,-1.194158 0.965992,-1.058555 -0.03375,-1.534794 -2.008036,-0.956547 -5.294965,-1.884949 -8.132876,-2.297153 -1.165465,-0.169282 -3.383197,-0.379985 -4.613206,-0.438292 l -0.675849,-0.03204 0.05142,0.437485 c 0.04513,0.384002 0.01961,0.502109 -0.208819,0.966098 -0.37842,0.768687 -1.109509,1.267775 -2.136992,1.458856 -1.18954,0.221219 -3.160523,-0.7877 -3.332802,-1.706012 -0.03058,-0.162997 -0.03348,-0.483105 -0.0065,-0.711353 l 0.04915,-0.414994 -1.125487,0.05588 c -2.033028,0.100947 -4.887998,0.45045 -6.448804,0.789458 -1.328256,0.288497 -3.5350861,0.918264 -4.7368323,1.351759 -0.4979124,0.179605 -1.7846488,0.749378 -1.8636948,0.825247 -0.016354,0.01571 0.1482943,0.296373 0.3659029,0.623704 0.3769826,0.567061 1.7527202,2.030883 2.4528061,2.60985 0.8700431,0.71952 2.7726621,1.809087 4.0193851,2.30177 0.991482,0.391815 3.459797,1.015595 4.839666,1.223055 0.58069,0.08731 2.035776,0.232772 2.788961,0.278818 1.023519,0.06257 4.464722,0.04432 5.57792,-0.02958 z"
         id="path45669" /><path
         style="opacity:1;fill:#cf8545;fill-opacity:1;stroke:#68452f;stroke-width:0.857226;stroke-dasharray:none;stroke-opacity:1"
         d="m 41.31451,38.197939 c 0.855271,-1.720237 1.464793,-3.936363 1.793311,-6.520191 0.234059,-1.840902 0.199956,-4.779675 -0.08072,-6.955716 -0.381098,-2.954649 -1.066939,-5.997059 -1.941392,-8.612043 -0.669214,-2.001248 -0.987505,-2.78752 -1.650814,-4.078007 C 37.687031,8.6314554 35.649,6.6717707 32.560946,5.4222774 31.372586,4.9414405 30.886349,4.7882839 29.607929,4.4921247 27.666677,4.0424136 26.657687,3.9522134 23.61987,3.9568131 20.524398,3.9614931 19.635009,4.0402611 17.549776,4.494355 16.476165,4.7281519 15.94296,4.8957988 14.712989,5.3862801 13.269755,5.9618047 12.462619,6.4180895 11.315632,7.3068552 10.57837,7.8781377 10.497329,7.9556412 9.7628452,8.7918672 8.1394302,10.640167 6.96728,12.827286 5.8502533,16.092381 5.4576724,17.239908 4.5641445,20.922644 4.3078327,22.44957 c -0.6837706,4.073466 -0.6979664,8.074419 -0.040304,11.360912 0.2008475,1.003689 0.7494769,2.819654 1.1027968,3.650257 0.3333305,0.783615 0.6718967,1.452238 0.764269,1.509327 0.039537,0.02443 0.4989984,-0.13618 1.0210194,-0.356925 3.4453641,-1.456922 7.8052811,-2.359214 12.6604091,-2.620092 1.147599,-0.06166 1.354136,-0.09395 1.558534,-0.24366 0.129592,-0.09492 0.463632,-0.264674 0.742311,-0.377237 0.452448,-0.182753 0.606109,-0.202357 1.435493,-0.183132 0.782677,0.01814 1.002723,0.05395 1.398629,0.227554 0.258401,0.113313 0.570943,0.287391 0.69454,0.38684 0.174178,0.140154 0.332548,0.180816 0.704214,0.180816 1.223719,0 4.653206,0.330955 5.924108,0.571692 0.225576,0.04273 0.557791,0.09829 0.738255,0.123476 0.561933,0.07842 3.566213,0.845543 4.470537,1.141528 0.473716,0.155047 1.378075,0.504082 2.009692,0.775634 0.63162,0.271553 1.203765,0.486508 1.27144,0.477678 0.06767,-0.0088 0.315504,-0.403165 0.550738,-0.876299 z"
         id="path45671" /><path
         style="fill:#c97f44;fill-opacity:1;stroke:#68452f;stroke-width:0.65881;stroke-dasharray:none;stroke-opacity:1"
         d="m 39.885141,11.231542 c 1.930335,-0.514109 3.026873,-1.9205834 3.239824,-4.1555563 0.100918,-1.0591576 0.035,-1.9185465 -0.21106,-2.7521006 -0.252676,-0.8559406 -0.553748,-1.2685266 -1.132179,-1.551527 -0.515813,-0.252363 -0.772931,-0.2358852 -1.331888,0.085356 -0.400781,0.2303337 -1.169589,1.0528458 -1.481015,1.5844685 -0.592368,1.0111997 -1.728771,2.6199896 -2.245348,3.1787127 -0.212505,0.2298407 -0.226758,0.2784211 -0.137474,0.4685347 0.05479,0.1166595 0.173441,0.2531743 0.263671,0.303366 0.177328,0.098641 1.283547,1.3822765 1.503195,1.7442754 0.07389,0.121784 0.182645,0.221425 0.241666,0.221425 0.37351,0 1.551597,-0.9612625 2.109455,-1.7212136 C 41.06801,8.141383 41.587741,7.2142026 41.900261,6.503169 l 0.234351,-0.5331836 0.0023,0.369127 c 0.0048,0.7726541 -0.217675,1.7217389 -0.596231,2.5428754 -0.276122,0.5989403 -1.241882,1.5063102 -1.972572,1.8533142 -0.553598,0.262902 -0.614216,0.3136 -0.540235,0.451832 0.09807,0.183243 0.297223,0.19356 0.857246,0.04441 z"
         id="path45673" /><path
         style="fill:#c97f44;fill-opacity:1;stroke:#68452f;stroke-width:0.65881;stroke-dasharray:none;stroke-opacity:1"
         d="m 7.8203841,11.458066 c 0.050355,-0.0941 0.079341,-0.177148 0.06441,-0.184563 -0.01492,-0.0074 -0.3040567,-0.150804 -0.6424909,-0.318642 C 6.5726775,10.622778 5.8056991,9.9345106 5.4702718,9.3646888 5.1231451,8.774989 4.8633147,7.8917414 4.7978945,7.0790848 4.7638655,6.6561737 4.7647244,6.3279007 4.799811,6.3495894 c 0.035108,0.021692 0.063806,0.076587 0.063806,0.1219967 0,0.1850845 0.5744862,1.3053299 1.0043435,1.958461 0.4763892,0.7238275 0.9468492,1.2539709 1.5053295,1.6962969 0.3377911,0.267536 0.9127847,0.574272 0.9610095,0.512659 0.015155,-0.01936 0.2080792,-0.27514 0.428711,-0.568391 C 8.9836459,9.7773606 9.453873,9.2331974 9.8079673,8.8613603 10.380845,8.2597738 10.439913,8.1690612 10.344118,8.0379524 10.284911,7.9569153 9.9573817,7.5228916 9.6162772,7.0734559 9.2751727,6.6240194 8.7124292,5.8248676 8.3657363,5.2975628 7.3049369,3.6841356 6.3891297,2.8547225 5.6664274,2.8528961 5.1986335,2.8516894 4.6319795,3.3821821 4.2652745,4.1645778 3.8618084,5.025407 3.7618162,5.530143 3.769637,6.6664399 c 0.00603,0.8786372 0.034838,1.0678352 0.2680111,1.7618951 0.331118,0.985558 0.6411152,1.5262502 1.1787345,2.05594 0.9129161,0.899449 2.3551514,1.438786 2.6040108,0.973791 z"
         id="path45675" /><path
         style="fill:#c6c8c7;fill-opacity:1;stroke-width:0.0820287"
         d="m 24.440149,36.885694 c 0.746439,-0.111472 1.014912,-0.166254 1.06452,-0.217212 0.08411,-0.0864 -0.529125,-0.520022 -0.936765,-0.662399 -0.601644,-0.210135 -1.742706,-0.185167 -2.356217,0.05156 -0.546056,0.2107 -0.932808,0.489399 -0.826569,0.595638 0.253235,0.253235 2.017085,0.387422 3.055031,0.232413 z"
         id="path45677" /><path
         style="fill:#7f7b7b;fill-opacity:1;stroke-width:0.0820287"
         d="m 24.786462,38.385877 c 0.452905,-0.252837 0.995581,-0.920372 0.947012,-1.164901 -0.03101,-0.156064 -0.279975,-0.157897 -1.37535,-0.01012 -0.830252,0.112007 -1.801279,0.0787 -2.61692,-0.08977 -0.272588,-0.0563 -0.519525,-0.07846 -0.548749,-0.04923 -0.197996,0.197998 0.420312,1.019589 0.986323,1.310599 0.501501,0.257843 0.760669,0.30513 1.500303,0.273746 0.561883,-0.02384 0.746671,-0.06895 1.107381,-0.270316 z"
         id="path45679" /><path
         style="fill:#63412c;fill-opacity:1;stroke-width:0.0820287"
         d="m 30.346184,19.164927 c 0,-0.326641 0.620563,-1.000052 1.187786,-1.288942 0.627993,-0.31984 1.402474,-0.300459 2.056211,0.05146 0.727605,0.391677 1.267557,0.928091 1.267557,1.259253 0,0.222174 -0.13394,0.176938 -0.514511,-0.173769 -0.592746,-0.546236 -1.06097,-0.746793 -1.743466,-0.746793 -0.747349,0 -1.047758,0.125635 -1.663482,0.695686 -0.268938,0.24899 -0.511732,0.452709 -0.539538,0.452709 -0.02782,0 -0.05056,-0.112319 -0.05056,-0.249598 z"
         id="path45681" /><path
         style="fill:#63412c;fill-opacity:1;stroke-width:0.0820287"
         d="m 15.932438,18.924105 c -0.566421,-0.538373 -0.860169,-0.65725 -1.622776,-0.656717 -0.597978,4.27e-4 -1.147945,0.238928 -1.678298,0.727847 -0.201212,0.185494 -0.395003,0.337262 -0.430648,0.337262 -0.03566,0 -0.0648,-0.0997 -0.0648,-0.221553 0,-0.330734 0.812975,-1.085098 1.394482,-1.293945 0.980305,-0.352077 1.839401,-0.144521 2.632286,0.635956 0.327649,0.32252 0.402757,0.44915 0.402757,0.679013 0,0.155407 -0.02767,0.281272 -0.06152,0.2797 -0.03383,-0.0016 -0.291,-0.220975 -0.571479,-0.487563 z"
         id="path45683" /><path
         style="fill:#67442d;fill-opacity:1;stroke-width:0.0820287"
         d="m 32.068246,35.333391 c -0.637561,-0.193937 -1.229049,-0.731745 -1.591033,-1.446637 -0.279483,-0.551962 -0.357862,-1.052949 -0.28011,-1.790463 0.109145,-1.035318 0.649725,-1.850457 1.507096,-2.272539 1.263132,-0.621836 2.709094,-0.124999 3.356933,1.153452 0.439058,0.866439 0.438899,2.111025 -3.87e-4,3.008889 -0.26135,0.534179 -0.89895,1.120065 -1.407508,1.293349 -0.396557,0.13512 -1.225405,0.163331 -1.584996,0.05395 z"
         id="path45687" /><path
         style="fill:#fefefc;fill-opacity:1;stroke-width:0.0820287"
         d="m 32.573286,31.302018 c 0.09108,-0.04874 0.218926,-0.216239 0.28409,-0.372206 0.104723,-0.250632 0.103456,-0.315249 -0.01089,-0.556229 -0.228336,-0.481186 -0.696319,-0.58635 -1.099518,-0.24708 -0.67159,0.565106 0.04967,1.591165 0.826325,1.175515 z"
         id="path45685" /><path
         style="fill:#67442d;fill-opacity:1;stroke-width:0.0820287"
         d="m 13.223126,35.208091 c -0.521839,-0.242952 -1.009622,-0.750299 -1.30428,-1.356594 -0.169872,-0.349537 -0.227739,-0.61133 -0.256897,-1.162282 -0.04534,-0.856535 0.106262,-1.424579 0.549505,-2.059023 0.836987,-1.198041 2.455608,-1.437418 3.613842,-0.534451 0.353304,0.275437 0.741234,0.903909 0.918807,1.488524 0.334105,1.099968 0.06075,2.253055 -0.736053,3.104904 -0.672513,0.718972 -1.874263,0.942897 -2.784924,0.518922 z"
         id="path45691" /><path
         style="fill:#fefefc;fill-opacity:1;stroke-width:0.0820287"
         d="m 14.149335,31.189307 c 0.304072,-0.304073 0.281056,-0.783366 -0.05104,-1.062804 -0.138808,-0.116799 -0.338997,-0.212363 -0.44486,-0.212363 -0.105866,0 -0.306055,0.09556 -0.444863,0.212363 -0.20351,0.171243 -0.252378,0.275203 -0.252378,0.536913 0,0.655549 0.738138,0.980892 1.193139,0.525891 z"
         id="path45689" /><path
         style="fill:#68452f;fill-opacity:1;stroke-width:0.0820287"
         d="M 21.792072,45.988416 C 20.859299,45.755995 20.38258,45.133161 19.929249,43.554641 l -0.193399,-0.673429 -0.580361,-0.02381 c -0.518568,-0.02127 -0.582984,-0.04221 -0.605023,-0.196561 -0.02345,-0.164225 0.01907,-0.174958 0.861296,-0.217459 1.335911,-0.06741 2.497408,-0.473132 3.607591,-1.260158 0.278781,-0.197629 0.574083,-0.359228 0.656229,-0.359108 0.08215,8.3e-5 0.441313,0.189298 0.798151,0.420394 1.40695,0.911177 2.715466,1.352439 3.803467,1.282616 0.477307,-0.03063 0.616351,-0.01386 0.651833,0.0786 0.09854,0.256784 -0.179041,0.367692 -0.951104,0.380016 l -0.745636,0.0119 -0.08915,0.451156 c -0.164035,0.830172 -0.436008,1.584852 -0.692594,1.921823 -0.272934,0.358438 -0.490116,0.492321 -0.944036,0.581947 -0.465414,0.0919 -3.376736,0.119991 -3.714446,0.03585 z"
         id="path45699" /><path
         style="fill:#ffffff;fill-opacity:1;stroke-width:0.0820287"
         d="m 25.689,45.271866 c 0.45282,-0.200304 0.576378,-0.408081 0.801779,-1.348293 0.240392,-1.002733 0.24262,-0.994275 -0.307528,-1.167645 -0.514414,-0.162109 -1.156304,-0.459061 -1.761157,-0.814749 -0.212947,-0.125227 -0.425196,-0.204189 -0.471661,-0.175473 -0.05392,0.03333 -0.08448,0.722235 -0.08448,1.904385 v 1.852172 l 0.721486,-0.04113 c 0.472525,-0.02695 0.852643,-0.09915 1.10156,-0.20926 z"
         id="path45701" /><path
         style="fill:#ffffff;fill-opacity:1;stroke-width:0.0820287"
         d="m 23.45581,43.612858 c 0,-1.037657 -0.02251,-1.886649 -0.05003,-1.886649 -0.02751,0 -0.258226,0.107876 -0.512678,0.239725 -0.982781,0.509253 -1.725647,0.810343 -2.32878,0.94388 -0.124065,0.02747 -0.225576,0.101086 -0.225576,0.163593 0,0.200025 0.62995,1.68691 0.789293,1.862979 0.342677,0.378656 0.853976,0.542314 1.733076,0.554725 l 0.594703,0.0084 z"
         id="path45703" /><path
         style="opacity:1;fill:#df9d58;fill-opacity:1;stroke:none;stroke-width:0.90993;stroke-linecap:round;stroke-dasharray:none;stroke-opacity:1"
         id="path61437"
         d="M 27.748997,12.286185 A 9.2537804,2.1120641 0 0 1 19.381128,14.579716 9.2537804,2.1120641 0 0 1 9.3193771,12.67339 9.2537804,2.1120641 0 0 1 17.656213,10.373979 9.2537804,2.1120641 0 0 1 27.743677,12.273214 l -9.210798,0.20333 z"
         transform="matrix(0.98912227,-0.14709569,0.11827946,0.99298035,0,0)" /></g></g></svg>
