<?xml version="1.0" encoding="UTF-8" standalone="no"?>
<!-- Created with Inkscape (http://www.inkscape.org/) -->

<svg
   width="256mm"
   height="256mm"
   viewBox="0 0 256 256"
   version="1.1"
   id="svg5"
   xml:space="preserve"
   xmlns:xlink="http://www.w3.org/1999/xlink"
   xmlns="http://www.w3.org/2000/svg"
   xmlns:svg="http://www.w3.org/2000/svg">
   
   <style
   id="style182">
#zebra-head {
  transform-origin: 50% 100%;
  animation:cow-head 3s cubic-bezier(0.55, 0.09, 0.68, 0.53) infinite;
} @keyframes cow-head {
  0% {transform: rotate(0deg);}
  25% {transform: rotate(-2deg);}
  75% {transform: rotate(2deg);}
  100% {transform: rotate(0deg);}
}
#zebra-tail {
  transform-origin: 0% 95%;
  animation:cow-tail 2s cubic-bezier(0.55, 0.09, 0.68, 0.53) infinite;
} @keyframes cow-tail {
  0% {transform: rotate(0deg);}
  25% {transform: rotate(1deg);}
  50% {transform: rotate(-1deg);}
  100% {transform: rotate(0deg);}
}
#zebra-eye {
  transform-origin: 0% 50%;
  animation:zebra-eye 5s cubic-bezier(0.55, 0.09, 0.68, 0.53) infinite;
} @keyframes zebra-eye {
  0% {transform: scaleY(1);}
  65% {transform: scaleY(1);}
  75% {transform: scaleY(0);}
  85% {transform: scaleY(1);}
  95% {transform: scaleY(0);}
  100% {transform: scaleY(1);}
}
   </style>

   <defs
   id="defs2"><linearGradient
     id="linearGradient16796"><stop
       style="stop-color:#f9f9f9;stop-opacity:1;"
       offset="0"
       id="stop16792" /><stop
       style="stop-color:#d7d6d4;stop-opacity:1;"
       offset="1"
       id="stop16794" /></linearGradient><linearGradient
     id="linearGradient14339"><stop
       style="stop-color:#fdfffe;stop-opacity:1;"
       offset="0"
       id="stop14335" /><stop
       style="stop-color:#d7d6d4;stop-opacity:1;"
       offset="1"
       id="stop14337" /></linearGradient><linearGradient
     xlink:href="#linearGradient14339"
     id="linearGradient14341"
     x1="113.47334"
     y1="48.612648"
     x2="116.88749"
     y2="114.01318"
     gradientUnits="userSpaceOnUse" /><linearGradient
     xlink:href="#linearGradient16796"
     id="linearGradient16798"
     x1="108.81512"
     y1="167.12161"
     x2="173.0085"
     y2="208.23051"
     gradientUnits="userSpaceOnUse" /></defs><g
   id="zebra-tail"><path
     id="path30754"
     style="fill:#5f442f;stroke-width:0.168812;fill-opacity:1"
     d="M 198.58271 169.67285 L 201.22028 179.68361 C 201.34424 179.63388 201.53776 179.67551 201.813 179.77146 C 202.71558 180.0861 205.75395 180.00292 207.35323 179.61953 C 211.93408 178.52138 215.83912 175.07521 218.17273 170.07127 C 218.55864 169.24374 218.96324 168.22463 219.0719 167.80681 C 219.30566 166.90808 219.42188 166.76993 220.20103 166.46219 C 221.43677 165.97412 222.63312 164.89516 223.29593 163.67115 C 223.61309 163.08543 223.6618 162.72716 223.6618 160.97002 C 223.6618 159.16205 223.61053 158.80821 223.18689 157.67823 C 222.1885 155.01515 220.53798 152.7308 218.20529 150.78408 C 217.0191 149.79416 215.56286 148.89996 215.13726 148.89996 C 215.01856 148.89996 214.99466 149.25593 215.06646 149.95674 C 215.2037 151.29623 214.86299 152.45039 213.5079 155.23549 C 211.82518 158.69407 211.87331 158.52901 211.87131 160.88579 C 211.86985 162.67848 211.92373 163.11571 212.22891 163.79259 C 212.66852 164.76762 213.81903 166.04784 214.38278 166.18934 C 215.26605 166.41102 214.67251 167.48079 212.51984 169.54624 C 211.71897 170.31469 209.68478 171.54994 208.38418 172.05771 C 207.01219 172.59334 204.49766 172.5885 202.91991 172.04686 C 201.37085 171.51507 199.62398 170.52958 198.58271 169.67285 z " /><path
     style="fill:#e5e6e4;stroke-width:0.168812;fill-opacity:1"
     d="m 207.20293,177.07031 c 4.42305,-1.22027 7.83395,-4.11249 9.77172,-8.28577 0.55215,-1.18913 0.63163,-1.56764 0.36389,-1.73312 -0.24377,-0.15066 -0.85093,0.28976 -0.85093,0.61725 0,0.15788 -0.0687,0.32952 -0.15271,0.38142 -0.084,0.0519 -0.38715,0.50981 -0.67369,1.01755 -0.77876,1.37987 -3.25179,3.79907 -4.54795,4.44895 -0.58829,0.29496 -1.21053,0.5363 -1.38274,0.5363 -0.1722,0 -0.35315,0.0648 -0.40211,0.14402 -0.19068,0.30852 -2.65175,0.581 -4.28482,0.47438 -1.96709,-0.12841 -5.09958,-1.0434 -5.09958,-1.48956 0,-0.0779 -0.15193,-0.14171 -0.33763,-0.14171 -0.40379,0 -0.44799,0.47381 -0.10705,1.14786 0.1268,0.25072 0.32335,0.87367 0.43677,1.38432 0.11341,0.51065 0.2412,1.05678 0.28398,1.2136 0.0512,0.18778 0.3776,0.34571 0.95593,0.46257 0.48298,0.0976 1.03008,0.21236 1.21578,0.25503 0.70565,0.16215 3.59703,-0.0981 4.81114,-0.43309 z"
     id="path30964" /></g><path
   id="path12791"
   style="fill:#5f442f;stroke-width:0.168812;fill-opacity:1"
   d="M 180.5497 142.98094 C 180.27669 143.28953 180.00526 143.60447 179.73115 143.90853 C 179.10367 144.60456 178.47346 145.28875 177.84031 145.96112 C 177.20716 146.63349 176.5711 147.2941 175.93241 147.94291 C 175.29372 148.59172 174.6526 149.22907 174.0085 149.85442 C 173.3644 150.47977 172.71743 151.09313 172.06805 151.69513 C 171.41867 152.29713 170.76663 152.88734 170.1121 153.46608 C 169.45756 154.04484 168.80071 154.61218 168.14116 155.16779 C 167.48161 155.7234 166.81916 156.26768 166.15472 156.80025 C 165.49027 157.33281 164.82352 157.85383 164.15432 158.36346 C 163.48512 158.87309 162.81381 159.37115 162.13997 159.85794 C 161.46614 160.34474 160.79001 160.82015 160.11167 161.28421 C 159.43334 161.74828 158.75264 162.20083 158.06994 162.64227 C 157.38723 163.08371 156.70223 163.51423 156.01528 163.93315 C 155.32834 164.35206 154.63928 164.75931 153.94823 165.15581 C 153.25717 165.55231 152.56432 165.93763 151.86928 166.31181 C 151.17425 166.686 150.47734 167.04918 149.77845 167.40115 C 149.07958 167.75312 148.37886 168.09396 147.67626 168.42383 C 146.97366 168.75369 146.26888 169.0725 145.56269 169.38036 C 144.8565 169.68822 144.14844 169.9853 143.43879 170.27126 C 142.72914 170.55722 142.01805 170.83237 141.30507 171.09653 C 140.59209 171.3607 139.87771 171.6137 139.16153 171.85618 C 138.44535 172.09865 137.72742 172.33034 137.00817 172.55122 C 136.28894 172.77211 135.56822 172.98228 134.84603 173.18168 C 134.12385 173.38108 133.4001 173.57003 132.67511 173.74805 C 131.95011 173.92607 131.22358 174.09309 130.49591 174.24983 C 129.76824 174.40657 129.0397 174.55299 128.30948 174.68856 C 127.57926 174.82413 126.84742 174.94923 126.11478 175.06373 C 125.38214 175.17823 124.6483 175.28181 123.91337 175.37534 C 123.17844 175.46888 122.44232 175.55227 121.70523 175.62494 C 120.96815 175.69761 120.23001 175.75958 119.4909 175.81149 C 118.75178 175.86341 118.01189 175.90529 117.27088 175.93655 C 116.52987 175.96781 115.78796 175.98888 115.04517 175.99959 C 114.30239 176.0103 113.55872 176.01036 112.8143 176.00063 C 112.06988 175.99089 111.32471 175.97128 110.57878 175.9412 C 109.83285 175.91112 109.08643 175.87059 108.33912 175.82028 C 107.59182 175.76996 106.84388 175.70986 106.09533 175.63941 C 105.34678 175.56896 104.59759 175.48805 103.84792 175.39756 C 103.09827 175.30708 102.34807 175.2067 101.59742 175.09629 C 100.84676 174.98588 100.09532 174.86582 99.343807 174.73559 C 98.592294 174.60535 97.840371 174.4649 97.088131 174.31494 C 96.33589 174.16498 95.583225 174.00547 94.830387 173.8359 C 94.07755 173.66633 93.324398 173.48703 92.571094 173.29795 C 91.81779 173.10886 91.064408 172.9101 90.310767 172.7016 C 89.557125 172.49311 88.803254 172.27466 88.049406 172.04686 C 87.295558 171.81906 86.54197 171.58176 85.788045 171.33476 C 85.034121 171.08776 84.280039 170.83088 83.526168 170.56478 C 82.772297 170.29868 82.018495 170.02305 81.264807 169.73796 C 80.51112 169.45287 79.757337 169.15879 79.003963 168.85481 C 78.250589 168.55083 77.4976 168.23707 76.74467 167.9143 C 75.991738 167.59153 75.239284 167.25943 74.486926 166.91798 C 73.73457 166.57653 72.982386 166.22587 72.230733 165.86584 C 71.479081 165.50583 70.727943 165.13641 69.977124 164.7579 C 69.405056 164.46951 68.833502 164.17072 68.261983 163.87165 C 68.168779 164.20839 68.083928 164.5132 67.940556 165.02145 C 67.482586 166.6449 66.923955 168.72357 66.420235 170.6764 C 66.036187 172.16533 64.464162 179.81399 64.234322 181.31193 C 64.127472 182.00829 63.968472 182.98945 63.881372 183.49268 C 63.624502 184.97723 63.071553 189.61952 62.783765 192.70658 C 62.419375 196.62134 62.422134 207.34191 62.788932 211.02278 C 63.63786 219.54193 64.216323 222.95893 65.718469 228.32611 C 67.250567 233.80032 67.966781 234.82109 70.802397 235.57012 C 71.405895 235.72953 72.127893 235.9262 72.406433 236.0073 C 72.920193 236.15677 74.983772 236.51779 77.133276 236.83412 C 79.622572 237.20046 83.956646 237.39728 87.34609 237.29818 C 93.749216 237.11105 98.294818 235.96951 99.409436 234.26839 C 100.03487 233.31386 100.87903 230.50429 101.65116 226.80683 C 101.79217 226.13155 101.79232 226.13168 106.71648 226.08698 C 112.3605 226.03569 111.80876 225.8599 112.15956 227.81969 C 112.47424 229.57765 113.8151 233.5013 114.50929 234.69524 C 114.84398 235.27084 115.36685 235.90948 115.67149 236.11479 C 117.06871 237.05637 121.80775 238.0444 126.51011 238.3746 L 126.51062 238.3746 C 132.16489 238.77149 141.21901 237.87665 143.54318 236.69098 C 145.51427 235.68538 147.06244 232.33541 148.01215 227.02077 C 148.0575 226.76698 148.14247 226.48213 148.20077 226.38773 C 148.26948 226.27653 150.47103 226.21565 154.45259 226.21565 C 160.24004 226.21565 160.6078 226.23417 160.76383 226.52571 C 160.85496 226.69599 161.04937 227.58839 161.19533 228.50905 C 161.66678 231.48277 162.45864 233.91509 163.4417 235.40785 C 164.52112 237.04693 165.59262 237.38682 171.49858 237.9648 C 175.11118 238.31833 176.81338 238.39495 181.12073 238.40095 C 190.8769 238.41341 194.40985 237.80083 196.17562 235.78974 C 196.84955 235.02217 197.41478 233.31602 198.92739 227.48224 C 199.86625 223.86129 201.39696 216.02249 201.69673 213.30171 C 201.74788 212.83748 201.91032 211.47013 202.05795 210.26313 C 202.47921 206.81909 202.62598 203.74463 202.62898 198.2773 C 202.63312 191.13851 202.25863 186.55787 201.26472 181.58582 C 201.00844 180.3038 200.95807 179.78879 201.22028 179.68361 L 198.58271 169.67285 C 198.13388 169.30356 197.81549 168.95778 197.70163 168.68324 C 197.55947 168.34047 197.16153 167.37637 196.81693 166.54074 C 195.8393 164.1702 193.96338 160.53184 192.29421 157.76763 C 192.04828 157.36037 189.60981 153.60816 189.43857 153.37358 C 186.83667 149.8093 183.74381 146.20127 180.5497 142.98094 z " /><path
   style="fill:none;stroke:#5f442f;stroke-width:3.29500014;stroke-linecap:butt;stroke-dasharray:none;stroke-opacity:1"
   d="m 70.358708,162.35355 c 12.076076,8.40392 28.901659,12.64403 50.704512,12.71741 26.0534,0.0877 42.4546,-14.3981 55.16388,-32.78451"
   id="path440" /><path
   style="fill:url(#linearGradient16798);fill-opacity:1;stroke-width:0.168812"
   d="m 94.60516,227.91615 c 6.76483,0.55851 3.558265,-9.18866 6.01611,-13.2704 2.99738,1.27723 -0.909985,10.11599 5.9219,7.8167 7.32864,2.67971 2.40677,-6.74439 5.77354,-8.24602 2.3223,4.03856 0.67308,11.04948 4.37157,13.52051 9.34816,0.50142 18.81006,0.91675 28.10826,-0.33744 1.96662,-3.72228 0.33115,-11.18299 3.08874,-12.93839 1.3255,3.44949 -0.58065,9.66746 5.48662,8.0633 4.1834,0.32362 9.30718,1.15476 7.2475,-4.85692 -0.98992,-3.59552 2.09849,-5.22879 2.24514,-0.79416 1.28549,4.07943 -0.34381,12.18829 6.00064,10.98714 8.65962,0.30003 17.40516,0.71462 26.02266,-0.40389 2.59382,-8.51352 3.85644,-17.39679 4.28087,-26.26716 -6.65318,4.45465 -15.24216,5.72577 -23.05351,4.53089 -3.29626,-2.51599 7.63614,-2.00097 9.82,-4.02406 4.67781,-2.23413 10.4267,-4.52124 13.16236,-9.00744 -0.30222,-3.08306 0.61466,-12.20331 -3.44091,-5.93266 -6.4088,6.00062 -15.34534,9.24237 -24.07525,9.40282 -3.66271,-1.54257 5.4114,-2.89609 6.75271,-4.415 7.47419,-4.04588 13.37613,-10.60465 17.818,-17.75665 -0.99436,-2.91895 -2.82535,-12.06668 -5.2925,-5.12748 -5.76699,8.54025 -14.1339,16.13833 -24.34977,18.61308 -6.27677,-0.81196 5.93403,-5.7605 7.13755,-8.45378 6.48024,-5.99844 11.22528,-13.71852 14.31097,-21.95086 -1.27857,-2.61205 -4.18956,-6.58427 -4.77844,-1.26412 -5.11533,10.72787 -14.29731,19.8674 -25.50992,24.02422 -6.16299,0.2955 4.2057,-5.48765 5.48198,-7.79863 7.38251,-7.18755 12.82696,-16.74066 14.61836,-26.8706 -4.63908,-6.15734 -4.68885,5.53184 -7.96429,7.87153 -8.4308,13.22682 -23.92281,19.95456 -39.03703,21.72905 -17.44776,1.883 -36.012283,1.69052 -52.184339,-5.92665 -3.707394,-1.55369 -8.694136,-7.45075 -8.516851,0.071 -2.353225,5.64548 5.141368,9.10979 8.504201,12.54842 2.98832,3.06729 10.294002,4.24316 11.50294,7.23607 -8.028582,0.0635 -16.123903,-3.15115 -22.181592,-8.35813 -3.072102,5.48219 2.23169,9.714 6.423976,12.74373 4.095437,3.48309 9.653408,4.57457 13.991613,7.4344 -5.552992,1.22407 -11.878403,-0.92835 -17.137496,-3.16367 -2.500239,-0.89236 -6.312237,-5.27489 -5.102812,0.29347 -0.257277,6.32173 7.817395,8.53976 12.416666,11.10733 2.302489,0.54654 10.191279,3.10795 3.400701,3.22621 -5.476901,0.32244 -10.973557,-1.0607 -15.723767,-3.78466 0.595392,6.45826 1.446371,12.9157 3.31916,19.14375 5.438263,1.0513 11.268425,0.8516 16.868581,0.84694 2.75222,-0.0614 5.506657,-0.0984 8.255159,-0.26179 z"
   id="path30812" /><g
   id="zebra-head"><path
     id="path10910"
     style="fill:#5f442f;fill-opacity:1;stroke-width:0.168812"
     d="m 112.73214,14.887463 c -0.59112,0.0013 -1.1978,0.0106 -1.82366,0.02842 -5.23954,0.149227 -9.47992,0.840121 -14.362435,2.339909 -1.376499,0.422826 -1.830585,0.748593 -1.717725,1.231966 0.04396,0.188287 0.507562,1.405926 1.029912,2.705778 1.634968,4.06854 2.137766,5.603096 2.960026,9.03149 1.010729,4.21423 0.972876,4.001176 1.669662,9.368938 0.0843,0.649926 0.0979,1.242782 0.03,1.317232 -0.0679,0.07445 -0.761773,0.239775 -1.541512,0.367419 -4.515366,0.739176 -10.371762,2.418833 -13.993978,4.013709 -1.557099,0.685598 -4.470317,2.191255 -5.165577,2.669604 -0.395569,0.272161 -0.794134,0.494544 -0.885734,0.494544 -0.09159,0 -0.192342,0.06025 -0.223242,0.133842 -0.03095,0.07359 -0.346243,0.31067 -0.700732,0.527099 -0.35449,0.216428 -1.137663,0.797804 -1.740462,1.291911 -0.60281,0.494109 -1.186122,0.863642 -1.296562,0.820622 -0.11043,-0.04302 -0.49801,-0.552058 -0.860929,-1.13068 -1.687079,-2.689741 -1.951529,-3.120556 -2.303219,-3.752743 -2.135758,-3.839107 -4.708689,-10.064833 -5.895247,-14.264762 -1.348499,-4.773156 -2.845818,-8.412994 -3.825607,-9.299691 -1.528498,-1.383264 -3.60561,-1.046654 -6.898287,1.118278 -2.557307,1.681424 -4.332252,3.977554 -5.809981,7.51582 -1.077019,2.578798 -1.691867,5.084736 -2.204517,8.986532 -0.340579,2.592039 -0.135208,5.209324 0.657841,8.391736 1.171739,4.702039 4.223302,9.217978 8.032068,11.886096 2.117448,1.483311 4.809941,2.681559 7.469829,3.324862 1.085599,0.262553 1.117011,0.45999 0.295072,1.862418 -1.830888,3.123943 -4.458466,9.579334 -6.071464,14.916402 -1.722538,5.699563 -3.661542,14.853241 -4.398181,20.763594 -0.12729,1.02131 -0.316566,2.46477 -0.420646,3.20755 -0.56967,4.06545 -0.902978,10.55013 -0.781348,15.19339 0.15426,5.88859 0.668607,10.5243 1.709456,15.40578 0.24467,1.14748 0.395344,1.74226 1.005624,3.96513 1.456588,5.30554 4.297918,11.34382 7.328235,15.57321 1.205148,1.68203 3.719884,4.58842 5.164542,5.96966 1.39284,1.33171 1.545832,1.39347 1.098641,3.00912 0.571519,0.29907 1.143072,0.59786 1.715141,0.88625 0.75082,0.37851 1.501956,0.74792 2.253609,1.10794 0.751654,0.36003 1.503836,0.71069 2.256193,1.05214 0.752358,0.34145 1.504812,0.67355 2.257744,0.99632 0.752931,0.32277 1.505918,0.63653 2.259293,0.94051 0.753375,0.30398 1.507156,0.59806 2.260844,0.88315 0.753689,0.28509 1.507489,0.56072 2.261361,0.82682 0.753872,0.2661 1.507952,0.52298 2.261877,0.76998 0.753926,0.247 1.507512,0.4843 2.261361,0.7121 0.753849,0.2278 1.507719,0.44625 2.261361,0.65474 0.753642,0.2085 1.507022,0.40726 2.260327,0.59635 0.753305,0.18908 1.506455,0.36838 2.259293,0.53795 0.752838,0.16957 1.505503,0.32908 2.257744,0.47904 0.752241,0.14996 1.504162,0.29041 2.255676,0.42065 0.751513,0.13023 1.502953,0.25029 2.253613,0.3607 0.75065,0.11041 1.50084,0.21079 2.2505,0.30127 0.74967,0.0905 1.49886,0.1714 2.24741,0.24185 0.74855,0.0704 1.49649,0.13055 2.24379,0.18087 0.74731,0.0503 1.49373,0.0908 2.23966,0.12092 0.74593,0.0301 1.4911,0.0497 2.23552,0.0594 0.74442,0.01 1.48809,0.01 2.23087,-0.001 0.74279,-0.0107 1.4847,-0.0318 2.22571,-0.063 0.74101,-0.0313 1.4809,-0.0731 2.22002,-0.12506 0.73911,-0.0519 1.47725,-0.11388 2.21433,-0.18655 0.73709,-0.0727 1.47321,-0.15606 2.20814,-0.2496 0.73493,-0.0935 1.46877,-0.19711 2.20141,-0.31161 0.73264,-0.1145 1.46448,-0.2396 2.1947,-0.37517 0.73022,-0.13557 1.45876,-0.28199 2.18643,-0.43873 0.72767,-0.15674 1.4542,-0.32376 2.1792,-0.50178 0.72499,-0.17802 1.44874,-0.36697 2.17092,-0.56637 0.72219,-0.1994 1.4429,-0.40957 2.16214,-0.63046 0.71925,-0.22088 1.43718,-0.45257 2.15336,-0.69504 0.71618,-0.24248 1.43056,-0.49548 2.14354,-0.75965 0.71298,-0.26416 1.42407,-0.53931 2.13372,-0.82527 0.70965,-0.28596 1.41771,-0.58304 2.1239,-0.8909 0.70619,-0.30786 1.41097,-0.62667 2.11357,-0.95653 0.7026,-0.32987 1.40331,-0.67071 2.10219,-1.02268 0.69889,-0.35197 1.3958,-0.71515 2.09083,-1.08934 0.69504,-0.37418 1.38789,-0.7595 2.07895,-1.156 0.69105,-0.3965 1.38011,-0.80375 2.06705,-1.22266 0.68695,-0.41892 1.37195,-0.84944 2.05466,-1.29088 0.6827,-0.44144 1.3634,-0.89399 2.04173,-1.35806 0.67834,-0.46406 1.35447,-0.93947 2.0283,-1.42627 0.67384,-0.48679 1.34515,-0.98485 2.01435,-1.49448 0.6692,-0.50963 1.33595,-1.03065 2.0004,-1.56321 0.66444,-0.53257 1.32689,-1.07685 1.98644,-1.63246 0.65955,-0.55561 1.3164,-1.12295 1.97094,-1.70171 0.65453,-0.57875 1.30657,-1.16895 1.95595,-1.77095 0.64938,-0.602 1.29635,-1.21536 1.94045,-1.84071 0.6441,-0.62535 1.28522,-1.2627 1.92391,-1.91151 0.63869,-0.64881 1.27475,-1.30942 1.9079,-1.98179 0.63315,-0.67237 1.26336,-1.35656 1.89084,-2.05259 0.27411,-0.30406 0.54554,-0.619 0.81855,-0.92759 -1.03796,-1.04649 -2.08655,-2.05341 -3.13262,-3.00292 -1.33133,-1.20845 -1.33938,-1.21998 -1.14877,-1.7601 0.47367,-1.34218 1.25994,-5.33148 1.63763,-8.30957 0.15307,-1.20701 0.35021,-2.74818 0.43821,-3.42511 0.26046,-2.00341 0.19465,-13.56282 -0.0946,-16.57884 -0.47148,-4.91674 -1.05313,-9.48875 -1.42833,-11.226185 -0.14445,-0.66891 -0.33713,-1.66694 -0.66714,-3.460771 -0.41299,-2.244908 -1.30656,-6.204544 -2.21744,-9.82524 -0.25158,-1.000039 -1.42856,-4.96502 -2.01952,-6.802686 -1.46847,-4.566428 -3.80873,-10.05668 -5.59552,-13.127364 -0.64733,-1.112478 -0.70242,-1.474845 -0.22376,-1.474845 0.42876,0 3.02139,-0.877538 4.13463,-1.399398 2.15924,-1.0122 4.93769,-2.988836 6.25905,-4.452958 2.08808,-2.313674 3.91877,-5.470995 4.77956,-8.243425 0.78782,-2.537384 0.98943,-4.009278 0.98443,-7.18199 -0.004,-2.508043 -0.0724,-3.305958 -0.4501,-5.212085 -1.02743,-5.185698 -2.82288,-9.125528 -5.36505,-11.772925 -2.13002,-2.218202 -5.39312,-3.894936 -7.27604,-3.73879 -1.89299,0.156982 -2.5937,1.122795 -4.50773,6.213574 -0.0873,0.232117 -0.57867,1.86515 -1.09193,3.629236 -0.51325,1.764085 -1.04089,3.473255 -1.17305,3.798218 -0.13217,0.324964 -0.63365,1.578353 -1.11415,2.78536 -1.3865,3.482833 -3.24038,7.35076 -4.23178,8.828918 -0.26778,0.399252 -0.48679,0.760959 -0.48679,0.803569 0,0.04262 -0.41644,0.722669 -0.92501,1.511019 -0.66653,1.033204 -1.02131,1.432987 -1.27124,1.432987 -0.19069,0 -0.3891,-0.110211 -0.4408,-0.244946 -0.0517,-0.134735 -0.76129,-0.70194 -1.57665,-1.260388 -1.37629,-0.942638 -1.50866,-1.085123 -1.85466,-1.99161 -2.84975,-7.466051 -7.10596,-14.86652 -11.58069,-20.136756 -2.20129,-2.592619 -5.55356,-5.807541 -7.67292,-7.358724 -3.53865,-2.589967 -4.61192,-3.159562 -7.09001,-3.762561 -3.8989,-0.948725 -7.27697,-1.354967 -11.4148,-1.346171 z" /><path
     style="fill:url(#linearGradient14341);fill-opacity:1;stroke-width:0.168812"
     d="m 80.76266,164.26196 c 3.222224,-7.54671 8.994495,-14.00918 16.423379,-17.59555 8.326131,-5.69959 8.356741,-18.55081 17.784681,-23.05136 7.02646,-0.79279 10.45663,6.71548 12.78728,12.07231 2.00848,5.50726 5.71949,10.21202 11.13097,12.6473 5.55869,3.93094 10.28338,9.35879 12.53367,15.85234 5.09749,-1.83065 9.49167,-6.20172 12.9696,-10.41233 3.43612,-4.06876 6.41196,-9.0845 3.28795,-14.25554 -1.51375,-5.35577 -4.52767,-10.12095 -6.38779,-15.30827 3.89971,-0.79163 8.53563,5.70299 11.04545,9.3104 4.00233,-2.60158 -1.19529,-10.66631 -4.08219,-14.21669 -1.42051,-1.66485 -4.88975,-6.38308 -0.0887,-3.85369 3.06989,0.79829 7.95155,8.08571 6.59802,0.73332 -0.63614,-16.765161 -4.43569,-33.568784 -11.70876,-48.713732 -4.80153,-9.984321 -13.5842,-17.954038 -24.30669,-21.024947 -5.83486,-1.863756 -11.94935,-2.943613 -18.07356,-3.070617 -0.7852,6.344307 9.5013,3.370434 12.95653,7.444473 2.49598,0.515365 9.90897,8.320133 3.33801,5.620483 -4.91645,-0.988134 -12.90498,-5.827837 -16.53298,-2.812434 -1.76535,5.230291 1.01993,6.510283 5.79421,7.121919 2.69334,0.702007 11.65245,6.04886 8.14621,7.574084 -4.64648,-0.626119 -12.10351,-4.993654 -15.2744,-2.056985 -3.36907,6.830911 6.26705,4.493055 9.0415,8.661204 5.13266,5.261292 -4.90203,0.02253 -7.14068,0.366756 -5.80057,-4.428772 -4.14582,10.919698 -7.89601,4.457097 -0.15408,-8.285889 -8.56883,-2.793277 -13.3037,-2.393923 0.71455,-5.887894 11.41466,-3.701707 10.49787,-9.149794 -1.16969,-6.717195 -10.963059,0.179345 -15.724368,0.220219 -1.030023,-3.792401 7.964128,-7.842634 12.208988,-8.779827 4.33334,0.292658 2.4832,-10.626093 -2.38039,-6.639886 -5.027923,0.755438 -9.661943,3.036353 -14.558964,4.177228 1.13877,-4.718379 7.353378,-7.115872 11.707324,-8.915246 2.65213,-1.293046 9.11639,-0.509788 6.36913,-4.8442 C 93.900433,44.460369 78.971266,49.495284 70.828915,61.698554 61.27103,75.846715 57.855175,93.120944 56.02294,109.82 c 0.39324,3.2885 -2.486452,13.24848 2.954414,7.10571 2.049641,-1.96842 7.694316,-3.55251 3.689061,0.64132 -3.050537,4.62933 -8.230953,9.5517 -5.430055,15.5346 3.23147,-3.17662 6.538211,-9.08717 11.17525,-9.20618 -1.836736,5.75994 -5.318104,10.98887 -6.795707,16.94006 -2.401677,5.54665 2.915761,10.45082 5.894837,14.6217 3.480618,3.30482 8.950889,9.56402 13.25192,8.80475 z"
     id="path31054" /><path
     style="fill:#ffffff;fill-opacity:1;stroke-width:0.168812"
     d="m 109.772,40.178823 c 3.83724,-0.230204 7.678,-0.04847 11.5143,0.08525 1.06666,0.235813 1.75655,-0.43001 1.5807,-1.496179 0.45627,-2.602662 0.56452,-5.245974 0.90394,-7.863334 0.28662,-3.788698 0.55257,-7.588262 0.53219,-11.389117 -0.76684,-0.854227 -2.35296,-0.669323 -3.45689,-1.068229 -4.12019,-0.811827 -8.35167,-0.891906 -12.53395,-0.685358 -2.99036,0.345471 -5.95289,0.910091 -8.884704,1.589557 -1.795784,0.03729 -0.06892,2.152408 0.061,3.077465 0.854384,2.45729 1.751304,4.921306 2.223894,7.483017 0.53761,2.053235 0.87977,4.158373 1.18227,6.257197 0.20795,1.39448 0.1498,2.832172 0.47707,4.20414 1.01167,0.407339 2.36607,-0.130986 3.52326,-0.04957 0.95866,-0.05431 1.91768,-0.102195 2.87692,-0.144844 z"
     id="path31596" /><path
     style="fill:#7f7b7a;fill-opacity:1;stroke-width:0.168812"
     d="m 133.11327,39.952444 c 0.26279,-0.797581 0.38904,-1.629823 0.59769,-2.439601 0.23201,-0.70478 0.28703,-1.442917 0.53203,-2.142656 0.3205,-2.452345 0.59793,-4.941233 0.29397,-7.41059 0.04,-0.856598 -0.48509,-1.550079 -1.10124,-2.07984 -1.47865,-1.42543 -3.00282,-2.820867 -4.6848,-4.003997 -0.53085,-0.185694 -1.19618,-1.318761 -1.65202,-0.412806 -0.14502,1.700528 -0.0761,3.413172 -0.20307,5.116353 -0.17661,2.935303 -0.32178,5.879075 -0.71928,8.794307 -0.28554,1.79705 -0.41915,3.623561 -0.60979,5.426075 0.61553,-0.359001 1.44318,0.07042 2.12927,0.07362 1.37747,0.244712 2.78706,0.29306 4.14014,0.66344 0.95883,0.293258 1.03222,-0.999758 1.2771,-1.584308 z"
     id="path31584" /><path
     style="fill:#fefefe;fill-opacity:1;stroke-width:0.168812"
     d="m 141.26009,43.603219 c 0.38043,-1.678914 0.44869,-3.412695 0.48921,-5.128478 0.002,-0.966483 0.0846,-2.013228 -0.4814,-2.8577 -1.45426,-2.310105 -3.12715,-4.472832 -4.79734,-6.627992 -0.25543,-0.415729 -0.8521,-0.413813 -0.741,0.184897 -0.0699,1.566775 -0.0476,3.139642 -0.24205,4.699276 -0.28175,2.506367 -0.70001,5.01795 -1.55662,7.398318 -0.41226,0.754948 0.53915,0.80466 1.03329,0.936664 1.72869,0.392658 3.46721,0.794604 5.12433,1.432031 0.33648,0.119095 0.9943,0.479197 1.17158,-0.03702 z"
     id="path31564" /><path
     style="fill:#878081;fill-opacity:1;stroke-width:0.168812"
     d="m 146.67424,45.725635 c -0.46955,-1.149661 -1.07359,-2.238281 -1.60483,-3.359754 -0.52706,-1.043775 -0.9795,-2.126611 -1.56757,-3.138614 -0.16047,-0.239741 -0.3429,-0.57935 -0.67626,-0.557354 -0.22324,0.190457 -0.15281,0.546433 -0.18858,0.815588 -0.0237,1.35874 0.0103,2.723753 -0.15903,4.07519 -0.0303,0.303689 -0.11331,0.614895 -0.0488,0.918033 0.20663,0.172333 0.55652,0.131915 0.80636,0.271503 0.84771,0.305907 1.69297,0.630352 2.49377,1.045903 0.26178,0.168758 0.57309,0.346704 0.8959,0.279979 0.15475,-0.04934 0.0777,-0.243013 0.049,-0.350474 z"
     id="path31548" /><path
     style="fill:#e9ebe9;fill-opacity:1;stroke-width:0.168812"
     d="m 166.89095,59.863561 c 1.66577,-0.591664 3.28973,-1.338899 4.63155,-2.508263 2.81702,-2.192395 4.88247,-5.284756 5.93834,-8.682937 0.36981,-1.206302 0.62347,-2.476561 0.81233,-3.607084 0.43633,-1.370087 0.15185,-2.910425 0.16698,-4.345149 -0.0836,-2.455933 -0.69663,-4.884901 -1.602,-7.15619 -1.13667,-2.425595 -2.56208,-4.787611 -4.74819,-6.41142 -0.83597,-0.916737 -2.88676,-2.046491 -2.91134,0.0327 -0.42622,1.221308 -0.82987,2.489122 -1.24167,3.750135 -0.35705,1.229033 -0.88595,2.422864 -1.18345,3.653742 -0.39538,0.91789 -0.78794,2.010136 -1.14212,3.062303 -1.88691,5.173982 -4.1816,10.250862 -7.30784,14.801701 -1.5661,1.057166 0.32431,2.17331 1.05516,3.064417 1.00989,0.923887 1.6409,2.236852 2.72249,3.056109 1.35244,-0.223058 2.49596,-1.206018 3.66353,-1.904432 3.97968,-2.699815 6.78684,-6.928439 8.01996,-11.552889 0.53626,-1.652667 0.85753,-3.362203 0.93137,-5.09481 0.0492,-0.608224 0.39908,-2.228682 0.45509,-0.706558 0.28342,3.240192 -0.13731,6.567099 -1.22282,9.633054 -0.78012,1.918694 -1.70745,3.785576 -3.15216,5.294705 -1.89744,2.157861 -4.26591,3.88824 -6.97861,4.867575 -1.6175,-0.08505 -0.84682,2.13635 0.45203,1.434018 0.90202,-0.123858 1.78326,-0.381618 2.64137,-0.680727 z"
     id="path31418" /><path
     style="fill:#eaeaea;fill-opacity:1;stroke-width:0.168812"
     d="m 66.85176,60.650667 c 1.196034,-1.537344 -1.59982,-1.033294 -2.286941,-1.927504 -3.889887,-1.786808 -7.099839,-5.003316 -8.742436,-8.969916 -1.333205,-2.973424 -1.685747,-6.262631 -1.559563,-9.489783 -0.05272,-0.561332 0.14167,-2.475528 0.370731,-0.968797 0.258361,2.386215 0.445498,4.813019 1.339552,7.069526 1.61352,4.48197 4.572058,8.580911 8.738033,11.001674 1.039164,0.450782 2.678561,2.040302 3.633889,1.209569 0.991782,-1.768251 2.633188,-3.04653 3.808085,-4.672764 -1.961324,-2.512953 -3.484601,-5.375852 -5.003689,-8.185204 -0.692207,-1.300234 -1.160508,-2.679715 -1.79178,-4.00646 -1.137935,-2.712966 -2.089739,-5.498482 -3.08934,-8.262165 -0.762828,-2.463138 -1.583477,-4.910074 -2.499494,-7.319541 -1.146914,-0.602612 -2.428037,1.093857 -3.398743,1.767299 -1.207849,1.19656 -2.288735,2.591315 -3.004715,4.135144 -0.695172,0.782439 -0.909568,2.051022 -1.356539,3.102297 -0.976498,3.043567 -1.268144,6.313895 -0.948418,9.494204 0.316297,1.420088 0.501952,2.868967 0.961052,4.256488 1.919476,5.969553 7.185577,10.950237 13.513274,11.749677 0.429985,-0.0075 0.915447,0.249937 1.317042,0.01626 z"
     id="path31414" /><path
     style="fill:#000000;stroke-width:0.168812"
     d="m 108.73189,130.63648 c -0.0539,-0.13467 -0.0939,-0.0947 -0.10199,0.10199 -0.007,0.17795 0.0326,0.27766 0.0887,0.22156 0.0561,-0.0561 0.0621,-0.20169 0.0133,-0.32355 z"
     id="path31208" /><path
     style="fill:#000000;stroke-width:0.168812"
     d="m 125.52875,132.82611 c -0.10986,-0.10986 -0.20857,-0.35549 -0.21934,-0.54582 -0.0154,-0.27175 -0.0358,-0.28453 -0.0951,-0.0595 -0.0845,0.32076 0.25413,1.06514 0.4125,0.90676 0.0559,-0.0559 0.0118,-0.19157 -0.0981,-0.30144 z"
     id="path31204" /><path
     style="fill:#000000;stroke-width:0.168812"
     d="m 127.13243,135.86966 c -0.0539,-0.13467 -0.0939,-0.0947 -0.10199,0.10199 -0.007,0.17795 0.0325,0.27766 0.0887,0.22157 0.0561,-0.0561 0.0621,-0.2017 0.0133,-0.32356 z"
     id="path31196" /><path
     style="fill:#000000;stroke-width:0.168812"
     d="m 105.74677,136.40775 c 0,-0.0928 -0.0804,-0.16882 -0.17878,-0.16882 -0.0983,0 -0.13182,0.076 -0.0744,0.16882 0.0574,0.0928 0.13784,0.16881 0.17878,0.16881 0.041,0 0.0744,-0.076 0.0744,-0.16881 z"
     id="path31194" /><path
     style="fill:#5f442f;fill-opacity:1;stroke-width:0.168812"
     d="m 135.87296,89.635971 c -0.53877,-0.87175 1.32806,-3.04235 3.56921,-4.14999 1.23348,-0.60962 1.41099,-0.6502 2.84367,-0.6502 1.47842,0 1.58018,0.0256 3.13178,0.78942 1.85102,0.91117 3.45926,2.36882 3.64651,3.30506 0.15717,0.78588 -0.12903,0.70795 -1.40717,-0.38315 -1.40886,-1.2027 -2.25723,-1.69116 -3.4987,-2.01443 -2.63418,-0.68594 -4.92053,0.0851 -7.09193,2.39167 -0.8748,0.92923 -1.00931,1.00945 -1.19337,0.71162 z"
     id="path31106" /><path
     style="fill:#5f442f;fill-opacity:1;stroke-width:0.168812"
     d="m 92.56539,88.451401 c -1.19787,-1.22038 -1.36921,-1.3323 -2.66751,-1.74243 -1.72618,-0.54531 -2.84912,-0.55517 -4.37643,-0.0384 -1.14417,0.3871 -2.66233,1.39514 -3.56446,2.36679 -0.77927,0.83932 -1.3447,0.42786 -0.73632,-0.53582 1.04402,-1.65377 2.3659,-2.61268 4.71645,-3.42139 2.46771,-0.84902 5.0765,-0.0327 7.30196,2.2849 0.94904,0.98832 1.04423,1.15228 0.99664,1.71645 -0.029,0.34307 -0.12858,0.63509 -0.22142,0.64893 -0.0928,0.0139 -0.74486,-0.56171 -1.44891,-1.27899 z"
     id="path31104" /><path
     style="fill:#000000;stroke-width:0.168812"
     d="m 144.06713,121.89003 c 0,-0.0928 -0.13294,-0.17482 -0.29543,-0.18214 -0.17648,-0.008 -0.21046,-0.0476 -0.0844,-0.0985 0.11605,-0.0468 0.21101,-0.15542 0.21101,-0.24132 0,-0.0859 -0.14435,-0.066 -0.32077,0.0442 -0.17644,0.11019 -0.28226,0.30075 -0.23516,0.42346 0.0992,0.25866 0.72475,0.30554 0.72475,0.0543 z"
     id="path31102" /><path
     style="fill:#000000;stroke-width:0.168812"
     d="m 138.49632,123.47307 c 0,-0.23445 -0.0425,-0.24132 -0.29542,-0.0478 -0.16248,0.12437 -0.32708,0.24761 -0.36576,0.27389 -0.0387,0.0263 0.0943,0.0478 0.29542,0.0478 0.22485,0 0.36576,-0.10553 0.36576,-0.2739 z"
     id="path31100" /><path
     style="fill:#000000;stroke-width:0.168812"
     d="m 88.14455,121.45039 c -0.0561,-0.0561 -0.2017,-0.0621 -0.32356,-0.0133 -0.13466,0.0539 -0.0947,0.0939 0.102,0.10199 0.17795,0.007 0.27765,-0.0325 0.22156,-0.0887 z"
     id="path31086" /><path
     style="fill:#000000;stroke-width:0.168812"
     d="m 87.51502,121.47799 c 0,-0.041 -0.076,-0.1214 -0.16881,-0.17878 -0.0928,-0.0574 -0.16881,-0.0239 -0.16881,0.0744 0,0.0983 0.076,0.17878 0.16881,0.17878 0.0928,0 0.16881,-0.0335 0.16881,-0.0744 z"
     id="path31084" /><path
     style="fill:#000000;stroke-width:0.168812"
     d="m 90.33911,122.2945 c -0.0561,-0.0561 -0.2017,-0.0621 -0.32356,-0.0133 -0.13467,0.0539 -0.0947,0.0939 0.10199,0.10199 0.17796,0.007 0.27767,-0.0326 0.22157,-0.0887 z"
     id="path31082" /><path
     style="fill:#000000;stroke-width:0.168812"
     d="m 82.78828,123.40936 c 0,-0.0928 -0.0335,-0.16881 -0.0744,-0.16881 -0.041,0 -0.1214,0.076 -0.17878,0.16881 -0.0574,0.0929 -0.0239,0.16881 0.0744,0.16881 0.0983,0 0.17878,-0.076 0.17878,-0.16881 z"
     id="path31080" /><path
     style="fill:#000000;stroke-width:0.168812"
     d="m 93.20114,124.55939 c -0.0539,-0.13466 -0.0939,-0.0947 -0.10198,0.102 -0.007,0.17795 0.0325,0.27766 0.0887,0.22156 0.0561,-0.0561 0.0621,-0.20169 0.0133,-0.32356 z"
     id="path31078" /><g
     id="zebra-eye"><path
       style="fill:#5f442f;fill-opacity:1;stroke-width:0.168812"
       d="m 140.9441,137.69929 c -2.65132,-0.82945 -4.61932,-3.19442 -5.29295,-5.84695 -0.64773,-2.40995 -0.30636,-5.06245 0.82503,-7.27601 1.39057,-2.50087 4.22656,-4.2839 7.135,-3.99892 1.52534,0.058 3.04214,0.57561 4.18187,1.61081 1.81317,1.54328 2.95438,3.83398 3.07102,6.21487 0.14626,1.68686 -0.0265,3.43793 -0.83099,4.95358 -0.95811,2.00426 -2.62995,3.84582 -4.85075,4.39223 -1.34039,0.15483 -2.71529,0.20929 -4.05244,0.001 l -0.0979,-0.0243 z"
       id="path31088" /><path
       style="fill:#fffefe;fill-opacity:1;stroke-width:0.168812"
       d="m 142.57589,125.59149 c 0.64935,-0.67299 0.9848,-1.26694 0.9848,-1.74368 0,-0.68306 -0.6485,-1.63047 -1.38902,-2.02927 -1.31068,-0.70585 -3.0001,0.3801 -3.0001,1.92844 0,0.68319 0.24476,1.15375 0.90329,1.73661 0.46332,0.41007 0.64319,0.46269 1.40015,0.40961 0.4777,-0.0335 0.9731,-0.16927 1.10088,-0.30171 z"
       id="path31094" /><path
       style="fill:#5f442f;fill-opacity:1;stroke-width:0.168812"
       d="m 85.90539,137.92289 c -2.949239,-0.67896 -5.266892,-3.21807 -5.998441,-6.11349 -0.919641,-3.38925 0.02199,-7.40339 2.841135,-9.63587 2.349408,-1.92613 5.89698,-2.16964 8.482974,-0.57268 2.362486,1.40844 3.765841,4.12672 3.825896,6.84648 0.09819,1.37631 0.09112,2.79294 -0.436933,4.09147 -0.857311,2.52627 -2.958305,4.72438 -5.61572,5.29124 -1.017756,0.18175 -2.074059,0.26472 -3.098911,0.0928 z"
       id="path31066" /><path
       style="fill:#fffefe;fill-opacity:1;stroke-width:0.168812"
       d="m 86.46873,125.70561 c 1.47816,-0.76439 1.67661,-2.49601 0.41115,-3.58772 -0.59632,-0.51445 -0.9536,-0.62168 -1.64138,-0.49265 -1.25772,0.23595 -2.09159,1.45234 -1.78251,2.60019 0.16566,0.61521 0.84056,1.40903 1.35803,1.59732 0.47089,0.17135 1.19612,0.12 1.65471,-0.11714 z"
       id="path31074" /></g><path
     style="fill:#000000;stroke-width:0.168812"
     d="m 94.0452,126.0787 c -0.0539,-0.13466 -0.0939,-0.0947 -0.10199,0.102 -0.007,0.17795 0.0326,0.27766 0.0887,0.22156 0.0561,-0.0561 0.0621,-0.20169 0.0133,-0.32356 z"
     id="path31072" /><path
     style="fill:#5f442f;fill-opacity:1;stroke-width:0.168812"
     d="m 160.06366,148.83521 c -0.12849,-0.12848 -0.33247,-0.67923 -0.4533,-1.22389 -0.12083,-0.54464 -0.33368,-1.35887 -0.473,-1.80938 -0.20692,-0.66911 -0.21451,-0.89158 -0.0415,-1.21493 0.26921,-0.50303 0.6674,-0.65832 0.95376,-0.37196 0.26895,0.26895 0.73066,1.88879 0.90233,3.16565 0.17412,1.2951 -0.28917,2.05367 -0.88834,1.45451 z"
     id="path31064" /><path
     style="fill:#5f442f;fill-opacity:1;stroke-width:0.168812"
     d="m 156.70638,148.78947 c -0.22584,-0.27212 -0.9618,-3.18978 -0.98101,-3.88918 -0.006,-0.20364 0.15865,-0.4885 0.36498,-0.63302 0.61327,-0.42955 0.91564,0.0586 1.32828,2.1444 0.38108,1.92629 0.36404,2.19498 -0.15686,2.47375 -0.25281,0.13531 -0.38199,0.11299 -0.55539,-0.096 z"
     id="path31060" /><path
     style="fill:#5f442f;fill-opacity:1;stroke-width:0.168812"
     d="m 72.5503,148.63254 c -0.23297,-0.35556 -0.25187,-0.53518 -0.10216,-0.97067 0.10105,-0.29392 0.23319,-0.80026 0.29366,-1.12523 0.0605,-0.32496 0.22075,-0.98966 0.35619,-1.47711 0.21294,-0.76635 0.30321,-0.88626 0.66719,-0.88626 0.72631,0 0.84075,0.58544 0.4311,2.20542 -0.19527,0.77215 -0.35502,1.54139 -0.35502,1.7094 0,0.32392 -0.56268,0.98074 -0.84017,0.98074 -0.0907,0 -0.29356,-0.19634 -0.45079,-0.43629 z"
     id="path31058" /><path
     style="fill:#5f442f;fill-opacity:1;stroke-width:0.168812"
     d="m 69.37979,148.80355 c -0.14591,-0.1459 -0.26528,-0.43433 -0.26528,-0.64095 0,-0.39038 0.59203,-3.2384 0.76909,-3.69984 0.1592,-0.41486 0.53175,-0.46822 0.94316,-0.13509 0.36169,0.29288 0.3692,0.34979 0.17157,1.29983 -0.11368,0.54645 -0.27692,1.36275 -0.36277,1.81399 -0.15986,0.84029 -0.56498,1.62734 -0.83763,1.62734 -0.0841,0 -0.27224,-0.11938 -0.41814,-0.26528 z"
     id="path31056" /><path
     style="fill:#7f7b7a;fill-opacity:1;stroke-width:0.168812"
     d="m 117.14159,171.84758 c 6.36785,-0.14932 12.78365,-0.31536 18.9945,-1.83156 3.24442,-0.312 6.22847,-1.69009 9.29101,-2.72307 2.52475,-0.84025 6.07703,-1.78989 3.5356,-4.86198 -3.03522,-5.19618 -6.89947,-10.35109 -12.32994,-13.3058 -3.49819,-1.83351 -6.58542,-4.61734 -8.09119,-8.33383 -1.92051,-4.03031 -3.95241,-8.03043 -6.35103,-11.79957 -1.77101,-2.05887 -4.31671,-5.01898 -7.34287,-3.39923 -3.67759,1.71634 -5.43444,5.58873 -7.48219,8.8293 -1.33837,3.06555 -3.02967,6.22488 -4.67962,9.23195 -1.13483,1.73864 -2.720919,3.45619 -4.780804,4.34657 -2.426373,1.51002 -4.746795,3.16799 -6.905281,5.02998 -3.53254,3.41308 -6.9552,7.19622 -8.62601,11.86799 -1.075404,2.39368 3.96906,2.41195 5.459359,3.3738 2.530701,0.94295 5.200421,1.33683 7.769136,1.98071 4.18597,0.79935 8.41517,1.29748 12.68015,1.44942 2.94399,0.16961 5.9141,0.28103 8.85918,0.14532 z"
     id="path31006" /><path
     style="fill:#000000;stroke-width:0.168812"
     d="m 128.32189,162.30303 c -0.0561,-0.0561 -0.2017,-0.0621 -0.32355,-0.0133 -0.13467,0.0539 -0.0947,0.0939 0.10198,0.10199 0.17796,0.007 0.27767,-0.0325 0.22157,-0.0887 z"
     id="path31020" /><path
     style="fill:#5f442f;fill-opacity:1;stroke-width:0.168812"
     d="m 126.86854,163.17909 c -0.0586,-2.39785 0.46286,-4.83268 1.37646,-7.0523 0.83826,-1.95049 2.54874,-3.95303 4.82455,-3.99446 2.77965,0.10755 5.37121,2.64783 5.0039,5.51845 0.01,2.5994 -2.44978,4.25798 -4.6994,4.8993 -2.05305,0.57726 -4.22573,0.85906 -6.35501,0.69651 l -0.15054,-0.0675 z"
     id="path31018" /><path
     style="fill:#000000;stroke-width:0.168812"
     d="m 96.88859,154.50344 c -0.052,-0.052 -0.18819,-1.1e-4 -0.3027,0.11526 -0.16548,0.16673 -0.14609,0.18612 0.0945,0.0945 0.16649,-0.0634 0.26018,-0.15779 0.2082,-0.20977 z"
     id="path31016" /><path
     style="fill:#000000;stroke-width:0.168812"
     d="m 96.63091,155.90574 c 0,-0.13927 -0.0736,-0.25321 -0.16351,-0.25321 -0.0899,0 -0.11979,0.11394 -0.0663,0.25321 0.0535,0.13927 0.12702,0.25323 0.16351,0.25323 0.0365,0 0.0663,-0.11396 0.0663,-0.25323 z"
     id="path31014" /><path
     style="fill:#000000;stroke-width:0.168812"
     d="m 95.89865,157.63607 c -0.0468,-0.11606 -0.0851,-0.0211 -0.0851,0.21102 0,0.23211 0.0383,0.32707 0.0851,0.21101 0.0468,-0.11606 0.0468,-0.30597 0,-0.42203 z"
     id="path31012" /><path
     style="fill:#000000;stroke-width:0.168812"
     d="m 105.52613,161.77518 c -0.0428,-0.16424 -0.0806,-0.0707 -0.0841,0.2078 -0.003,0.27854 0.0316,0.41293 0.0778,0.29864 0.0463,-0.11429 0.0491,-0.34219 0.006,-0.50644 z"
     id="path31010" /><path
     style="fill:#5f442f;fill-opacity:1;stroke-width:0.168812"
     d="m 104.90271,163.30884 c -2.0058,-0.15278 -4.02512,-0.39463 -5.897396,-1.11595 -1.524789,-0.63913 -3.029862,-1.71641 -3.419768,-3.41937 -0.635008,-1.32177 -0.236679,-2.99091 0.461854,-4.21861 1.283256,-1.97179 4.22043,-3.18547 6.35014,-1.83324 1.72207,1.01694 2.77831,2.8035 3.25323,4.70616 0.54512,1.84803 0.92388,3.7685 0.93176,5.69858 -0.26907,0.54447 -1.21222,0.1006 -1.67982,0.18243 z"
     id="path31008" /></g><path
   style="fill:#7f7a7a;stroke-width:0.168812;fill-opacity:1"
   d="m 91.42452,233.29157 c 0.15875,-0.085 0.50254,-0.15385 0.76397,-0.15307 0.63393,0.002 2.75429,-0.54781 2.75429,-0.71406 0,-0.0723 0.13294,-0.13182 0.29543,-0.13231 0.88896,-0.003 2.04333,-1.64746 2.06117,-2.93684 0.007,-0.48997 0.007,-0.48997 -2.14558,-0.35815 -1.1838,0.0725 -3.13991,0.18861 -4.34692,0.25802 -2.86441,0.16473 -13.14186,0.0313 -17.18507,-0.22312 -2.00458,-0.12613 -3.23274,-0.14062 -3.33404,-0.0393 -0.22796,0.22795 -0.19731,0.6089 0.0939,1.16724 0.1387,0.26594 0.25218,0.55623 0.25218,0.64509 0,0.0889 0.11464,0.27623 0.25477,0.41635 0.14012,0.14013 0.22376,0.30563 0.18587,0.36777 -0.0379,0.0622 0.20097,0.1274 0.53082,0.14501 0.32985,0.0176 0.64503,0.10335 0.7004,0.19054 0.0554,0.0872 0.78436,0.28583 1.61998,0.44141 0.83562,0.15559 1.67124,0.32233 1.85693,0.37056 0.82701,0.21473 6.10325,0.6887 8.01251,0.71976 1.15725,0.0188 2.1448,0.0772 2.19456,0.12972 0.14072,0.1485 5.11026,-0.12091 5.43486,-0.29461 z"
   id="path30796" /><path
   style="fill:#7f7a7a;stroke-width:0.168812;fill-opacity:1"
   d="m 137.06144,234.47632 c 4.52663,-0.38707 5.06359,-0.59199 5.94198,-2.26766 1.37878,-2.63028 1.52565,-3.39672 0.6417,-3.34878 -10.14452,0.55033 -11.08892,0.57874 -15.95276,0.48002 -2.83182,-0.0575 -6.06036,-0.1745 -7.17452,-0.26004 -1.11416,-0.0855 -2.55751,-0.16728 -3.20743,-0.18164 -1.04611,-0.0231 -1.22629,-0.0768 -1.57044,-0.468 -0.32902,-0.37397 -0.3613,-0.38494 -0.2101,-0.0714 0.0983,0.20374 0.25419,0.41712 0.34654,0.4742 0.0923,0.057 0.16791,0.24737 0.16791,0.42287 0,0.17552 0.36919,1.1016 0.82041,2.05799 0.82042,1.73889 0.82042,1.73889 1.73033,2.02141 1.37825,0.42796 4.01969,0.84264 7.24036,1.1367 1.95777,0.17874 9.15401,0.18154 11.22602,0.004 z"
   id="path30790" /><path
   style="fill:#7f7a7a;stroke-width:0.168812;fill-opacity:1"
   d="m 187.5363,234.50322 c 0.92847,-0.0981 2.14392,-0.25912 2.701,-0.35791 0.55708,-0.0988 1.27876,-0.22614 1.60372,-0.28305 1.01204,-0.17716 1.30747,-0.48964 1.69704,-1.79493 0.19848,-0.66504 0.46616,-1.47505 0.59485,-1.80001 0.12868,-0.32496 0.25631,-0.78076 0.28361,-1.01287 0.0273,-0.23212 0.11927,-0.53598 0.20438,-0.67525 0.12943,-0.21181 0.11172,-0.21839 -0.10827,-0.0403 -0.28328,0.22931 -2.49784,0.54472 -3.60008,0.51271 -0.37138,-0.0108 -2.55051,0.0803 -4.84251,0.20238 -4.01083,0.21363 -7.87863,0.14897 -17.94714,-0.3 -0.83563,-0.0373 -1.81523,-0.0799 -2.17692,-0.0947 -0.53546,-0.0219 -0.66693,0.0347 -0.70786,0.30497 -0.0276,0.18252 0.0142,0.41042 0.093,0.50644 0.0788,0.096 0.26761,0.59237 0.41957,1.10302 0.51741,1.73877 0.95067,2.42459 1.68269,2.66359 0.78014,0.25472 3.5316,0.61947 6.59795,0.87467 1.207,0.10045 2.91623,0.24552 3.79827,0.32236 2.02701,0.1766 7.49237,0.10276 9.7067,-0.13115 z"
   id="path30788" /></svg>
